G04 #@! TF.FileFunction,Legend,Top*
%FSLAX46Y46*%
G04 Gerber Fmt 4.6, Leading zero omitted, Abs format (unit mm)*
G04 Created by KiCad (PCBNEW 4.0.7+dfsg1-1) date Sun Apr 22 11:59:24 2018*
%MOMM*%
%LPD*%
G01*
G04 APERTURE LIST*
%ADD10C,0.100000*%
%ADD11C,0.200000*%
%ADD12C,0.119380*%
%ADD13C,0.120000*%
%ADD14C,0.150000*%
%ADD15C,0.127000*%
%ADD16C,0.114300*%
G04 APERTURE END LIST*
D10*
D11*
X22052380Y-14874762D02*
X22147618Y-14922381D01*
X22338094Y-14922381D01*
X22433333Y-14874762D01*
X22480952Y-14779524D01*
X22480952Y-14731905D01*
X22433333Y-14636667D01*
X22338094Y-14589048D01*
X22195237Y-14589048D01*
X22099999Y-14541429D01*
X22052380Y-14446190D01*
X22052380Y-14398571D01*
X22099999Y-14303333D01*
X22195237Y-14255714D01*
X22338094Y-14255714D01*
X22433333Y-14303333D01*
X22909523Y-14255714D02*
X22909523Y-14922381D01*
X22909523Y-14350952D02*
X22957142Y-14303333D01*
X23052380Y-14255714D01*
X23195238Y-14255714D01*
X23290476Y-14303333D01*
X23338095Y-14398571D01*
X23338095Y-14922381D01*
X24195238Y-14874762D02*
X24100000Y-14922381D01*
X23909523Y-14922381D01*
X23814285Y-14874762D01*
X23766666Y-14779524D01*
X23766666Y-14398571D01*
X23814285Y-14303333D01*
X23909523Y-14255714D01*
X24100000Y-14255714D01*
X24195238Y-14303333D01*
X24242857Y-14398571D01*
X24242857Y-14493810D01*
X23766666Y-14589048D01*
X24623809Y-14874762D02*
X24719047Y-14922381D01*
X24909523Y-14922381D01*
X25004762Y-14874762D01*
X25052381Y-14779524D01*
X25052381Y-14731905D01*
X25004762Y-14636667D01*
X24909523Y-14589048D01*
X24766666Y-14589048D01*
X24671428Y-14541429D01*
X24623809Y-14446190D01*
X24623809Y-14398571D01*
X24671428Y-14303333D01*
X24766666Y-14255714D01*
X24909523Y-14255714D01*
X25004762Y-14303333D01*
X25242857Y-15017619D02*
X26004762Y-15017619D01*
X26671429Y-14922381D02*
X26671429Y-13922381D01*
X26671429Y-14874762D02*
X26576191Y-14922381D01*
X26385714Y-14922381D01*
X26290476Y-14874762D01*
X26242857Y-14827143D01*
X26195238Y-14731905D01*
X26195238Y-14446190D01*
X26242857Y-14350952D01*
X26290476Y-14303333D01*
X26385714Y-14255714D01*
X26576191Y-14255714D01*
X26671429Y-14303333D01*
X27528572Y-14874762D02*
X27433334Y-14922381D01*
X27242857Y-14922381D01*
X27147619Y-14874762D01*
X27100000Y-14779524D01*
X27100000Y-14398571D01*
X27147619Y-14303333D01*
X27242857Y-14255714D01*
X27433334Y-14255714D01*
X27528572Y-14303333D01*
X27576191Y-14398571D01*
X27576191Y-14493810D01*
X27100000Y-14589048D01*
X28004762Y-14255714D02*
X28004762Y-15112857D01*
X27957143Y-15208095D01*
X27861905Y-15255714D01*
X27814286Y-15255714D01*
X28004762Y-13922381D02*
X27957143Y-13970000D01*
X28004762Y-14017619D01*
X28052381Y-13970000D01*
X28004762Y-13922381D01*
X28004762Y-14017619D01*
X28480952Y-14922381D02*
X28480952Y-14255714D01*
X28480952Y-13922381D02*
X28433333Y-13970000D01*
X28480952Y-14017619D01*
X28528571Y-13970000D01*
X28480952Y-13922381D01*
X28480952Y-14017619D01*
X28814285Y-14255714D02*
X29195237Y-14255714D01*
X28957142Y-13922381D02*
X28957142Y-14779524D01*
X29004761Y-14874762D01*
X29099999Y-14922381D01*
X29195237Y-14922381D01*
X29385714Y-14255714D02*
X29766666Y-14255714D01*
X29528571Y-13922381D02*
X29528571Y-14779524D01*
X29576190Y-14874762D01*
X29671428Y-14922381D01*
X29766666Y-14922381D01*
X30480953Y-14874762D02*
X30385715Y-14922381D01*
X30195238Y-14922381D01*
X30100000Y-14874762D01*
X30052381Y-14779524D01*
X30052381Y-14398571D01*
X30100000Y-14303333D01*
X30195238Y-14255714D01*
X30385715Y-14255714D01*
X30480953Y-14303333D01*
X30528572Y-14398571D01*
X30528572Y-14493810D01*
X30052381Y-14589048D01*
X30957143Y-14922381D02*
X30957143Y-14255714D01*
X30957143Y-14446190D02*
X31004762Y-14350952D01*
X31052381Y-14303333D01*
X31147619Y-14255714D01*
X31242858Y-14255714D01*
X25171429Y-15955714D02*
X25409524Y-16622381D01*
X25647620Y-15955714D01*
X26552382Y-16622381D02*
X25980953Y-16622381D01*
X26266667Y-16622381D02*
X26266667Y-15622381D01*
X26171429Y-15765238D01*
X26076191Y-15860476D01*
X25980953Y-15908095D01*
X26980953Y-16527143D02*
X27028572Y-16574762D01*
X26980953Y-16622381D01*
X26933334Y-16574762D01*
X26980953Y-16527143D01*
X26980953Y-16622381D01*
X27409524Y-15717619D02*
X27457143Y-15670000D01*
X27552381Y-15622381D01*
X27790477Y-15622381D01*
X27885715Y-15670000D01*
X27933334Y-15717619D01*
X27980953Y-15812857D01*
X27980953Y-15908095D01*
X27933334Y-16050952D01*
X27361905Y-16622381D01*
X27980953Y-16622381D01*
D12*
X19774860Y-14159620D02*
X19774860Y-13377300D01*
X19774860Y-15160380D02*
X19774860Y-15942700D01*
X18205140Y-14159620D02*
X18205140Y-13377300D01*
X18205140Y-15942700D02*
X18205140Y-15160380D01*
X18228000Y-13369680D02*
X19752000Y-13369680D01*
X19752000Y-15950320D02*
X18228000Y-15950320D01*
X37270380Y-36564860D02*
X38052700Y-36564860D01*
X36269620Y-36564860D02*
X35487300Y-36564860D01*
X37270380Y-34995140D02*
X38052700Y-34995140D01*
X35487300Y-34995140D02*
X36269620Y-34995140D01*
X38060320Y-35018000D02*
X38060320Y-36542000D01*
X35479680Y-36542000D02*
X35479680Y-35018000D01*
X23335140Y-33270380D02*
X23335140Y-34052700D01*
X23335140Y-32269620D02*
X23335140Y-31487300D01*
X24904860Y-33270380D02*
X24904860Y-34052700D01*
X24904860Y-31487300D02*
X24904860Y-32269620D01*
X24882000Y-34060320D02*
X23358000Y-34060320D01*
X23358000Y-31479680D02*
X24882000Y-31479680D01*
X40675140Y-29490380D02*
X40675140Y-30272700D01*
X40675140Y-28489620D02*
X40675140Y-27707300D01*
X42244860Y-29490380D02*
X42244860Y-30272700D01*
X42244860Y-27707300D02*
X42244860Y-28489620D01*
X42222000Y-30280320D02*
X40698000Y-30280320D01*
X40698000Y-27699680D02*
X42222000Y-27699680D01*
X15064860Y-23169620D02*
X15064860Y-22387300D01*
X15064860Y-24170380D02*
X15064860Y-24952700D01*
X13495140Y-23169620D02*
X13495140Y-22387300D01*
X13495140Y-24952700D02*
X13495140Y-24170380D01*
X13518000Y-22379680D02*
X15042000Y-22379680D01*
X15042000Y-24960320D02*
X13518000Y-24960320D01*
X13485140Y-21240380D02*
X13485140Y-22022700D01*
X13485140Y-20239620D02*
X13485140Y-19457300D01*
X15054860Y-21240380D02*
X15054860Y-22022700D01*
X15054860Y-19457300D02*
X15054860Y-20239620D01*
X15032000Y-22030320D02*
X13508000Y-22030320D01*
X13508000Y-19449680D02*
X15032000Y-19449680D01*
X34600380Y-19684860D02*
X35382700Y-19684860D01*
X33599620Y-19684860D02*
X32817300Y-19684860D01*
X34600380Y-18115140D02*
X35382700Y-18115140D01*
X32817300Y-18115140D02*
X33599620Y-18115140D01*
X35390320Y-18138000D02*
X35390320Y-19662000D01*
X32809680Y-19662000D02*
X32809680Y-18138000D01*
X51289620Y-34605140D02*
X50507300Y-34605140D01*
X52290380Y-34605140D02*
X53072700Y-34605140D01*
X51289620Y-36174860D02*
X50507300Y-36174860D01*
X53072700Y-36174860D02*
X52290380Y-36174860D01*
X50499680Y-36152000D02*
X50499680Y-34628000D01*
X53080320Y-34628000D02*
X53080320Y-36152000D01*
D13*
X48000000Y-30920000D02*
X47070000Y-30920000D01*
X44840000Y-30920000D02*
X45770000Y-30920000D01*
X44840000Y-30920000D02*
X44840000Y-34080000D01*
X48000000Y-30920000D02*
X48000000Y-32380000D01*
D12*
X29770380Y-36574860D02*
X30552700Y-36574860D01*
X28769620Y-36574860D02*
X27987300Y-36574860D01*
X29770380Y-35005140D02*
X30552700Y-35005140D01*
X27987300Y-35005140D02*
X28769620Y-35005140D01*
X30560320Y-35028000D02*
X30560320Y-36552000D01*
X27979680Y-36552000D02*
X27979680Y-35028000D01*
X32049620Y-35005140D02*
X31267300Y-35005140D01*
X33050380Y-35005140D02*
X33832700Y-35005140D01*
X32049620Y-36574860D02*
X31267300Y-36574860D01*
X33832700Y-36574860D02*
X33050380Y-36574860D01*
X31259680Y-36552000D02*
X31259680Y-35028000D01*
X33840320Y-35028000D02*
X33840320Y-36552000D01*
X34834860Y-16029620D02*
X34834860Y-15247300D01*
X34834860Y-17030380D02*
X34834860Y-17812700D01*
X33265140Y-16029620D02*
X33265140Y-15247300D01*
X33265140Y-17812700D02*
X33265140Y-17030380D01*
X33288000Y-15239680D02*
X34812000Y-15239680D01*
X34812000Y-17820320D02*
X33288000Y-17820320D01*
X30114860Y-17889620D02*
X30114860Y-17107300D01*
X30114860Y-18890380D02*
X30114860Y-19672700D01*
X28545140Y-17889620D02*
X28545140Y-17107300D01*
X28545140Y-19672700D02*
X28545140Y-18890380D01*
X28568000Y-17099680D02*
X30092000Y-17099680D01*
X30092000Y-19680320D02*
X28568000Y-19680320D01*
X31984860Y-16359620D02*
X31984860Y-15577300D01*
X31984860Y-17360380D02*
X31984860Y-18142700D01*
X30415140Y-16359620D02*
X30415140Y-15577300D01*
X30415140Y-18142700D02*
X30415140Y-17360380D01*
X30438000Y-15569680D02*
X31962000Y-15569680D01*
X31962000Y-18150320D02*
X30438000Y-18150320D01*
X15074860Y-26849620D02*
X15074860Y-26067300D01*
X15074860Y-27850380D02*
X15074860Y-28632700D01*
X13505140Y-26849620D02*
X13505140Y-26067300D01*
X13505140Y-28632700D02*
X13505140Y-27850380D01*
X13528000Y-26059680D02*
X15052000Y-26059680D01*
X15052000Y-28640320D02*
X13528000Y-28640320D01*
X24544860Y-23679620D02*
X24544860Y-22897300D01*
X24544860Y-24680380D02*
X24544860Y-25462700D01*
X22975140Y-23679620D02*
X22975140Y-22897300D01*
X22975140Y-25462700D02*
X22975140Y-24680380D01*
X22998000Y-22889680D02*
X24522000Y-22889680D01*
X24522000Y-25470320D02*
X22998000Y-25470320D01*
X24544860Y-20029620D02*
X24544860Y-19247300D01*
X24544860Y-21030380D02*
X24544860Y-21812700D01*
X22975140Y-20029620D02*
X22975140Y-19247300D01*
X22975140Y-21812700D02*
X22975140Y-21030380D01*
X22998000Y-19239680D02*
X24522000Y-19239680D01*
X24522000Y-21820320D02*
X22998000Y-21820320D01*
X42675140Y-31280380D02*
X42675140Y-32062700D01*
X42675140Y-30279620D02*
X42675140Y-29497300D01*
X44244860Y-31280380D02*
X44244860Y-32062700D01*
X44244860Y-29497300D02*
X44244860Y-30279620D01*
X44222000Y-32070320D02*
X42698000Y-32070320D01*
X42698000Y-29489680D02*
X44222000Y-29489680D01*
X40665140Y-33140380D02*
X40665140Y-33922700D01*
X40665140Y-32139620D02*
X40665140Y-31357300D01*
X42234860Y-33140380D02*
X42234860Y-33922700D01*
X42234860Y-31357300D02*
X42234860Y-32139620D01*
X42212000Y-33930320D02*
X40688000Y-33930320D01*
X40688000Y-31349680D02*
X42212000Y-31349680D01*
X48565140Y-35050380D02*
X48565140Y-35832700D01*
X48565140Y-34049620D02*
X48565140Y-33267300D01*
X50134860Y-35050380D02*
X50134860Y-35832700D01*
X50134860Y-33267300D02*
X50134860Y-34049620D01*
X50112000Y-35840320D02*
X48588000Y-35840320D01*
X48588000Y-33259680D02*
X50112000Y-33259680D01*
X51289620Y-32765140D02*
X50507300Y-32765140D01*
X52290380Y-32765140D02*
X53072700Y-32765140D01*
X51289620Y-34334860D02*
X50507300Y-34334860D01*
X53072700Y-34334860D02*
X52290380Y-34334860D01*
X50499680Y-34312000D02*
X50499680Y-32788000D01*
X53080320Y-32788000D02*
X53080320Y-34312000D01*
X41859620Y-25785140D02*
X41077300Y-25785140D01*
X42860380Y-25785140D02*
X43642700Y-25785140D01*
X41859620Y-27354860D02*
X41077300Y-27354860D01*
X43642700Y-27354860D02*
X42860380Y-27354860D01*
X41069680Y-27332000D02*
X41069680Y-25808000D01*
X43650320Y-25808000D02*
X43650320Y-27332000D01*
X49410380Y-28634860D02*
X50192700Y-28634860D01*
X48409620Y-28634860D02*
X47627300Y-28634860D01*
X49410380Y-27065140D02*
X50192700Y-27065140D01*
X47627300Y-27065140D02*
X48409620Y-27065140D01*
X50200320Y-27088000D02*
X50200320Y-28612000D01*
X47619680Y-28612000D02*
X47619680Y-27088000D01*
D13*
X16505000Y-25365000D02*
X16505000Y-19115000D01*
X21555000Y-25365000D02*
X21555000Y-19115000D01*
X21555000Y-25365000D02*
G75*
G02X16505000Y-25365000I-2525000J0D01*
G01*
X21555000Y-19115000D02*
G75*
G03X16505000Y-19115000I-2525000J0D01*
G01*
D14*
X29111964Y-31334940D02*
G75*
G03X29111964Y-31334940I-480544J0D01*
G01*
X27335000Y-32545000D02*
X27910000Y-32545000D01*
X27335000Y-22195000D02*
X28010000Y-22195000D01*
X37685000Y-22195000D02*
X37010000Y-22195000D01*
X37685000Y-32545000D02*
X37010000Y-32545000D01*
X27335000Y-32545000D02*
X27335000Y-31870000D01*
X37685000Y-32545000D02*
X37685000Y-31870000D01*
X37685000Y-22195000D02*
X37685000Y-22870000D01*
X27335000Y-22195000D02*
X27335000Y-22870000D01*
X27910000Y-32545000D02*
X27910000Y-33820000D01*
D13*
X41020000Y-22250000D02*
X56380000Y-22250000D01*
X56380000Y-22250000D02*
X56380000Y-13590000D01*
X56380000Y-19590000D02*
X41020000Y-19590000D01*
X41020000Y-13590000D02*
X41020000Y-22250000D01*
X41020000Y-13590000D02*
X56380000Y-13590000D01*
X41970000Y-22580000D02*
X41970000Y-22250000D01*
X42730000Y-22580000D02*
X42730000Y-22250000D01*
X43620000Y-22250000D02*
X43620000Y-19590000D01*
X44510000Y-22647071D02*
X44510000Y-22250000D01*
X45270000Y-22647071D02*
X45270000Y-22250000D01*
X46160000Y-22250000D02*
X46160000Y-19590000D01*
X47050000Y-22647071D02*
X47050000Y-22250000D01*
X47810000Y-22647071D02*
X47810000Y-22250000D01*
X48700000Y-22250000D02*
X48700000Y-19590000D01*
X49590000Y-22647071D02*
X49590000Y-22250000D01*
X50350000Y-22647071D02*
X50350000Y-22250000D01*
X51240000Y-22250000D02*
X51240000Y-19590000D01*
X52130000Y-22647071D02*
X52130000Y-22250000D01*
X52890000Y-22647071D02*
X52890000Y-22250000D01*
X53780000Y-22250000D02*
X53780000Y-19590000D01*
X54670000Y-22647071D02*
X54670000Y-22250000D01*
X55430000Y-22647071D02*
X55430000Y-22250000D01*
X42350000Y-24960000D02*
X41080000Y-24960000D01*
X41080000Y-24960000D02*
X41080000Y-23690000D01*
D12*
X45650000Y-27850000D02*
X45650000Y-28500000D01*
X45650000Y-26550000D02*
X45650000Y-25900000D01*
X46950000Y-27850000D02*
X46950000Y-28500000D01*
X46950000Y-25900000D02*
X46950000Y-26550000D01*
X46950000Y-28500000D02*
X45650000Y-28500000D01*
X45650000Y-25900000D02*
X46950000Y-25900000D01*
X54260000Y-35050000D02*
X54260000Y-35700000D01*
X54260000Y-33750000D02*
X54260000Y-33100000D01*
X55560000Y-35050000D02*
X55560000Y-35700000D01*
X55560000Y-33100000D02*
X55560000Y-33750000D01*
X55560000Y-35700000D02*
X54260000Y-35700000D01*
X54260000Y-33100000D02*
X55560000Y-33100000D01*
D15*
X20445333Y-14028643D02*
X20421143Y-14056462D01*
X20348571Y-14084281D01*
X20300190Y-14084281D01*
X20227619Y-14056462D01*
X20179238Y-14000824D01*
X20155047Y-13945186D01*
X20130857Y-13833910D01*
X20130857Y-13750452D01*
X20155047Y-13639176D01*
X20179238Y-13583538D01*
X20227619Y-13527900D01*
X20300190Y-13500081D01*
X20348571Y-13500081D01*
X20421143Y-13527900D01*
X20445333Y-13555719D01*
X20929143Y-14084281D02*
X20638857Y-14084281D01*
X20784000Y-14084281D02*
X20784000Y-13500081D01*
X20735619Y-13583538D01*
X20687238Y-13639176D01*
X20638857Y-13666995D01*
D16*
X18696086Y-14889810D02*
X18434829Y-14889810D01*
X18565457Y-14889810D02*
X18565457Y-14381810D01*
X18521914Y-14454381D01*
X18478372Y-14502762D01*
X18434829Y-14526952D01*
X18979115Y-14381810D02*
X19022658Y-14381810D01*
X19066201Y-14406000D01*
X19087972Y-14430190D01*
X19109743Y-14478571D01*
X19131515Y-14575333D01*
X19131515Y-14696286D01*
X19109743Y-14793048D01*
X19087972Y-14841429D01*
X19066201Y-14865619D01*
X19022658Y-14889810D01*
X18979115Y-14889810D01*
X18935572Y-14865619D01*
X18913801Y-14841429D01*
X18892029Y-14793048D01*
X18870258Y-14696286D01*
X18870258Y-14575333D01*
X18892029Y-14478571D01*
X18913801Y-14430190D01*
X18935572Y-14406000D01*
X18979115Y-14381810D01*
X19523401Y-14551143D02*
X19523401Y-14889810D01*
X19327458Y-14551143D02*
X19327458Y-14817238D01*
X19349230Y-14865619D01*
X19392772Y-14889810D01*
X19458087Y-14889810D01*
X19501630Y-14865619D01*
X19523401Y-14841429D01*
D15*
X38838643Y-35884667D02*
X38866462Y-35908857D01*
X38894281Y-35981429D01*
X38894281Y-36029810D01*
X38866462Y-36102381D01*
X38810824Y-36150762D01*
X38755186Y-36174953D01*
X38643910Y-36199143D01*
X38560452Y-36199143D01*
X38449176Y-36174953D01*
X38393538Y-36150762D01*
X38337900Y-36102381D01*
X38310081Y-36029810D01*
X38310081Y-35981429D01*
X38337900Y-35908857D01*
X38365719Y-35884667D01*
X38365719Y-35691143D02*
X38337900Y-35666953D01*
X38310081Y-35618572D01*
X38310081Y-35497619D01*
X38337900Y-35449238D01*
X38365719Y-35425048D01*
X38421357Y-35400857D01*
X38476995Y-35400857D01*
X38560452Y-35425048D01*
X38894281Y-35715334D01*
X38894281Y-35400857D01*
D16*
X36491810Y-36335171D02*
X36491810Y-36291628D01*
X36516000Y-36248085D01*
X36540190Y-36226314D01*
X36588571Y-36204543D01*
X36685333Y-36182771D01*
X36806286Y-36182771D01*
X36903048Y-36204543D01*
X36951429Y-36226314D01*
X36975619Y-36248085D01*
X36999810Y-36291628D01*
X36999810Y-36335171D01*
X36975619Y-36378714D01*
X36951429Y-36400485D01*
X36903048Y-36422257D01*
X36806286Y-36444028D01*
X36685333Y-36444028D01*
X36588571Y-36422257D01*
X36540190Y-36400485D01*
X36516000Y-36378714D01*
X36491810Y-36335171D01*
X36951429Y-35986828D02*
X36975619Y-35965056D01*
X36999810Y-35986828D01*
X36975619Y-36008599D01*
X36951429Y-35986828D01*
X36999810Y-35986828D01*
X36999810Y-35529628D02*
X36999810Y-35790885D01*
X36999810Y-35660257D02*
X36491810Y-35660257D01*
X36564381Y-35703800D01*
X36612762Y-35747342D01*
X36636952Y-35790885D01*
X36661143Y-35137742D02*
X36999810Y-35137742D01*
X36661143Y-35333685D02*
X36927238Y-35333685D01*
X36975619Y-35311913D01*
X36999810Y-35268371D01*
X36999810Y-35203056D01*
X36975619Y-35159513D01*
X36951429Y-35137742D01*
D15*
X24035333Y-31149843D02*
X24011143Y-31177662D01*
X23938571Y-31205481D01*
X23890190Y-31205481D01*
X23817619Y-31177662D01*
X23769238Y-31122024D01*
X23745047Y-31066386D01*
X23720857Y-30955110D01*
X23720857Y-30871652D01*
X23745047Y-30760376D01*
X23769238Y-30704738D01*
X23817619Y-30649100D01*
X23890190Y-30621281D01*
X23938571Y-30621281D01*
X24011143Y-30649100D01*
X24035333Y-30676919D01*
X24204666Y-30621281D02*
X24519143Y-30621281D01*
X24349809Y-30843833D01*
X24422381Y-30843833D01*
X24470762Y-30871652D01*
X24494952Y-30899471D01*
X24519143Y-30955110D01*
X24519143Y-31094205D01*
X24494952Y-31149843D01*
X24470762Y-31177662D01*
X24422381Y-31205481D01*
X24277238Y-31205481D01*
X24228857Y-31177662D01*
X24204666Y-31149843D01*
D16*
X23564829Y-32491810D02*
X23608372Y-32491810D01*
X23651915Y-32516000D01*
X23673686Y-32540190D01*
X23695457Y-32588571D01*
X23717229Y-32685333D01*
X23717229Y-32806286D01*
X23695457Y-32903048D01*
X23673686Y-32951429D01*
X23651915Y-32975619D01*
X23608372Y-32999810D01*
X23564829Y-32999810D01*
X23521286Y-32975619D01*
X23499515Y-32951429D01*
X23477743Y-32903048D01*
X23455972Y-32806286D01*
X23455972Y-32685333D01*
X23477743Y-32588571D01*
X23499515Y-32540190D01*
X23521286Y-32516000D01*
X23564829Y-32491810D01*
X23913172Y-32951429D02*
X23934944Y-32975619D01*
X23913172Y-32999810D01*
X23891401Y-32975619D01*
X23913172Y-32951429D01*
X23913172Y-32999810D01*
X24370372Y-32999810D02*
X24109115Y-32999810D01*
X24239743Y-32999810D02*
X24239743Y-32491810D01*
X24196200Y-32564381D01*
X24152658Y-32612762D01*
X24109115Y-32636952D01*
X24762258Y-32661143D02*
X24762258Y-32999810D01*
X24566315Y-32661143D02*
X24566315Y-32927238D01*
X24588087Y-32975619D01*
X24631629Y-32999810D01*
X24696944Y-32999810D01*
X24740487Y-32975619D01*
X24762258Y-32951429D01*
D15*
X41365333Y-30988643D02*
X41341143Y-31016462D01*
X41268571Y-31044281D01*
X41220190Y-31044281D01*
X41147619Y-31016462D01*
X41099238Y-30960824D01*
X41075047Y-30905186D01*
X41050857Y-30793910D01*
X41050857Y-30710452D01*
X41075047Y-30599176D01*
X41099238Y-30543538D01*
X41147619Y-30487900D01*
X41220190Y-30460081D01*
X41268571Y-30460081D01*
X41341143Y-30487900D01*
X41365333Y-30515719D01*
X41800762Y-30654814D02*
X41800762Y-31044281D01*
X41679809Y-30432262D02*
X41558857Y-30849548D01*
X41873333Y-30849548D01*
D16*
X40904829Y-28711810D02*
X40948372Y-28711810D01*
X40991915Y-28736000D01*
X41013686Y-28760190D01*
X41035457Y-28808571D01*
X41057229Y-28905333D01*
X41057229Y-29026286D01*
X41035457Y-29123048D01*
X41013686Y-29171429D01*
X40991915Y-29195619D01*
X40948372Y-29219810D01*
X40904829Y-29219810D01*
X40861286Y-29195619D01*
X40839515Y-29171429D01*
X40817743Y-29123048D01*
X40795972Y-29026286D01*
X40795972Y-28905333D01*
X40817743Y-28808571D01*
X40839515Y-28760190D01*
X40861286Y-28736000D01*
X40904829Y-28711810D01*
X41253172Y-29171429D02*
X41274944Y-29195619D01*
X41253172Y-29219810D01*
X41231401Y-29195619D01*
X41253172Y-29171429D01*
X41253172Y-29219810D01*
X41710372Y-29219810D02*
X41449115Y-29219810D01*
X41579743Y-29219810D02*
X41579743Y-28711810D01*
X41536200Y-28784381D01*
X41492658Y-28832762D01*
X41449115Y-28856952D01*
X42102258Y-28881143D02*
X42102258Y-29219810D01*
X41906315Y-28881143D02*
X41906315Y-29147238D01*
X41928087Y-29195619D01*
X41971629Y-29219810D01*
X42036944Y-29219810D01*
X42080487Y-29195619D01*
X42102258Y-29171429D01*
D15*
X14195333Y-25707443D02*
X14171143Y-25735262D01*
X14098571Y-25763081D01*
X14050190Y-25763081D01*
X13977619Y-25735262D01*
X13929238Y-25679624D01*
X13905047Y-25623986D01*
X13880857Y-25512710D01*
X13880857Y-25429252D01*
X13905047Y-25317976D01*
X13929238Y-25262338D01*
X13977619Y-25206700D01*
X14050190Y-25178881D01*
X14098571Y-25178881D01*
X14171143Y-25206700D01*
X14195333Y-25234519D01*
X14654952Y-25178881D02*
X14413047Y-25178881D01*
X14388857Y-25457071D01*
X14413047Y-25429252D01*
X14461428Y-25401433D01*
X14582381Y-25401433D01*
X14630762Y-25429252D01*
X14654952Y-25457071D01*
X14679143Y-25512710D01*
X14679143Y-25651805D01*
X14654952Y-25707443D01*
X14630762Y-25735262D01*
X14582381Y-25763081D01*
X14461428Y-25763081D01*
X14413047Y-25735262D01*
X14388857Y-25707443D01*
D16*
X13986086Y-23899810D02*
X13724829Y-23899810D01*
X13855457Y-23899810D02*
X13855457Y-23391810D01*
X13811914Y-23464381D01*
X13768372Y-23512762D01*
X13724829Y-23536952D01*
X14160258Y-23440190D02*
X14182029Y-23416000D01*
X14225572Y-23391810D01*
X14334429Y-23391810D01*
X14377972Y-23416000D01*
X14399743Y-23440190D01*
X14421515Y-23488571D01*
X14421515Y-23536952D01*
X14399743Y-23609524D01*
X14138486Y-23899810D01*
X14421515Y-23899810D01*
X14617458Y-23561143D02*
X14617458Y-24069143D01*
X14617458Y-23585333D02*
X14661001Y-23561143D01*
X14748087Y-23561143D01*
X14791630Y-23585333D01*
X14813401Y-23609524D01*
X14835172Y-23657905D01*
X14835172Y-23803048D01*
X14813401Y-23851429D01*
X14791630Y-23875619D01*
X14748087Y-23899810D01*
X14661001Y-23899810D01*
X14617458Y-23875619D01*
D15*
X14185333Y-19119843D02*
X14161143Y-19147662D01*
X14088571Y-19175481D01*
X14040190Y-19175481D01*
X13967619Y-19147662D01*
X13919238Y-19092024D01*
X13895047Y-19036386D01*
X13870857Y-18925110D01*
X13870857Y-18841652D01*
X13895047Y-18730376D01*
X13919238Y-18674738D01*
X13967619Y-18619100D01*
X14040190Y-18591281D01*
X14088571Y-18591281D01*
X14161143Y-18619100D01*
X14185333Y-18646919D01*
X14620762Y-18591281D02*
X14524000Y-18591281D01*
X14475619Y-18619100D01*
X14451428Y-18646919D01*
X14403047Y-18730376D01*
X14378857Y-18841652D01*
X14378857Y-19064205D01*
X14403047Y-19119843D01*
X14427238Y-19147662D01*
X14475619Y-19175481D01*
X14572381Y-19175481D01*
X14620762Y-19147662D01*
X14644952Y-19119843D01*
X14669143Y-19064205D01*
X14669143Y-18925110D01*
X14644952Y-18869471D01*
X14620762Y-18841652D01*
X14572381Y-18813833D01*
X14475619Y-18813833D01*
X14427238Y-18841652D01*
X14403047Y-18869471D01*
X14378857Y-18925110D01*
D16*
X13976086Y-20969810D02*
X13714829Y-20969810D01*
X13845457Y-20969810D02*
X13845457Y-20461810D01*
X13801914Y-20534381D01*
X13758372Y-20582762D01*
X13714829Y-20606952D01*
X14150258Y-20510190D02*
X14172029Y-20486000D01*
X14215572Y-20461810D01*
X14324429Y-20461810D01*
X14367972Y-20486000D01*
X14389743Y-20510190D01*
X14411515Y-20558571D01*
X14411515Y-20606952D01*
X14389743Y-20679524D01*
X14128486Y-20969810D01*
X14411515Y-20969810D01*
X14607458Y-20631143D02*
X14607458Y-21139143D01*
X14607458Y-20655333D02*
X14651001Y-20631143D01*
X14738087Y-20631143D01*
X14781630Y-20655333D01*
X14803401Y-20679524D01*
X14825172Y-20727905D01*
X14825172Y-20873048D01*
X14803401Y-20921429D01*
X14781630Y-20945619D01*
X14738087Y-20969810D01*
X14651001Y-20969810D01*
X14607458Y-20945619D01*
D15*
X32488643Y-19214667D02*
X32516462Y-19238857D01*
X32544281Y-19311429D01*
X32544281Y-19359810D01*
X32516462Y-19432381D01*
X32460824Y-19480762D01*
X32405186Y-19504953D01*
X32293910Y-19529143D01*
X32210452Y-19529143D01*
X32099176Y-19504953D01*
X32043538Y-19480762D01*
X31987900Y-19432381D01*
X31960081Y-19359810D01*
X31960081Y-19311429D01*
X31987900Y-19238857D01*
X32015719Y-19214667D01*
X31960081Y-19045334D02*
X31960081Y-18706667D01*
X32544281Y-18924381D01*
D16*
X33821810Y-19455171D02*
X33821810Y-19411628D01*
X33846000Y-19368085D01*
X33870190Y-19346314D01*
X33918571Y-19324543D01*
X34015333Y-19302771D01*
X34136286Y-19302771D01*
X34233048Y-19324543D01*
X34281429Y-19346314D01*
X34305619Y-19368085D01*
X34329810Y-19411628D01*
X34329810Y-19455171D01*
X34305619Y-19498714D01*
X34281429Y-19520485D01*
X34233048Y-19542257D01*
X34136286Y-19564028D01*
X34015333Y-19564028D01*
X33918571Y-19542257D01*
X33870190Y-19520485D01*
X33846000Y-19498714D01*
X33821810Y-19455171D01*
X34281429Y-19106828D02*
X34305619Y-19085056D01*
X34329810Y-19106828D01*
X34305619Y-19128599D01*
X34281429Y-19106828D01*
X34329810Y-19106828D01*
X34329810Y-18649628D02*
X34329810Y-18910885D01*
X34329810Y-18780257D02*
X33821810Y-18780257D01*
X33894381Y-18823800D01*
X33942762Y-18867342D01*
X33966952Y-18910885D01*
X33991143Y-18257742D02*
X34329810Y-18257742D01*
X33991143Y-18453685D02*
X34257238Y-18453685D01*
X34305619Y-18431913D01*
X34329810Y-18388371D01*
X34329810Y-18323056D01*
X34305619Y-18279513D01*
X34281429Y-18257742D01*
D15*
X53798643Y-35904667D02*
X53826462Y-35928857D01*
X53854281Y-36001429D01*
X53854281Y-36049810D01*
X53826462Y-36122381D01*
X53770824Y-36170762D01*
X53715186Y-36194953D01*
X53603910Y-36219143D01*
X53520452Y-36219143D01*
X53409176Y-36194953D01*
X53353538Y-36170762D01*
X53297900Y-36122381D01*
X53270081Y-36049810D01*
X53270081Y-36001429D01*
X53297900Y-35928857D01*
X53325719Y-35904667D01*
X53520452Y-35614381D02*
X53492633Y-35662762D01*
X53464814Y-35686953D01*
X53409176Y-35711143D01*
X53381357Y-35711143D01*
X53325719Y-35686953D01*
X53297900Y-35662762D01*
X53270081Y-35614381D01*
X53270081Y-35517619D01*
X53297900Y-35469238D01*
X53325719Y-35445048D01*
X53381357Y-35420857D01*
X53409176Y-35420857D01*
X53464814Y-35445048D01*
X53492633Y-35469238D01*
X53520452Y-35517619D01*
X53520452Y-35614381D01*
X53548271Y-35662762D01*
X53576090Y-35686953D01*
X53631729Y-35711143D01*
X53743005Y-35711143D01*
X53798643Y-35686953D01*
X53826462Y-35662762D01*
X53854281Y-35614381D01*
X53854281Y-35517619D01*
X53826462Y-35469238D01*
X53798643Y-35445048D01*
X53743005Y-35420857D01*
X53631729Y-35420857D01*
X53576090Y-35445048D01*
X53548271Y-35469238D01*
X53520452Y-35517619D01*
D16*
X51511810Y-36184658D02*
X51511810Y-35901629D01*
X51705333Y-36054029D01*
X51705333Y-35988715D01*
X51729524Y-35945172D01*
X51753714Y-35923401D01*
X51802095Y-35901629D01*
X51923048Y-35901629D01*
X51971429Y-35923401D01*
X51995619Y-35945172D01*
X52019810Y-35988715D01*
X52019810Y-36119343D01*
X51995619Y-36162886D01*
X51971429Y-36184658D01*
X51511810Y-35749229D02*
X51511810Y-35466200D01*
X51705333Y-35618600D01*
X51705333Y-35553286D01*
X51729524Y-35509743D01*
X51753714Y-35487972D01*
X51802095Y-35466200D01*
X51923048Y-35466200D01*
X51971429Y-35487972D01*
X51995619Y-35509743D01*
X52019810Y-35553286D01*
X52019810Y-35683914D01*
X51995619Y-35727457D01*
X51971429Y-35749229D01*
X51511810Y-35183171D02*
X51511810Y-35139628D01*
X51536000Y-35096085D01*
X51560190Y-35074314D01*
X51608571Y-35052543D01*
X51705333Y-35030771D01*
X51826286Y-35030771D01*
X51923048Y-35052543D01*
X51971429Y-35074314D01*
X51995619Y-35096085D01*
X52019810Y-35139628D01*
X52019810Y-35183171D01*
X51995619Y-35226714D01*
X51971429Y-35248485D01*
X51923048Y-35270257D01*
X51826286Y-35292028D01*
X51705333Y-35292028D01*
X51608571Y-35270257D01*
X51560190Y-35248485D01*
X51536000Y-35226714D01*
X51511810Y-35183171D01*
X51681143Y-34834828D02*
X52189143Y-34834828D01*
X51705333Y-34834828D02*
X51681143Y-34791285D01*
X51681143Y-34704199D01*
X51705333Y-34660656D01*
X51729524Y-34638885D01*
X51777905Y-34617114D01*
X51923048Y-34617114D01*
X51971429Y-34638885D01*
X51995619Y-34660656D01*
X52019810Y-34704199D01*
X52019810Y-34791285D01*
X51995619Y-34834828D01*
D14*
X49517619Y-30055238D02*
X49470000Y-30150476D01*
X49374762Y-30245714D01*
X49231905Y-30388571D01*
X49184286Y-30483810D01*
X49184286Y-30579048D01*
X49422381Y-30531429D02*
X49374762Y-30626667D01*
X49279524Y-30721905D01*
X49089048Y-30769524D01*
X48755714Y-30769524D01*
X48565238Y-30721905D01*
X48470000Y-30626667D01*
X48422381Y-30531429D01*
X48422381Y-30340952D01*
X48470000Y-30245714D01*
X48565238Y-30150476D01*
X48755714Y-30102857D01*
X49089048Y-30102857D01*
X49279524Y-30150476D01*
X49374762Y-30245714D01*
X49422381Y-30340952D01*
X49422381Y-30531429D01*
X49422381Y-29150476D02*
X49422381Y-29721905D01*
X49422381Y-29436191D02*
X48422381Y-29436191D01*
X48565238Y-29531429D01*
X48660476Y-29626667D01*
X48708095Y-29721905D01*
D15*
X27705481Y-35874667D02*
X27427290Y-36044000D01*
X27705481Y-36164953D02*
X27121281Y-36164953D01*
X27121281Y-35971429D01*
X27149100Y-35923048D01*
X27176919Y-35898857D01*
X27232557Y-35874667D01*
X27316014Y-35874667D01*
X27371652Y-35898857D01*
X27399471Y-35923048D01*
X27427290Y-35971429D01*
X27427290Y-36164953D01*
X27705481Y-35390857D02*
X27705481Y-35681143D01*
X27705481Y-35536000D02*
X27121281Y-35536000D01*
X27204738Y-35584381D01*
X27260376Y-35632762D01*
X27288195Y-35681143D01*
D16*
X29499810Y-36062143D02*
X29499810Y-36323400D01*
X29499810Y-36192772D02*
X28991810Y-36192772D01*
X29064381Y-36236315D01*
X29112762Y-36279857D01*
X29136952Y-36323400D01*
X28991810Y-35779114D02*
X28991810Y-35735571D01*
X29016000Y-35692028D01*
X29040190Y-35670257D01*
X29088571Y-35648486D01*
X29185333Y-35626714D01*
X29306286Y-35626714D01*
X29403048Y-35648486D01*
X29451429Y-35670257D01*
X29475619Y-35692028D01*
X29499810Y-35735571D01*
X29499810Y-35779114D01*
X29475619Y-35822657D01*
X29451429Y-35844428D01*
X29403048Y-35866200D01*
X29306286Y-35887971D01*
X29185333Y-35887971D01*
X29088571Y-35866200D01*
X29040190Y-35844428D01*
X29016000Y-35822657D01*
X28991810Y-35779114D01*
X29499810Y-35430771D02*
X28991810Y-35430771D01*
X29306286Y-35387228D02*
X29499810Y-35256599D01*
X29161143Y-35256599D02*
X29354667Y-35430771D01*
D15*
X34744281Y-35904667D02*
X34466090Y-36074000D01*
X34744281Y-36194953D02*
X34160081Y-36194953D01*
X34160081Y-36001429D01*
X34187900Y-35953048D01*
X34215719Y-35928857D01*
X34271357Y-35904667D01*
X34354814Y-35904667D01*
X34410452Y-35928857D01*
X34438271Y-35953048D01*
X34466090Y-36001429D01*
X34466090Y-36194953D01*
X34215719Y-35711143D02*
X34187900Y-35686953D01*
X34160081Y-35638572D01*
X34160081Y-35517619D01*
X34187900Y-35469238D01*
X34215719Y-35445048D01*
X34271357Y-35420857D01*
X34326995Y-35420857D01*
X34410452Y-35445048D01*
X34744281Y-35735334D01*
X34744281Y-35420857D01*
D16*
X32779810Y-36062143D02*
X32779810Y-36323400D01*
X32779810Y-36192772D02*
X32271810Y-36192772D01*
X32344381Y-36236315D01*
X32392762Y-36279857D01*
X32416952Y-36323400D01*
X32271810Y-35779114D02*
X32271810Y-35735571D01*
X32296000Y-35692028D01*
X32320190Y-35670257D01*
X32368571Y-35648486D01*
X32465333Y-35626714D01*
X32586286Y-35626714D01*
X32683048Y-35648486D01*
X32731429Y-35670257D01*
X32755619Y-35692028D01*
X32779810Y-35735571D01*
X32779810Y-35779114D01*
X32755619Y-35822657D01*
X32731429Y-35844428D01*
X32683048Y-35866200D01*
X32586286Y-35887971D01*
X32465333Y-35887971D01*
X32368571Y-35866200D01*
X32320190Y-35844428D01*
X32296000Y-35822657D01*
X32271810Y-35779114D01*
X32779810Y-35430771D02*
X32271810Y-35430771D01*
X32586286Y-35387228D02*
X32779810Y-35256599D01*
X32441143Y-35256599D02*
X32634667Y-35430771D01*
D15*
X33975333Y-14954281D02*
X33806000Y-14676090D01*
X33685047Y-14954281D02*
X33685047Y-14370081D01*
X33878571Y-14370081D01*
X33926952Y-14397900D01*
X33951143Y-14425719D01*
X33975333Y-14481357D01*
X33975333Y-14564814D01*
X33951143Y-14620452D01*
X33926952Y-14648271D01*
X33878571Y-14676090D01*
X33685047Y-14676090D01*
X34144666Y-14370081D02*
X34459143Y-14370081D01*
X34289809Y-14592633D01*
X34362381Y-14592633D01*
X34410762Y-14620452D01*
X34434952Y-14648271D01*
X34459143Y-14703910D01*
X34459143Y-14843005D01*
X34434952Y-14898643D01*
X34410762Y-14926462D01*
X34362381Y-14954281D01*
X34217238Y-14954281D01*
X34168857Y-14926462D01*
X34144666Y-14898643D01*
D16*
X33777857Y-16759810D02*
X33516600Y-16759810D01*
X33647228Y-16759810D02*
X33647228Y-16251810D01*
X33603685Y-16324381D01*
X33560143Y-16372762D01*
X33516600Y-16396952D01*
X34060886Y-16251810D02*
X34104429Y-16251810D01*
X34147972Y-16276000D01*
X34169743Y-16300190D01*
X34191514Y-16348571D01*
X34213286Y-16445333D01*
X34213286Y-16566286D01*
X34191514Y-16663048D01*
X34169743Y-16711429D01*
X34147972Y-16735619D01*
X34104429Y-16759810D01*
X34060886Y-16759810D01*
X34017343Y-16735619D01*
X33995572Y-16711429D01*
X33973800Y-16663048D01*
X33952029Y-16566286D01*
X33952029Y-16445333D01*
X33973800Y-16348571D01*
X33995572Y-16300190D01*
X34017343Y-16276000D01*
X34060886Y-16251810D01*
X34409229Y-16759810D02*
X34409229Y-16251810D01*
X34452772Y-16566286D02*
X34583401Y-16759810D01*
X34583401Y-16421143D02*
X34409229Y-16614667D01*
D15*
X29195333Y-16874281D02*
X29026000Y-16596090D01*
X28905047Y-16874281D02*
X28905047Y-16290081D01*
X29098571Y-16290081D01*
X29146952Y-16317900D01*
X29171143Y-16345719D01*
X29195333Y-16401357D01*
X29195333Y-16484814D01*
X29171143Y-16540452D01*
X29146952Y-16568271D01*
X29098571Y-16596090D01*
X28905047Y-16596090D01*
X29630762Y-16484814D02*
X29630762Y-16874281D01*
X29509809Y-16262262D02*
X29388857Y-16679548D01*
X29703333Y-16679548D01*
D16*
X28949000Y-18619810D02*
X28687743Y-18619810D01*
X28818371Y-18619810D02*
X28818371Y-18111810D01*
X28774828Y-18184381D01*
X28731286Y-18232762D01*
X28687743Y-18256952D01*
X29144943Y-18571429D02*
X29166715Y-18595619D01*
X29144943Y-18619810D01*
X29123172Y-18595619D01*
X29144943Y-18571429D01*
X29144943Y-18619810D01*
X29427971Y-18329524D02*
X29384429Y-18305333D01*
X29362657Y-18281143D01*
X29340886Y-18232762D01*
X29340886Y-18208571D01*
X29362657Y-18160190D01*
X29384429Y-18136000D01*
X29427971Y-18111810D01*
X29515057Y-18111810D01*
X29558600Y-18136000D01*
X29580371Y-18160190D01*
X29602143Y-18208571D01*
X29602143Y-18232762D01*
X29580371Y-18281143D01*
X29558600Y-18305333D01*
X29515057Y-18329524D01*
X29427971Y-18329524D01*
X29384429Y-18353714D01*
X29362657Y-18377905D01*
X29340886Y-18426286D01*
X29340886Y-18523048D01*
X29362657Y-18571429D01*
X29384429Y-18595619D01*
X29427971Y-18619810D01*
X29515057Y-18619810D01*
X29558600Y-18595619D01*
X29580371Y-18571429D01*
X29602143Y-18523048D01*
X29602143Y-18426286D01*
X29580371Y-18377905D01*
X29558600Y-18353714D01*
X29515057Y-18329524D01*
X29798086Y-18619810D02*
X29798086Y-18111810D01*
X29841629Y-18426286D02*
X29972258Y-18619810D01*
X29972258Y-18281143D02*
X29798086Y-18474667D01*
D15*
X30985333Y-18934281D02*
X30816000Y-18656090D01*
X30695047Y-18934281D02*
X30695047Y-18350081D01*
X30888571Y-18350081D01*
X30936952Y-18377900D01*
X30961143Y-18405719D01*
X30985333Y-18461357D01*
X30985333Y-18544814D01*
X30961143Y-18600452D01*
X30936952Y-18628271D01*
X30888571Y-18656090D01*
X30695047Y-18656090D01*
X31444952Y-18350081D02*
X31203047Y-18350081D01*
X31178857Y-18628271D01*
X31203047Y-18600452D01*
X31251428Y-18572633D01*
X31372381Y-18572633D01*
X31420762Y-18600452D01*
X31444952Y-18628271D01*
X31469143Y-18683910D01*
X31469143Y-18823005D01*
X31444952Y-18878643D01*
X31420762Y-18906462D01*
X31372381Y-18934281D01*
X31251428Y-18934281D01*
X31203047Y-18906462D01*
X31178857Y-18878643D01*
D16*
X30535971Y-16581810D02*
X30819000Y-16581810D01*
X30666600Y-16775333D01*
X30731914Y-16775333D01*
X30775457Y-16799524D01*
X30797228Y-16823714D01*
X30819000Y-16872095D01*
X30819000Y-16993048D01*
X30797228Y-17041429D01*
X30775457Y-17065619D01*
X30731914Y-17089810D01*
X30601286Y-17089810D01*
X30557743Y-17065619D01*
X30535971Y-17041429D01*
X31014943Y-17041429D02*
X31036715Y-17065619D01*
X31014943Y-17089810D01*
X30993172Y-17065619D01*
X31014943Y-17041429D01*
X31014943Y-17089810D01*
X31189114Y-16581810D02*
X31472143Y-16581810D01*
X31319743Y-16775333D01*
X31385057Y-16775333D01*
X31428600Y-16799524D01*
X31450371Y-16823714D01*
X31472143Y-16872095D01*
X31472143Y-16993048D01*
X31450371Y-17041429D01*
X31428600Y-17065619D01*
X31385057Y-17089810D01*
X31254429Y-17089810D01*
X31210886Y-17065619D01*
X31189114Y-17041429D01*
X31668086Y-17089810D02*
X31668086Y-16581810D01*
X31711629Y-16896286D02*
X31842258Y-17089810D01*
X31842258Y-16751143D02*
X31668086Y-16944667D01*
D15*
X15685333Y-28504281D02*
X15516000Y-28226090D01*
X15395047Y-28504281D02*
X15395047Y-27920081D01*
X15588571Y-27920081D01*
X15636952Y-27947900D01*
X15661143Y-27975719D01*
X15685333Y-28031357D01*
X15685333Y-28114814D01*
X15661143Y-28170452D01*
X15636952Y-28198271D01*
X15588571Y-28226090D01*
X15395047Y-28226090D01*
X16120762Y-27920081D02*
X16024000Y-27920081D01*
X15975619Y-27947900D01*
X15951428Y-27975719D01*
X15903047Y-28059176D01*
X15878857Y-28170452D01*
X15878857Y-28393005D01*
X15903047Y-28448643D01*
X15927238Y-28476462D01*
X15975619Y-28504281D01*
X16072381Y-28504281D01*
X16120762Y-28476462D01*
X16144952Y-28448643D01*
X16169143Y-28393005D01*
X16169143Y-28253910D01*
X16144952Y-28198271D01*
X16120762Y-28170452D01*
X16072381Y-28142633D01*
X15975619Y-28142633D01*
X15927238Y-28170452D01*
X15903047Y-28198271D01*
X15878857Y-28253910D01*
D16*
X14017857Y-27579810D02*
X13756600Y-27579810D01*
X13887228Y-27579810D02*
X13887228Y-27071810D01*
X13843685Y-27144381D01*
X13800143Y-27192762D01*
X13756600Y-27216952D01*
X14300886Y-27071810D02*
X14344429Y-27071810D01*
X14387972Y-27096000D01*
X14409743Y-27120190D01*
X14431514Y-27168571D01*
X14453286Y-27265333D01*
X14453286Y-27386286D01*
X14431514Y-27483048D01*
X14409743Y-27531429D01*
X14387972Y-27555619D01*
X14344429Y-27579810D01*
X14300886Y-27579810D01*
X14257343Y-27555619D01*
X14235572Y-27531429D01*
X14213800Y-27483048D01*
X14192029Y-27386286D01*
X14192029Y-27265333D01*
X14213800Y-27168571D01*
X14235572Y-27120190D01*
X14257343Y-27096000D01*
X14300886Y-27071810D01*
X14649229Y-27579810D02*
X14649229Y-27071810D01*
X14692772Y-27386286D02*
X14823401Y-27579810D01*
X14823401Y-27241143D02*
X14649229Y-27434667D01*
D15*
X23675333Y-26273081D02*
X23506000Y-25994890D01*
X23385047Y-26273081D02*
X23385047Y-25688881D01*
X23578571Y-25688881D01*
X23626952Y-25716700D01*
X23651143Y-25744519D01*
X23675333Y-25800157D01*
X23675333Y-25883614D01*
X23651143Y-25939252D01*
X23626952Y-25967071D01*
X23578571Y-25994890D01*
X23385047Y-25994890D01*
X23844666Y-25688881D02*
X24183333Y-25688881D01*
X23965619Y-26273081D01*
D16*
X23629372Y-24409810D02*
X23368115Y-24409810D01*
X23498743Y-24409810D02*
X23498743Y-23901810D01*
X23455200Y-23974381D01*
X23411658Y-24022762D01*
X23368115Y-24046952D01*
X23825315Y-24409810D02*
X23825315Y-23901810D01*
X23977715Y-24264667D01*
X24130115Y-23901810D01*
X24130115Y-24409810D01*
D15*
X23675333Y-22623081D02*
X23506000Y-22344890D01*
X23385047Y-22623081D02*
X23385047Y-22038881D01*
X23578571Y-22038881D01*
X23626952Y-22066700D01*
X23651143Y-22094519D01*
X23675333Y-22150157D01*
X23675333Y-22233614D01*
X23651143Y-22289252D01*
X23626952Y-22317071D01*
X23578571Y-22344890D01*
X23385047Y-22344890D01*
X23965619Y-22289252D02*
X23917238Y-22261433D01*
X23893047Y-22233614D01*
X23868857Y-22177976D01*
X23868857Y-22150157D01*
X23893047Y-22094519D01*
X23917238Y-22066700D01*
X23965619Y-22038881D01*
X24062381Y-22038881D01*
X24110762Y-22066700D01*
X24134952Y-22094519D01*
X24159143Y-22150157D01*
X24159143Y-22177976D01*
X24134952Y-22233614D01*
X24110762Y-22261433D01*
X24062381Y-22289252D01*
X23965619Y-22289252D01*
X23917238Y-22317071D01*
X23893047Y-22344890D01*
X23868857Y-22400529D01*
X23868857Y-22511805D01*
X23893047Y-22567443D01*
X23917238Y-22595262D01*
X23965619Y-22623081D01*
X24062381Y-22623081D01*
X24110762Y-22595262D01*
X24134952Y-22567443D01*
X24159143Y-22511805D01*
X24159143Y-22400529D01*
X24134952Y-22344890D01*
X24110762Y-22317071D01*
X24062381Y-22289252D01*
D16*
X23705572Y-20759810D02*
X23444315Y-20759810D01*
X23574943Y-20759810D02*
X23574943Y-20251810D01*
X23531400Y-20324381D01*
X23487858Y-20372762D01*
X23444315Y-20396952D01*
X23901515Y-20759810D02*
X23901515Y-20251810D01*
X23945058Y-20566286D02*
X24075687Y-20759810D01*
X24075687Y-20421143D02*
X23901515Y-20614667D01*
D15*
X43395333Y-32884281D02*
X43226000Y-32606090D01*
X43105047Y-32884281D02*
X43105047Y-32300081D01*
X43298571Y-32300081D01*
X43346952Y-32327900D01*
X43371143Y-32355719D01*
X43395333Y-32411357D01*
X43395333Y-32494814D01*
X43371143Y-32550452D01*
X43346952Y-32578271D01*
X43298571Y-32606090D01*
X43105047Y-32606090D01*
X43637238Y-32884281D02*
X43734000Y-32884281D01*
X43782381Y-32856462D01*
X43806571Y-32828643D01*
X43854952Y-32745186D01*
X43879143Y-32633910D01*
X43879143Y-32411357D01*
X43854952Y-32355719D01*
X43830762Y-32327900D01*
X43782381Y-32300081D01*
X43685619Y-32300081D01*
X43637238Y-32327900D01*
X43613047Y-32355719D01*
X43588857Y-32411357D01*
X43588857Y-32550452D01*
X43613047Y-32606090D01*
X43637238Y-32633910D01*
X43685619Y-32661729D01*
X43782381Y-32661729D01*
X43830762Y-32633910D01*
X43854952Y-32606090D01*
X43879143Y-32550452D01*
D16*
X43079000Y-31009810D02*
X42817743Y-31009810D01*
X42948371Y-31009810D02*
X42948371Y-30501810D01*
X42904828Y-30574381D01*
X42861286Y-30622762D01*
X42817743Y-30646952D01*
X43274943Y-30961429D02*
X43296715Y-30985619D01*
X43274943Y-31009810D01*
X43253172Y-30985619D01*
X43274943Y-30961429D01*
X43274943Y-31009810D01*
X43557971Y-30719524D02*
X43514429Y-30695333D01*
X43492657Y-30671143D01*
X43470886Y-30622762D01*
X43470886Y-30598571D01*
X43492657Y-30550190D01*
X43514429Y-30526000D01*
X43557971Y-30501810D01*
X43645057Y-30501810D01*
X43688600Y-30526000D01*
X43710371Y-30550190D01*
X43732143Y-30598571D01*
X43732143Y-30622762D01*
X43710371Y-30671143D01*
X43688600Y-30695333D01*
X43645057Y-30719524D01*
X43557971Y-30719524D01*
X43514429Y-30743714D01*
X43492657Y-30767905D01*
X43470886Y-30816286D01*
X43470886Y-30913048D01*
X43492657Y-30961429D01*
X43514429Y-30985619D01*
X43557971Y-31009810D01*
X43645057Y-31009810D01*
X43688600Y-30985619D01*
X43710371Y-30961429D01*
X43732143Y-30913048D01*
X43732143Y-30816286D01*
X43710371Y-30767905D01*
X43688600Y-30743714D01*
X43645057Y-30719524D01*
X43928086Y-31009810D02*
X43928086Y-30501810D01*
X43971629Y-30816286D02*
X44102258Y-31009810D01*
X44102258Y-30671143D02*
X43928086Y-30864667D01*
D15*
X41113428Y-34764281D02*
X40944095Y-34486090D01*
X40823142Y-34764281D02*
X40823142Y-34180081D01*
X41016666Y-34180081D01*
X41065047Y-34207900D01*
X41089238Y-34235719D01*
X41113428Y-34291357D01*
X41113428Y-34374814D01*
X41089238Y-34430452D01*
X41065047Y-34458271D01*
X41016666Y-34486090D01*
X40823142Y-34486090D01*
X41597238Y-34764281D02*
X41306952Y-34764281D01*
X41452095Y-34764281D02*
X41452095Y-34180081D01*
X41403714Y-34263538D01*
X41355333Y-34319176D01*
X41306952Y-34346995D01*
X41911714Y-34180081D02*
X41960095Y-34180081D01*
X42008476Y-34207900D01*
X42032667Y-34235719D01*
X42056857Y-34291357D01*
X42081048Y-34402633D01*
X42081048Y-34541729D01*
X42056857Y-34653005D01*
X42032667Y-34708643D01*
X42008476Y-34736462D01*
X41960095Y-34764281D01*
X41911714Y-34764281D01*
X41863333Y-34736462D01*
X41839143Y-34708643D01*
X41814952Y-34653005D01*
X41790762Y-34541729D01*
X41790762Y-34402633D01*
X41814952Y-34291357D01*
X41839143Y-34235719D01*
X41863333Y-34207900D01*
X41911714Y-34180081D01*
D16*
X40785971Y-32361810D02*
X41069000Y-32361810D01*
X40916600Y-32555333D01*
X40981914Y-32555333D01*
X41025457Y-32579524D01*
X41047228Y-32603714D01*
X41069000Y-32652095D01*
X41069000Y-32773048D01*
X41047228Y-32821429D01*
X41025457Y-32845619D01*
X40981914Y-32869810D01*
X40851286Y-32869810D01*
X40807743Y-32845619D01*
X40785971Y-32821429D01*
X41264943Y-32821429D02*
X41286715Y-32845619D01*
X41264943Y-32869810D01*
X41243172Y-32845619D01*
X41264943Y-32821429D01*
X41264943Y-32869810D01*
X41439114Y-32361810D02*
X41722143Y-32361810D01*
X41569743Y-32555333D01*
X41635057Y-32555333D01*
X41678600Y-32579524D01*
X41700371Y-32603714D01*
X41722143Y-32652095D01*
X41722143Y-32773048D01*
X41700371Y-32821429D01*
X41678600Y-32845619D01*
X41635057Y-32869810D01*
X41504429Y-32869810D01*
X41460886Y-32845619D01*
X41439114Y-32821429D01*
X41918086Y-32869810D02*
X41918086Y-32361810D01*
X41961629Y-32676286D02*
X42092258Y-32869810D01*
X42092258Y-32531143D02*
X41918086Y-32724667D01*
D15*
X49083428Y-36584281D02*
X48914095Y-36306090D01*
X48793142Y-36584281D02*
X48793142Y-36000081D01*
X48986666Y-36000081D01*
X49035047Y-36027900D01*
X49059238Y-36055719D01*
X49083428Y-36111357D01*
X49083428Y-36194814D01*
X49059238Y-36250452D01*
X49035047Y-36278271D01*
X48986666Y-36306090D01*
X48793142Y-36306090D01*
X49567238Y-36584281D02*
X49276952Y-36584281D01*
X49422095Y-36584281D02*
X49422095Y-36000081D01*
X49373714Y-36083538D01*
X49325333Y-36139176D01*
X49276952Y-36166995D01*
X50051048Y-36584281D02*
X49760762Y-36584281D01*
X49905905Y-36584281D02*
X49905905Y-36000081D01*
X49857524Y-36083538D01*
X49809143Y-36139176D01*
X49760762Y-36166995D01*
D16*
X48762171Y-34271810D02*
X49045200Y-34271810D01*
X48892800Y-34465333D01*
X48958114Y-34465333D01*
X49001657Y-34489524D01*
X49023428Y-34513714D01*
X49045200Y-34562095D01*
X49045200Y-34683048D01*
X49023428Y-34731429D01*
X49001657Y-34755619D01*
X48958114Y-34779810D01*
X48827486Y-34779810D01*
X48783943Y-34755619D01*
X48762171Y-34731429D01*
X49328229Y-34271810D02*
X49371772Y-34271810D01*
X49415315Y-34296000D01*
X49437086Y-34320190D01*
X49458857Y-34368571D01*
X49480629Y-34465333D01*
X49480629Y-34586286D01*
X49458857Y-34683048D01*
X49437086Y-34731429D01*
X49415315Y-34755619D01*
X49371772Y-34779810D01*
X49328229Y-34779810D01*
X49284686Y-34755619D01*
X49262915Y-34731429D01*
X49241143Y-34683048D01*
X49219372Y-34586286D01*
X49219372Y-34465333D01*
X49241143Y-34368571D01*
X49262915Y-34320190D01*
X49284686Y-34296000D01*
X49328229Y-34271810D01*
X49763658Y-34271810D02*
X49807201Y-34271810D01*
X49850744Y-34296000D01*
X49872515Y-34320190D01*
X49894286Y-34368571D01*
X49916058Y-34465333D01*
X49916058Y-34586286D01*
X49894286Y-34683048D01*
X49872515Y-34731429D01*
X49850744Y-34755619D01*
X49807201Y-34779810D01*
X49763658Y-34779810D01*
X49720115Y-34755619D01*
X49698344Y-34731429D01*
X49676572Y-34683048D01*
X49654801Y-34586286D01*
X49654801Y-34465333D01*
X49676572Y-34368571D01*
X49698344Y-34320190D01*
X49720115Y-34296000D01*
X49763658Y-34271810D01*
D15*
X53894281Y-33886572D02*
X53616090Y-34055905D01*
X53894281Y-34176858D02*
X53310081Y-34176858D01*
X53310081Y-33983334D01*
X53337900Y-33934953D01*
X53365719Y-33910762D01*
X53421357Y-33886572D01*
X53504814Y-33886572D01*
X53560452Y-33910762D01*
X53588271Y-33934953D01*
X53616090Y-33983334D01*
X53616090Y-34176858D01*
X53894281Y-33402762D02*
X53894281Y-33693048D01*
X53894281Y-33547905D02*
X53310081Y-33547905D01*
X53393538Y-33596286D01*
X53449176Y-33644667D01*
X53476995Y-33693048D01*
X53365719Y-33209238D02*
X53337900Y-33185048D01*
X53310081Y-33136667D01*
X53310081Y-33015714D01*
X53337900Y-32967333D01*
X53365719Y-32943143D01*
X53421357Y-32918952D01*
X53476995Y-32918952D01*
X53560452Y-32943143D01*
X53894281Y-33233429D01*
X53894281Y-32918952D01*
D16*
X52019810Y-33854800D02*
X52019810Y-34116057D01*
X52019810Y-33985429D02*
X51511810Y-33985429D01*
X51584381Y-34028972D01*
X51632762Y-34072514D01*
X51656952Y-34116057D01*
X51511810Y-33571771D02*
X51511810Y-33528228D01*
X51536000Y-33484685D01*
X51560190Y-33462914D01*
X51608571Y-33441143D01*
X51705333Y-33419371D01*
X51826286Y-33419371D01*
X51923048Y-33441143D01*
X51971429Y-33462914D01*
X51995619Y-33484685D01*
X52019810Y-33528228D01*
X52019810Y-33571771D01*
X51995619Y-33615314D01*
X51971429Y-33637085D01*
X51923048Y-33658857D01*
X51826286Y-33680628D01*
X51705333Y-33680628D01*
X51608571Y-33658857D01*
X51560190Y-33637085D01*
X51536000Y-33615314D01*
X51511810Y-33571771D01*
X51511810Y-33136342D02*
X51511810Y-33092799D01*
X51536000Y-33049256D01*
X51560190Y-33027485D01*
X51608571Y-33005714D01*
X51705333Y-32983942D01*
X51826286Y-32983942D01*
X51923048Y-33005714D01*
X51971429Y-33027485D01*
X51995619Y-33049256D01*
X52019810Y-33092799D01*
X52019810Y-33136342D01*
X51995619Y-33179885D01*
X51971429Y-33201656D01*
X51923048Y-33223428D01*
X51826286Y-33245199D01*
X51705333Y-33245199D01*
X51608571Y-33223428D01*
X51560190Y-33201656D01*
X51536000Y-33179885D01*
X51511810Y-33136342D01*
D15*
X44453081Y-26896572D02*
X44174890Y-27065905D01*
X44453081Y-27186858D02*
X43868881Y-27186858D01*
X43868881Y-26993334D01*
X43896700Y-26944953D01*
X43924519Y-26920762D01*
X43980157Y-26896572D01*
X44063614Y-26896572D01*
X44119252Y-26920762D01*
X44147071Y-26944953D01*
X44174890Y-26993334D01*
X44174890Y-27186858D01*
X44453081Y-26412762D02*
X44453081Y-26703048D01*
X44453081Y-26557905D02*
X43868881Y-26557905D01*
X43952338Y-26606286D01*
X44007976Y-26654667D01*
X44035795Y-26703048D01*
X43868881Y-26243429D02*
X43868881Y-25928952D01*
X44091433Y-26098286D01*
X44091433Y-26025714D01*
X44119252Y-25977333D01*
X44147071Y-25953143D01*
X44202710Y-25928952D01*
X44341805Y-25928952D01*
X44397443Y-25953143D01*
X44425262Y-25977333D01*
X44453081Y-26025714D01*
X44453081Y-26170857D01*
X44425262Y-26219238D01*
X44397443Y-26243429D01*
D16*
X42081810Y-26940115D02*
X42081810Y-26657086D01*
X42275333Y-26809486D01*
X42275333Y-26744172D01*
X42299524Y-26700629D01*
X42323714Y-26678858D01*
X42372095Y-26657086D01*
X42493048Y-26657086D01*
X42541429Y-26678858D01*
X42565619Y-26700629D01*
X42589810Y-26744172D01*
X42589810Y-26874800D01*
X42565619Y-26918343D01*
X42541429Y-26940115D01*
X42589810Y-26439371D02*
X42589810Y-26352286D01*
X42565619Y-26308743D01*
X42541429Y-26286971D01*
X42468857Y-26243429D01*
X42372095Y-26221657D01*
X42178571Y-26221657D01*
X42130190Y-26243429D01*
X42106000Y-26265200D01*
X42081810Y-26308743D01*
X42081810Y-26395829D01*
X42106000Y-26439371D01*
X42130190Y-26461143D01*
X42178571Y-26482914D01*
X42299524Y-26482914D01*
X42347905Y-26461143D01*
X42372095Y-26439371D01*
X42396286Y-26395829D01*
X42396286Y-26308743D01*
X42372095Y-26265200D01*
X42347905Y-26243429D01*
X42299524Y-26221657D01*
D15*
X51024281Y-28176572D02*
X50746090Y-28345905D01*
X51024281Y-28466858D02*
X50440081Y-28466858D01*
X50440081Y-28273334D01*
X50467900Y-28224953D01*
X50495719Y-28200762D01*
X50551357Y-28176572D01*
X50634814Y-28176572D01*
X50690452Y-28200762D01*
X50718271Y-28224953D01*
X50746090Y-28273334D01*
X50746090Y-28466858D01*
X51024281Y-27692762D02*
X51024281Y-27983048D01*
X51024281Y-27837905D02*
X50440081Y-27837905D01*
X50523538Y-27886286D01*
X50579176Y-27934667D01*
X50606995Y-27983048D01*
X50634814Y-27257333D02*
X51024281Y-27257333D01*
X50412262Y-27378286D02*
X50829548Y-27499238D01*
X50829548Y-27184762D01*
D16*
X48631810Y-28437829D02*
X48631810Y-28154800D01*
X48825333Y-28307200D01*
X48825333Y-28241886D01*
X48849524Y-28198343D01*
X48873714Y-28176572D01*
X48922095Y-28154800D01*
X49043048Y-28154800D01*
X49091429Y-28176572D01*
X49115619Y-28198343D01*
X49139810Y-28241886D01*
X49139810Y-28372514D01*
X49115619Y-28416057D01*
X49091429Y-28437829D01*
X48631810Y-27871771D02*
X48631810Y-27828228D01*
X48656000Y-27784685D01*
X48680190Y-27762914D01*
X48728571Y-27741143D01*
X48825333Y-27719371D01*
X48946286Y-27719371D01*
X49043048Y-27741143D01*
X49091429Y-27762914D01*
X49115619Y-27784685D01*
X49139810Y-27828228D01*
X49139810Y-27871771D01*
X49115619Y-27915314D01*
X49091429Y-27937085D01*
X49043048Y-27958857D01*
X48946286Y-27980628D01*
X48825333Y-27980628D01*
X48728571Y-27958857D01*
X48680190Y-27937085D01*
X48656000Y-27915314D01*
X48631810Y-27871771D01*
X48631810Y-27436342D02*
X48631810Y-27392799D01*
X48656000Y-27349256D01*
X48680190Y-27327485D01*
X48728571Y-27305714D01*
X48825333Y-27283942D01*
X48946286Y-27283942D01*
X49043048Y-27305714D01*
X49091429Y-27327485D01*
X49115619Y-27349256D01*
X49139810Y-27392799D01*
X49139810Y-27436342D01*
X49115619Y-27479885D01*
X49091429Y-27501656D01*
X49043048Y-27523428D01*
X48946286Y-27545199D01*
X48825333Y-27545199D01*
X48728571Y-27523428D01*
X48680190Y-27501656D01*
X48656000Y-27479885D01*
X48631810Y-27436342D01*
D14*
X21043809Y-28456190D02*
X21043809Y-28932381D01*
X20710476Y-27932381D02*
X21043809Y-28456190D01*
X21377143Y-27932381D01*
X22234286Y-28932381D02*
X21662857Y-28932381D01*
X21948571Y-28932381D02*
X21948571Y-27932381D01*
X21853333Y-28075238D01*
X21758095Y-28170476D01*
X21662857Y-28218095D01*
D15*
X16463238Y-15530081D02*
X16221333Y-15530081D01*
X16197143Y-15808271D01*
X16221333Y-15780452D01*
X16269714Y-15752633D01*
X16390667Y-15752633D01*
X16439048Y-15780452D01*
X16463238Y-15808271D01*
X16487429Y-15863910D01*
X16487429Y-16003005D01*
X16463238Y-16058643D01*
X16439048Y-16086462D01*
X16390667Y-16114281D01*
X16269714Y-16114281D01*
X16221333Y-16086462D01*
X16197143Y-16058643D01*
X16632572Y-15530081D02*
X16801905Y-16114281D01*
X16971239Y-15530081D01*
X51004190Y-31918643D02*
X50980000Y-31946462D01*
X50907428Y-31974281D01*
X50859047Y-31974281D01*
X50786476Y-31946462D01*
X50738095Y-31890824D01*
X50713904Y-31835186D01*
X50689714Y-31723910D01*
X50689714Y-31640452D01*
X50713904Y-31529176D01*
X50738095Y-31473538D01*
X50786476Y-31417900D01*
X50859047Y-31390081D01*
X50907428Y-31390081D01*
X50980000Y-31417900D01*
X51004190Y-31445719D01*
X51197714Y-31946462D02*
X51270285Y-31974281D01*
X51391238Y-31974281D01*
X51439619Y-31946462D01*
X51463809Y-31918643D01*
X51488000Y-31863005D01*
X51488000Y-31807367D01*
X51463809Y-31751729D01*
X51439619Y-31723910D01*
X51391238Y-31696090D01*
X51294476Y-31668271D01*
X51246095Y-31640452D01*
X51221904Y-31612633D01*
X51197714Y-31556995D01*
X51197714Y-31501357D01*
X51221904Y-31445719D01*
X51246095Y-31417900D01*
X51294476Y-31390081D01*
X51415428Y-31390081D01*
X51488000Y-31417900D01*
X51802476Y-31696090D02*
X51802476Y-31974281D01*
X51633143Y-31390081D02*
X51802476Y-31696090D01*
X51971810Y-31390081D01*
X52141143Y-31974281D02*
X52141143Y-31390081D01*
X52431429Y-31974281D01*
X52431429Y-31390081D01*
X52963619Y-31918643D02*
X52939429Y-31946462D01*
X52866857Y-31974281D01*
X52818476Y-31974281D01*
X52745905Y-31946462D01*
X52697524Y-31890824D01*
X52673333Y-31835186D01*
X52649143Y-31723910D01*
X52649143Y-31640452D01*
X52673333Y-31529176D01*
X52697524Y-31473538D01*
X52745905Y-31417900D01*
X52818476Y-31390081D01*
X52866857Y-31390081D01*
X52939429Y-31417900D01*
X52963619Y-31445719D01*
X53060381Y-32029919D02*
X53447429Y-32029919D01*
X53640953Y-31974281D02*
X53592572Y-31946462D01*
X53568381Y-31918643D01*
X53544191Y-31863005D01*
X53544191Y-31696090D01*
X53568381Y-31640452D01*
X53592572Y-31612633D01*
X53640953Y-31584814D01*
X53713524Y-31584814D01*
X53761905Y-31612633D01*
X53786096Y-31640452D01*
X53810286Y-31696090D01*
X53810286Y-31863005D01*
X53786096Y-31918643D01*
X53761905Y-31946462D01*
X53713524Y-31974281D01*
X53640953Y-31974281D01*
X51243714Y-27294281D02*
X51243714Y-26710081D01*
X51413048Y-27127367D01*
X51582381Y-26710081D01*
X51582381Y-27294281D01*
X52114571Y-27238643D02*
X52090381Y-27266462D01*
X52017809Y-27294281D01*
X51969428Y-27294281D01*
X51896857Y-27266462D01*
X51848476Y-27210824D01*
X51824285Y-27155186D01*
X51800095Y-27043910D01*
X51800095Y-26960452D01*
X51824285Y-26849176D01*
X51848476Y-26793538D01*
X51896857Y-26737900D01*
X51969428Y-26710081D01*
X52017809Y-26710081D01*
X52090381Y-26737900D01*
X52114571Y-26765719D01*
X52574190Y-27294281D02*
X52332285Y-27294281D01*
X52332285Y-26710081D01*
X52743523Y-27294281D02*
X52743523Y-26710081D01*
X53033809Y-27294281D02*
X52816095Y-26960452D01*
X53033809Y-26710081D02*
X52743523Y-27043910D01*
X53130571Y-27349919D02*
X53517619Y-27349919D01*
X53711143Y-27294281D02*
X53662762Y-27266462D01*
X53638571Y-27238643D01*
X53614381Y-27183005D01*
X53614381Y-27016090D01*
X53638571Y-26960452D01*
X53662762Y-26932633D01*
X53711143Y-26904814D01*
X53783714Y-26904814D01*
X53832095Y-26932633D01*
X53856286Y-26960452D01*
X53880476Y-27016090D01*
X53880476Y-27183005D01*
X53856286Y-27238643D01*
X53832095Y-27266462D01*
X53783714Y-27294281D01*
X53711143Y-27294281D01*
X52652953Y-28727900D02*
X52604572Y-28700081D01*
X52532000Y-28700081D01*
X52459429Y-28727900D01*
X52411048Y-28783538D01*
X52386857Y-28839176D01*
X52362667Y-28950452D01*
X52362667Y-29033910D01*
X52386857Y-29145186D01*
X52411048Y-29200824D01*
X52459429Y-29256462D01*
X52532000Y-29284281D01*
X52580381Y-29284281D01*
X52652953Y-29256462D01*
X52677143Y-29228643D01*
X52677143Y-29033910D01*
X52580381Y-29033910D01*
X52894857Y-29284281D02*
X52894857Y-28700081D01*
X53185143Y-29284281D01*
X53185143Y-28700081D01*
X53427047Y-29284281D02*
X53427047Y-28700081D01*
X53548000Y-28700081D01*
X53620571Y-28727900D01*
X53668952Y-28783538D01*
X53693143Y-28839176D01*
X53717333Y-28950452D01*
X53717333Y-29033910D01*
X53693143Y-29145186D01*
X53668952Y-29200824D01*
X53620571Y-29256462D01*
X53548000Y-29284281D01*
X53427047Y-29284281D01*
X16412285Y-30278643D02*
X16388095Y-30306462D01*
X16315523Y-30334281D01*
X16267142Y-30334281D01*
X16194571Y-30306462D01*
X16146190Y-30250824D01*
X16121999Y-30195186D01*
X16097809Y-30083910D01*
X16097809Y-30000452D01*
X16121999Y-29889176D01*
X16146190Y-29833538D01*
X16194571Y-29777900D01*
X16267142Y-29750081D01*
X16315523Y-29750081D01*
X16388095Y-29777900D01*
X16412285Y-29805719D01*
X16871904Y-30334281D02*
X16629999Y-30334281D01*
X16629999Y-29750081D01*
X17041237Y-30334281D02*
X17041237Y-29750081D01*
X17331523Y-30334281D02*
X17113809Y-30000452D01*
X17331523Y-29750081D02*
X17041237Y-30083910D01*
X17428285Y-30389919D02*
X17815333Y-30389919D01*
X17912095Y-30306462D02*
X17984666Y-30334281D01*
X18105619Y-30334281D01*
X18154000Y-30306462D01*
X18178190Y-30278643D01*
X18202381Y-30223005D01*
X18202381Y-30167367D01*
X18178190Y-30111729D01*
X18154000Y-30083910D01*
X18105619Y-30056090D01*
X18008857Y-30028271D01*
X17960476Y-30000452D01*
X17936285Y-29972633D01*
X17912095Y-29916995D01*
X17912095Y-29861357D01*
X17936285Y-29805719D01*
X17960476Y-29777900D01*
X18008857Y-29750081D01*
X18129809Y-29750081D01*
X18202381Y-29777900D01*
X18420095Y-30028271D02*
X18589429Y-30028271D01*
X18662000Y-30334281D02*
X18420095Y-30334281D01*
X18420095Y-29750081D01*
X18662000Y-29750081D01*
X19121619Y-30334281D02*
X18879714Y-30334281D01*
X18879714Y-29750081D01*
X19170000Y-30389919D02*
X19557048Y-30389919D01*
X19678000Y-30334281D02*
X19678000Y-29944814D01*
X19678000Y-29750081D02*
X19653810Y-29777900D01*
X19678000Y-29805719D01*
X19702191Y-29777900D01*
X19678000Y-29750081D01*
X19678000Y-29805719D01*
X16173809Y-34054281D02*
X16173809Y-33470081D01*
X16343143Y-33887367D01*
X16512476Y-33470081D01*
X16512476Y-34054281D01*
X17044666Y-33998643D02*
X17020476Y-34026462D01*
X16947904Y-34054281D01*
X16899523Y-34054281D01*
X16826952Y-34026462D01*
X16778571Y-33970824D01*
X16754380Y-33915186D01*
X16730190Y-33803910D01*
X16730190Y-33720452D01*
X16754380Y-33609176D01*
X16778571Y-33553538D01*
X16826952Y-33497900D01*
X16899523Y-33470081D01*
X16947904Y-33470081D01*
X17020476Y-33497900D01*
X17044666Y-33525719D01*
X17504285Y-34054281D02*
X17262380Y-34054281D01*
X17262380Y-33470081D01*
X17673618Y-34054281D02*
X17673618Y-33470081D01*
X17963904Y-34054281D02*
X17746190Y-33720452D01*
X17963904Y-33470081D02*
X17673618Y-33803910D01*
X18060666Y-34109919D02*
X18447714Y-34109919D01*
X18568666Y-33748271D02*
X18738000Y-33748271D01*
X18810571Y-34054281D02*
X18568666Y-34054281D01*
X18568666Y-33470081D01*
X18810571Y-33470081D01*
X18979904Y-33470081D02*
X19318571Y-34054281D01*
X19318571Y-33470081D02*
X18979904Y-34054281D01*
X19439524Y-33470081D02*
X19729810Y-33470081D01*
X19584667Y-34054281D02*
X19584667Y-33470081D01*
X19778191Y-34109919D02*
X20165239Y-34109919D01*
X20286191Y-34054281D02*
X20286191Y-33664814D01*
X20286191Y-33470081D02*
X20262001Y-33497900D01*
X20286191Y-33525719D01*
X20310382Y-33497900D01*
X20286191Y-33470081D01*
X20286191Y-33525719D01*
X16413047Y-32178643D02*
X16388857Y-32206462D01*
X16316285Y-32234281D01*
X16267904Y-32234281D01*
X16195333Y-32206462D01*
X16146952Y-32150824D01*
X16122761Y-32095186D01*
X16098571Y-31983910D01*
X16098571Y-31900452D01*
X16122761Y-31789176D01*
X16146952Y-31733538D01*
X16195333Y-31677900D01*
X16267904Y-31650081D01*
X16316285Y-31650081D01*
X16388857Y-31677900D01*
X16413047Y-31705719D01*
X16606571Y-32206462D02*
X16679142Y-32234281D01*
X16800095Y-32234281D01*
X16848476Y-32206462D01*
X16872666Y-32178643D01*
X16896857Y-32123005D01*
X16896857Y-32067367D01*
X16872666Y-32011729D01*
X16848476Y-31983910D01*
X16800095Y-31956090D01*
X16703333Y-31928271D01*
X16654952Y-31900452D01*
X16630761Y-31872633D01*
X16606571Y-31816995D01*
X16606571Y-31761357D01*
X16630761Y-31705719D01*
X16654952Y-31677900D01*
X16703333Y-31650081D01*
X16824285Y-31650081D01*
X16896857Y-31677900D01*
X17211333Y-31956090D02*
X17211333Y-32234281D01*
X17042000Y-31650081D02*
X17211333Y-31956090D01*
X17380667Y-31650081D01*
X17550000Y-32234281D02*
X17550000Y-31650081D01*
X17840286Y-32234281D01*
X17840286Y-31650081D01*
X18372476Y-32178643D02*
X18348286Y-32206462D01*
X18275714Y-32234281D01*
X18227333Y-32234281D01*
X18154762Y-32206462D01*
X18106381Y-32150824D01*
X18082190Y-32095186D01*
X18058000Y-31983910D01*
X18058000Y-31900452D01*
X18082190Y-31789176D01*
X18106381Y-31733538D01*
X18154762Y-31677900D01*
X18227333Y-31650081D01*
X18275714Y-31650081D01*
X18348286Y-31677900D01*
X18372476Y-31705719D01*
X18469238Y-32289919D02*
X18856286Y-32289919D01*
X18977238Y-32234281D02*
X18977238Y-31844814D01*
X18977238Y-31650081D02*
X18953048Y-31677900D01*
X18977238Y-31705719D01*
X19001429Y-31677900D01*
X18977238Y-31650081D01*
X18977238Y-31705719D01*
X16462953Y-35397900D02*
X16414572Y-35370081D01*
X16342000Y-35370081D01*
X16269429Y-35397900D01*
X16221048Y-35453538D01*
X16196857Y-35509176D01*
X16172667Y-35620452D01*
X16172667Y-35703910D01*
X16196857Y-35815186D01*
X16221048Y-35870824D01*
X16269429Y-35926462D01*
X16342000Y-35954281D01*
X16390381Y-35954281D01*
X16462953Y-35926462D01*
X16487143Y-35898643D01*
X16487143Y-35703910D01*
X16390381Y-35703910D01*
X16704857Y-35954281D02*
X16704857Y-35370081D01*
X16995143Y-35954281D01*
X16995143Y-35370081D01*
X17237047Y-35954281D02*
X17237047Y-35370081D01*
X17358000Y-35370081D01*
X17430571Y-35397900D01*
X17478952Y-35453538D01*
X17503143Y-35509176D01*
X17527333Y-35620452D01*
X17527333Y-35703910D01*
X17503143Y-35815186D01*
X17478952Y-35870824D01*
X17430571Y-35926462D01*
X17358000Y-35954281D01*
X17237047Y-35954281D01*
X16452953Y-13707900D02*
X16404572Y-13680081D01*
X16332000Y-13680081D01*
X16259429Y-13707900D01*
X16211048Y-13763538D01*
X16186857Y-13819176D01*
X16162667Y-13930452D01*
X16162667Y-14013910D01*
X16186857Y-14125186D01*
X16211048Y-14180824D01*
X16259429Y-14236462D01*
X16332000Y-14264281D01*
X16380381Y-14264281D01*
X16452953Y-14236462D01*
X16477143Y-14208643D01*
X16477143Y-14013910D01*
X16380381Y-14013910D01*
X16694857Y-14264281D02*
X16694857Y-13680081D01*
X16985143Y-14264281D01*
X16985143Y-13680081D01*
X17227047Y-14264281D02*
X17227047Y-13680081D01*
X17348000Y-13680081D01*
X17420571Y-13707900D01*
X17468952Y-13763538D01*
X17493143Y-13819176D01*
X17517333Y-13930452D01*
X17517333Y-14013910D01*
X17493143Y-14125186D01*
X17468952Y-14180824D01*
X17420571Y-14236462D01*
X17348000Y-14264281D01*
X17227047Y-14264281D01*
D14*
X37578095Y-20802381D02*
X37578095Y-21611905D01*
X37625714Y-21707143D01*
X37673333Y-21754762D01*
X37768571Y-21802381D01*
X37959048Y-21802381D01*
X38054286Y-21754762D01*
X38101905Y-21707143D01*
X38149524Y-21611905D01*
X38149524Y-20802381D01*
X39149524Y-21802381D02*
X38578095Y-21802381D01*
X38863809Y-21802381D02*
X38863809Y-20802381D01*
X38768571Y-20945238D01*
X38673333Y-21040476D01*
X38578095Y-21088095D01*
X39532381Y-19638333D02*
X40246667Y-19638333D01*
X40389524Y-19685953D01*
X40484762Y-19781191D01*
X40532381Y-19924048D01*
X40532381Y-20019286D01*
X40532381Y-18638333D02*
X40532381Y-19209762D01*
X40532381Y-18924048D02*
X39532381Y-18924048D01*
X39675238Y-19019286D01*
X39770476Y-19114524D01*
X39818095Y-19209762D01*
D16*
X54861286Y-24651810D02*
X55122543Y-24651810D01*
X54991914Y-25159810D02*
X54991914Y-24651810D01*
X55274943Y-25159810D02*
X55274943Y-24651810D01*
X55383800Y-24651810D01*
X55449115Y-24676000D01*
X55492657Y-24724381D01*
X55514429Y-24772762D01*
X55536200Y-24869524D01*
X55536200Y-24942095D01*
X55514429Y-25038857D01*
X55492657Y-25087238D01*
X55449115Y-25135619D01*
X55383800Y-25159810D01*
X55274943Y-25159810D01*
X55819229Y-24651810D02*
X55906315Y-24651810D01*
X55949857Y-24676000D01*
X55993400Y-24724381D01*
X56015172Y-24821143D01*
X56015172Y-24990476D01*
X55993400Y-25087238D01*
X55949857Y-25135619D01*
X55906315Y-25159810D01*
X55819229Y-25159810D01*
X55775686Y-25135619D01*
X55732143Y-25087238D01*
X55710372Y-24990476D01*
X55710372Y-24821143D01*
X55732143Y-24724381D01*
X55775686Y-24676000D01*
X55819229Y-24651810D01*
X52074935Y-24631010D02*
X52336192Y-24631010D01*
X52205563Y-25139010D02*
X52205563Y-24631010D01*
X52488592Y-25139010D02*
X52488592Y-24631010D01*
X52597449Y-24631010D01*
X52662764Y-24655200D01*
X52706306Y-24703581D01*
X52728078Y-24751962D01*
X52749849Y-24848724D01*
X52749849Y-24921295D01*
X52728078Y-25018057D01*
X52706306Y-25066438D01*
X52662764Y-25114819D01*
X52597449Y-25139010D01*
X52488592Y-25139010D01*
X52945792Y-25139010D02*
X52945792Y-24631010D01*
X49385800Y-24633550D02*
X49647057Y-24633550D01*
X49516428Y-25141550D02*
X49516428Y-24633550D01*
X49799457Y-25141550D02*
X49799457Y-24633550D01*
X49951857Y-24996407D01*
X50104257Y-24633550D01*
X50104257Y-25141550D01*
X50300200Y-25117359D02*
X50365514Y-25141550D01*
X50474371Y-25141550D01*
X50517914Y-25117359D01*
X50539685Y-25093169D01*
X50561457Y-25044788D01*
X50561457Y-24996407D01*
X50539685Y-24948026D01*
X50517914Y-24923835D01*
X50474371Y-24899645D01*
X50387285Y-24875454D01*
X50343743Y-24851264D01*
X50321971Y-24827073D01*
X50300200Y-24778692D01*
X50300200Y-24730311D01*
X50321971Y-24681930D01*
X50343743Y-24657740D01*
X50387285Y-24633550D01*
X50496143Y-24633550D01*
X50561457Y-24657740D01*
X46898052Y-24633550D02*
X47159309Y-24633550D01*
X47028680Y-25141550D02*
X47028680Y-24633550D01*
X47572966Y-25093169D02*
X47551195Y-25117359D01*
X47485881Y-25141550D01*
X47442338Y-25141550D01*
X47377023Y-25117359D01*
X47333481Y-25068978D01*
X47311709Y-25020597D01*
X47289938Y-24923835D01*
X47289938Y-24851264D01*
X47311709Y-24754502D01*
X47333481Y-24706121D01*
X47377023Y-24657740D01*
X47442338Y-24633550D01*
X47485881Y-24633550D01*
X47551195Y-24657740D01*
X47572966Y-24681930D01*
X47768909Y-25141550D02*
X47768909Y-24633550D01*
X48030166Y-25141550D02*
X47834223Y-24851264D01*
X48030166Y-24633550D02*
X47768909Y-24923835D01*
X44577218Y-24657740D02*
X44533675Y-24633550D01*
X44468361Y-24633550D01*
X44403046Y-24657740D01*
X44359504Y-24706121D01*
X44337732Y-24754502D01*
X44315961Y-24851264D01*
X44315961Y-24923835D01*
X44337732Y-25020597D01*
X44359504Y-25068978D01*
X44403046Y-25117359D01*
X44468361Y-25141550D01*
X44511904Y-25141550D01*
X44577218Y-25117359D01*
X44598989Y-25093169D01*
X44598989Y-24923835D01*
X44511904Y-24923835D01*
X44794932Y-25141550D02*
X44794932Y-24633550D01*
X45056189Y-25141550D01*
X45056189Y-24633550D01*
X45273903Y-25141550D02*
X45273903Y-24633550D01*
X45382760Y-24633550D01*
X45448075Y-24657740D01*
X45491617Y-24706121D01*
X45513389Y-24754502D01*
X45535160Y-24851264D01*
X45535160Y-24923835D01*
X45513389Y-25020597D01*
X45491617Y-25068978D01*
X45448075Y-25117359D01*
X45382760Y-25141550D01*
X45273903Y-25141550D01*
X42842034Y-24641170D02*
X42624320Y-24641170D01*
X42602549Y-24883074D01*
X42624320Y-24858884D01*
X42667863Y-24834693D01*
X42776720Y-24834693D01*
X42820263Y-24858884D01*
X42842034Y-24883074D01*
X42863806Y-24931455D01*
X42863806Y-25052408D01*
X42842034Y-25100789D01*
X42820263Y-25124979D01*
X42776720Y-25149170D01*
X42667863Y-25149170D01*
X42624320Y-25124979D01*
X42602549Y-25100789D01*
X42994435Y-24641170D02*
X43146835Y-25149170D01*
X43299235Y-24641170D01*
D15*
X44396666Y-28260081D02*
X44396666Y-28677367D01*
X44372476Y-28760824D01*
X44324095Y-28816462D01*
X44251523Y-28844281D01*
X44203142Y-28844281D01*
X44638571Y-28844281D02*
X44638571Y-28260081D01*
X44832095Y-28260081D01*
X44880476Y-28287900D01*
X44904667Y-28315719D01*
X44928857Y-28371357D01*
X44928857Y-28454814D01*
X44904667Y-28510452D01*
X44880476Y-28538271D01*
X44832095Y-28566090D01*
X44638571Y-28566090D01*
X45122381Y-28315719D02*
X45146571Y-28287900D01*
X45194952Y-28260081D01*
X45315905Y-28260081D01*
X45364286Y-28287900D01*
X45388476Y-28315719D01*
X45412667Y-28371357D01*
X45412667Y-28426995D01*
X45388476Y-28510452D01*
X45098190Y-28844281D01*
X45412667Y-28844281D01*
X55920081Y-34423334D02*
X56337367Y-34423334D01*
X56420824Y-34447524D01*
X56476462Y-34495905D01*
X56504281Y-34568477D01*
X56504281Y-34616858D01*
X56504281Y-34181429D02*
X55920081Y-34181429D01*
X55920081Y-33987905D01*
X55947900Y-33939524D01*
X55975719Y-33915333D01*
X56031357Y-33891143D01*
X56114814Y-33891143D01*
X56170452Y-33915333D01*
X56198271Y-33939524D01*
X56226090Y-33987905D01*
X56226090Y-34181429D01*
X55920081Y-33721810D02*
X55920081Y-33407333D01*
X56142633Y-33576667D01*
X56142633Y-33504095D01*
X56170452Y-33455714D01*
X56198271Y-33431524D01*
X56253910Y-33407333D01*
X56393005Y-33407333D01*
X56448643Y-33431524D01*
X56476462Y-33455714D01*
X56504281Y-33504095D01*
X56504281Y-33649238D01*
X56476462Y-33697619D01*
X56448643Y-33721810D01*
M02*
