M48
INCH,TZ
T1C0.016
T2C0.031
T3C0.039
%
G90
G05
T1
X5870Y-6937
X6280Y-7311
X6299Y-9102
X6303Y-8437
X6362Y-10437
X6720Y-5843
X6909Y-12949
X6913Y-13681
X6925Y-12248
X7531Y-11319
X7587Y-12276
X7598Y-12941
X7602Y-13697
X9118Y-6949
X10075Y-12811
X10551Y-8488
X10642Y-13831
X11232Y-11390
X11350Y-9559
X11425Y-6264
X12091Y-9886
X12094Y-11776
X12531Y-10858
X12547Y-9134
X13118Y-10283
X13413Y-9217
X13516Y-12366
X13559Y-10661
X13571Y-14098
X14181Y-9232
X14197Y-9799
X14213Y-6020
X14280Y-10547
X14299Y-7374
X14319Y-11244
X14346Y-11850
X15744Y-11083
X15803Y-12122
X17276Y-14012
X17480Y-10882
X17988Y-13984
X18650Y-13980
X19138Y-9886
X19728Y-11980
X20386Y-11980
X20606Y-10043
X20980Y-11957
X21453Y-9984
X22177Y-14169
T2
X7492Y-7795
X7492Y-9717
T3
X16673Y-9327
X17673Y-9327
X18673Y-9327
X19673Y-9327
X20673Y-9327
X21673Y-9327
T0
M30
