G04 #@! TF.FileFunction,Copper,L1,Top,Signal*
%FSLAX46Y46*%
G04 Gerber Fmt 4.6, Leading zero omitted, Abs format (unit mm)*
G04 Created by KiCad (PCBNEW 4.0.7+dfsg1-1) date Sun Apr 22 11:59:24 2018*
%MOMM*%
%LPD*%
G01*
G04 APERTURE LIST*
%ADD10C,0.100000*%
%ADD11R,1.143000X0.635000*%
%ADD12R,0.635000X1.143000*%
%ADD13R,0.800000X1.900000*%
%ADD14C,1.500000*%
%ADD15R,2.500000X1.250000*%
%ADD16R,0.550000X1.700000*%
%ADD17R,1.700000X0.550000*%
%ADD18R,1.700000X1.700000*%
%ADD19O,1.700000X1.700000*%
%ADD20R,1.000000X1.000000*%
%ADD21C,0.800000*%
%ADD22C,0.500000*%
%ADD23C,0.250000*%
%ADD24C,0.200000*%
G04 APERTURE END LIST*
D10*
D11*
X18990000Y-15422000D03*
X18990000Y-13898000D03*
D12*
X36008000Y-35780000D03*
X37532000Y-35780000D03*
D11*
X24120000Y-32008000D03*
X24120000Y-33532000D03*
X41460000Y-28228000D03*
X41460000Y-29752000D03*
X14280000Y-24432000D03*
X14280000Y-22908000D03*
X14270000Y-19978000D03*
X14270000Y-21502000D03*
D12*
X33338000Y-18900000D03*
X34862000Y-18900000D03*
X52552000Y-35390000D03*
X51028000Y-35390000D03*
D13*
X45470000Y-33180000D03*
X47370000Y-33180000D03*
X46420000Y-30180000D03*
D12*
X28508000Y-35790000D03*
X30032000Y-35790000D03*
X33312000Y-35790000D03*
X31788000Y-35790000D03*
D11*
X34050000Y-17292000D03*
X34050000Y-15768000D03*
X29330000Y-19152000D03*
X29330000Y-17628000D03*
X31200000Y-17622000D03*
X31200000Y-16098000D03*
X14290000Y-28112000D03*
X14290000Y-26588000D03*
X23760000Y-24942000D03*
X23760000Y-23418000D03*
X23760000Y-21292000D03*
X23760000Y-19768000D03*
X43460000Y-30018000D03*
X43460000Y-31542000D03*
X41450000Y-31878000D03*
X41450000Y-33402000D03*
X49350000Y-33788000D03*
X49350000Y-35312000D03*
D12*
X52552000Y-33550000D03*
X51028000Y-33550000D03*
X43122000Y-26570000D03*
X41598000Y-26570000D03*
X48148000Y-27850000D03*
X49672000Y-27850000D03*
D14*
X19030000Y-24680000D03*
X19030000Y-19800000D03*
D15*
X14340000Y-15840000D03*
X55550000Y-31790000D03*
X55550000Y-27080000D03*
X55550000Y-29000000D03*
X14350000Y-30090000D03*
X14350000Y-33810000D03*
X14350000Y-31950000D03*
X14350000Y-35690000D03*
X14340000Y-14000000D03*
D16*
X28510000Y-33170000D03*
X29310000Y-33170000D03*
X30110000Y-33170000D03*
X30910000Y-33170000D03*
X31710000Y-33170000D03*
X32510000Y-33170000D03*
X33310000Y-33170000D03*
X34110000Y-33170000D03*
X34910000Y-33170000D03*
X35710000Y-33170000D03*
X36510000Y-33170000D03*
D17*
X38310000Y-31370000D03*
X38310000Y-30570000D03*
X38310000Y-29770000D03*
X38310000Y-28970000D03*
X38310000Y-28170000D03*
X38310000Y-27370000D03*
X38310000Y-26570000D03*
X38310000Y-25770000D03*
X38310000Y-24970000D03*
X38310000Y-24170000D03*
X38310000Y-23370000D03*
D16*
X36510000Y-21570000D03*
X35710000Y-21570000D03*
X34910000Y-21570000D03*
X34110000Y-21570000D03*
X33310000Y-21570000D03*
X32510000Y-21570000D03*
X31710000Y-21570000D03*
X30910000Y-21570000D03*
X30110000Y-21570000D03*
X29310000Y-21570000D03*
X28510000Y-21570000D03*
D17*
X26710000Y-23370000D03*
X26710000Y-24170000D03*
X26710000Y-24970000D03*
X26710000Y-25770000D03*
X26710000Y-26570000D03*
X26710000Y-27370000D03*
X26710000Y-28170000D03*
X26710000Y-28970000D03*
X26710000Y-29770000D03*
X26710000Y-30570000D03*
X26710000Y-31370000D03*
D18*
X42350000Y-23690000D03*
D19*
X44890000Y-23690000D03*
X47430000Y-23690000D03*
X49970000Y-23690000D03*
X52510000Y-23690000D03*
X55050000Y-23690000D03*
D20*
X46300000Y-26550000D03*
X46300000Y-27850000D03*
X54910000Y-33750000D03*
X54910000Y-35050000D03*
D21*
X25590000Y-32540000D03*
X28530000Y-28930000D03*
X26800000Y-21560000D03*
X31870000Y-23200000D03*
X36270000Y-26790000D03*
X34330000Y-31410000D03*
X56330000Y-35990000D03*
X44400000Y-27640000D03*
X43880000Y-35590000D03*
X45690000Y-35520000D03*
X47370000Y-35510000D03*
X54490000Y-25360000D03*
X52340000Y-25510000D03*
X50110000Y-30430000D03*
X51780000Y-30430000D03*
X53290000Y-30370000D03*
X19130000Y-28750000D03*
X36060000Y-24890000D03*
X36020000Y-23450000D03*
X34070000Y-23410000D03*
X33320000Y-26120000D03*
X34440000Y-27080000D03*
X36370000Y-28560000D03*
X36440000Y-30100000D03*
X28830000Y-24280000D03*
X30710000Y-25110000D03*
X31830000Y-27580000D03*
X30720000Y-29910000D03*
X29020000Y-15910000D03*
X23160000Y-17650000D03*
X17560000Y-34750000D03*
X19310000Y-34790000D03*
X19300000Y-32870000D03*
X17550000Y-32890000D03*
X19270000Y-31180000D03*
X17590000Y-31110000D03*
X17070000Y-14840000D03*
X14910000Y-17620000D03*
X15950000Y-18570000D03*
X16010000Y-21430000D03*
X16000000Y-23120000D03*
X16160000Y-26510000D03*
X36100000Y-15290000D03*
X36320000Y-18730000D03*
X39990000Y-28150000D03*
X40140000Y-30790000D03*
X34470000Y-35810000D03*
X48610000Y-25110000D03*
X27030000Y-35130000D03*
D22*
X24120000Y-32008000D02*
X25058000Y-32008000D01*
X25058000Y-32008000D02*
X25590000Y-32540000D01*
D23*
X43730000Y-28228000D02*
X43948000Y-28228000D01*
X45900000Y-30180000D02*
X46420000Y-30180000D01*
X43948000Y-28228000D02*
X45900000Y-30180000D01*
D22*
X26710000Y-28970000D02*
X28490000Y-28970000D01*
X28490000Y-28970000D02*
X28530000Y-28930000D01*
X18990000Y-15422000D02*
X23432000Y-15422000D01*
X23432000Y-15422000D02*
X26800000Y-18790000D01*
X26800000Y-18790000D02*
X26800000Y-21560000D01*
D23*
X31710000Y-23040000D02*
X31710000Y-21570000D01*
X31870000Y-23200000D02*
X31710000Y-23040000D01*
X43758000Y-28228000D02*
X43730000Y-28228000D01*
X43730000Y-28228000D02*
X41460000Y-28228000D01*
X34910000Y-33170000D02*
X34910000Y-34310000D01*
X34910000Y-34310000D02*
X36008000Y-35408000D01*
X36008000Y-35408000D02*
X36008000Y-35780000D01*
X38310000Y-27370000D02*
X36850000Y-27370000D01*
X36850000Y-27370000D02*
X36270000Y-26790000D01*
X34820000Y-31900000D02*
X34820000Y-33080000D01*
X34330000Y-31410000D02*
X34820000Y-31900000D01*
X34820000Y-33080000D02*
X34910000Y-33170000D01*
X24120000Y-32008000D02*
X23842000Y-32008000D01*
X24120000Y-32008000D02*
X23652000Y-32008000D01*
X26710000Y-28970000D02*
X25680000Y-28970000D01*
X24120000Y-30530000D02*
X24120000Y-32008000D01*
X25680000Y-28970000D02*
X24120000Y-30530000D01*
D22*
X14340000Y-15840000D02*
X18572000Y-15840000D01*
X18572000Y-15840000D02*
X18990000Y-15422000D01*
D23*
X38310000Y-27370000D02*
X40602000Y-27370000D01*
X40602000Y-27370000D02*
X41460000Y-28228000D01*
X31710000Y-21570000D02*
X31710000Y-20300000D01*
X31710000Y-20300000D02*
X33110000Y-18900000D01*
X33110000Y-18900000D02*
X33338000Y-18900000D01*
X51028000Y-35390000D02*
X51028000Y-35938000D01*
X51028000Y-35938000D02*
X51510000Y-36420000D01*
X55900000Y-36420000D02*
X56330000Y-35990000D01*
X51510000Y-36420000D02*
X55900000Y-36420000D01*
X51028000Y-35390000D02*
X49428000Y-35390000D01*
X49428000Y-35390000D02*
X49350000Y-35312000D01*
D24*
X44400000Y-27640000D02*
X44400000Y-27740000D01*
X49672000Y-28918000D02*
X49672000Y-27850000D01*
X49470000Y-29120000D02*
X49672000Y-28918000D01*
X48010000Y-29120000D02*
X49470000Y-29120000D01*
X47740000Y-28850000D02*
X48010000Y-29120000D01*
X45510000Y-28850000D02*
X47740000Y-28850000D01*
X44400000Y-27740000D02*
X45510000Y-28850000D01*
X55550000Y-29000000D02*
X51740000Y-29000000D01*
X51740000Y-29000000D02*
X50590000Y-27850000D01*
X50590000Y-27850000D02*
X49672000Y-27850000D01*
D23*
X49350000Y-35312000D02*
X47568000Y-35312000D01*
X45620000Y-35590000D02*
X43880000Y-35590000D01*
X45690000Y-35520000D02*
X45620000Y-35590000D01*
X47568000Y-35312000D02*
X47370000Y-35510000D01*
X55550000Y-29000000D02*
X54660000Y-29000000D01*
X54660000Y-29000000D02*
X53290000Y-30370000D01*
X52490000Y-25360000D02*
X54490000Y-25360000D01*
X52340000Y-25510000D02*
X52490000Y-25360000D01*
X51780000Y-30430000D02*
X50110000Y-30430000D01*
X35390000Y-30410000D02*
X36130000Y-30410000D01*
X36060000Y-23490000D02*
X36060000Y-24890000D01*
X36020000Y-23450000D02*
X36060000Y-23490000D01*
X34070000Y-25370000D02*
X34070000Y-23410000D01*
X33320000Y-26120000D02*
X34070000Y-25370000D01*
X34890000Y-27080000D02*
X34440000Y-27080000D01*
X36370000Y-28560000D02*
X34890000Y-27080000D01*
X36130000Y-30410000D02*
X36440000Y-30100000D01*
X32300000Y-30410000D02*
X31220000Y-30410000D01*
X30710000Y-26460000D02*
X30710000Y-25110000D01*
X31830000Y-27580000D02*
X30710000Y-26460000D01*
X31220000Y-30410000D02*
X30720000Y-29910000D01*
X14910000Y-17620000D02*
X23130000Y-17620000D01*
X29208000Y-16098000D02*
X31200000Y-16098000D01*
X29020000Y-15910000D02*
X29208000Y-16098000D01*
X23130000Y-17620000D02*
X23160000Y-17650000D01*
X19270000Y-34750000D02*
X17560000Y-34750000D01*
X19310000Y-34790000D02*
X19270000Y-34750000D01*
X17570000Y-32870000D02*
X19300000Y-32870000D01*
X17550000Y-32890000D02*
X17570000Y-32870000D01*
X17660000Y-31180000D02*
X19270000Y-31180000D01*
X17590000Y-31110000D02*
X17660000Y-31180000D01*
X14290000Y-26588000D02*
X16082000Y-26588000D01*
X17040000Y-14810000D02*
X17040000Y-14000000D01*
X17070000Y-14840000D02*
X17040000Y-14810000D01*
X15000000Y-17620000D02*
X14910000Y-17620000D01*
X15950000Y-18570000D02*
X15000000Y-17620000D01*
X16010000Y-23110000D02*
X16010000Y-21430000D01*
X16000000Y-23120000D02*
X16010000Y-23110000D01*
X16082000Y-26588000D02*
X16160000Y-26510000D01*
X14290000Y-26588000D02*
X13938000Y-26588000D01*
X13938000Y-26588000D02*
X13340000Y-25990000D01*
X13340000Y-25990000D02*
X13340000Y-23250000D01*
X13340000Y-23250000D02*
X13682000Y-22908000D01*
X13682000Y-22908000D02*
X14280000Y-22908000D01*
D24*
X34862000Y-18900000D02*
X36150000Y-18900000D01*
X35622000Y-15768000D02*
X34050000Y-15768000D01*
X36100000Y-15290000D02*
X35622000Y-15768000D01*
X36150000Y-18900000D02*
X36320000Y-18730000D01*
X18990000Y-13898000D02*
X32180000Y-13898000D01*
X32180000Y-13898000D02*
X34050000Y-15768000D01*
D23*
X26710000Y-24970000D02*
X27920000Y-24970000D01*
X29550000Y-30430000D02*
X28430000Y-31550000D01*
X29550000Y-26600000D02*
X29550000Y-30430000D01*
X27920000Y-24970000D02*
X29550000Y-26600000D01*
X41450000Y-33402000D02*
X40832000Y-33402000D01*
X40140000Y-32710000D02*
X40140000Y-30790000D01*
X40832000Y-33402000D02*
X40140000Y-32710000D01*
X38202000Y-35810000D02*
X37542000Y-35810000D01*
X37542000Y-35810000D02*
X37532000Y-35820000D01*
X31788000Y-35790000D02*
X30032000Y-35790000D01*
X32130000Y-30410000D02*
X30810000Y-31730000D01*
X35390000Y-30410000D02*
X32300000Y-30410000D01*
X32300000Y-30410000D02*
X32130000Y-30410000D01*
X38202000Y-33222000D02*
X35390000Y-30410000D01*
X38202000Y-35810000D02*
X38202000Y-33222000D01*
X30810000Y-31730000D02*
X30630000Y-31550000D01*
X30910000Y-33170000D02*
X30910000Y-31830000D01*
X30910000Y-31830000D02*
X30810000Y-31730000D01*
X30630000Y-31550000D02*
X28430000Y-31550000D01*
X28430000Y-31550000D02*
X28350000Y-31550000D01*
X14350000Y-35690000D02*
X19090000Y-35690000D01*
X24120000Y-35170000D02*
X24120000Y-33532000D01*
X23060000Y-36230000D02*
X24120000Y-35170000D01*
X19630000Y-36230000D02*
X23060000Y-36230000D01*
X19090000Y-35690000D02*
X19630000Y-36230000D01*
X24120000Y-33532000D02*
X26438000Y-33532000D01*
X26438000Y-33532000D02*
X28350000Y-31620000D01*
X28350000Y-31620000D02*
X28350000Y-31550000D01*
D22*
X14340000Y-14000000D02*
X17040000Y-14000000D01*
X17040000Y-14000000D02*
X18888000Y-14000000D01*
X18888000Y-14000000D02*
X18990000Y-13898000D01*
D23*
X14280000Y-22908000D02*
X14280000Y-21512000D01*
X14280000Y-21512000D02*
X14270000Y-21502000D01*
X34050000Y-15768000D02*
X31530000Y-15768000D01*
X31530000Y-15768000D02*
X31200000Y-16098000D01*
X38202000Y-35810000D02*
X39042000Y-35810000D01*
X39042000Y-35810000D02*
X41450000Y-33402000D01*
X38310000Y-28170000D02*
X39970000Y-28170000D01*
X39970000Y-28170000D02*
X39990000Y-28150000D01*
X40140000Y-30790000D02*
X41178000Y-29752000D01*
X41178000Y-29752000D02*
X41460000Y-29752000D01*
X30910000Y-33170000D02*
X30910000Y-34912000D01*
X30910000Y-34912000D02*
X30032000Y-35790000D01*
X35710000Y-21570000D02*
X35710000Y-19748000D01*
X35710000Y-19748000D02*
X34862000Y-18900000D01*
X14280000Y-24432000D02*
X18782000Y-24432000D01*
X18782000Y-24432000D02*
X19030000Y-24680000D01*
X23760000Y-24942000D02*
X19292000Y-24942000D01*
X19292000Y-24942000D02*
X19030000Y-24680000D01*
X26710000Y-25770000D02*
X24588000Y-25770000D01*
X24588000Y-25770000D02*
X23760000Y-24942000D01*
X19030000Y-19800000D02*
X23728000Y-19800000D01*
X23728000Y-19800000D02*
X23760000Y-19768000D01*
X19030000Y-19800000D02*
X14448000Y-19800000D01*
X14448000Y-19800000D02*
X14270000Y-19978000D01*
X52552000Y-35390000D02*
X54570000Y-35390000D01*
X54570000Y-35390000D02*
X54910000Y-35050000D01*
X47430000Y-23690000D02*
X47430000Y-22730000D01*
X41992000Y-17292000D02*
X34050000Y-17292000D01*
X47430000Y-22730000D02*
X41992000Y-17292000D01*
X34110000Y-21570000D02*
X34110000Y-17352000D01*
X34110000Y-17352000D02*
X34050000Y-17292000D01*
X33312000Y-35790000D02*
X34450000Y-35790000D01*
X34450000Y-35790000D02*
X34470000Y-35810000D01*
X33310000Y-33170000D02*
X33310000Y-35788000D01*
X33310000Y-35788000D02*
X33312000Y-35790000D01*
X28508000Y-35790000D02*
X27690000Y-35790000D01*
X51070000Y-25130000D02*
X52510000Y-23690000D01*
X48630000Y-25130000D02*
X51070000Y-25130000D01*
X48610000Y-25110000D02*
X48630000Y-25130000D01*
X27690000Y-35790000D02*
X27030000Y-35130000D01*
X28510000Y-33170000D02*
X28510000Y-35788000D01*
X28510000Y-35788000D02*
X28508000Y-35790000D01*
X31200000Y-17622000D02*
X31998000Y-17622000D01*
X55050000Y-22320000D02*
X55050000Y-23690000D01*
X49020000Y-16290000D02*
X55050000Y-22320000D01*
X36050000Y-16290000D02*
X49020000Y-16290000D01*
X35800000Y-16540000D02*
X36050000Y-16290000D01*
X33080000Y-16540000D02*
X35800000Y-16540000D01*
X31998000Y-17622000D02*
X33080000Y-16540000D01*
X29330000Y-17628000D02*
X31194000Y-17628000D01*
X31194000Y-17628000D02*
X31200000Y-17622000D01*
X26710000Y-27370000D02*
X24620000Y-27370000D01*
X20040000Y-31950000D02*
X14350000Y-31950000D01*
X24620000Y-27370000D02*
X20040000Y-31950000D01*
D24*
X26710000Y-28170000D02*
X25370000Y-28170000D01*
X25370000Y-28170000D02*
X19730000Y-33810000D01*
X19730000Y-33810000D02*
X14350000Y-33810000D01*
D23*
X26710000Y-26570000D02*
X23770000Y-26570000D01*
X23770000Y-26570000D02*
X20250000Y-30090000D01*
X20250000Y-30090000D02*
X14350000Y-30090000D01*
X14350000Y-30090000D02*
X14350000Y-28172000D01*
X14350000Y-28172000D02*
X14290000Y-28112000D01*
X49350000Y-33788000D02*
X50790000Y-33788000D01*
X50790000Y-33788000D02*
X51028000Y-33550000D01*
X49350000Y-33788000D02*
X47978000Y-33788000D01*
X47978000Y-33788000D02*
X47370000Y-33180000D01*
X29310000Y-21570000D02*
X29310000Y-19172000D01*
X29310000Y-19172000D02*
X29330000Y-19152000D01*
X38310000Y-28970000D02*
X42790000Y-28970000D01*
X43460000Y-29640000D02*
X43460000Y-30018000D01*
X42790000Y-28970000D02*
X43460000Y-29640000D01*
D24*
X38310000Y-26570000D02*
X41598000Y-26570000D01*
X45470000Y-26570000D02*
X46280000Y-26570000D01*
X46280000Y-26570000D02*
X46300000Y-26550000D01*
X53610000Y-27080000D02*
X55550000Y-27080000D01*
X43122000Y-26570000D02*
X45470000Y-26570000D01*
X45470000Y-26570000D02*
X45788000Y-26570000D01*
X53098000Y-26568000D02*
X53610000Y-27080000D01*
X45790000Y-26568000D02*
X53098000Y-26568000D01*
X45788000Y-26570000D02*
X45790000Y-26568000D01*
D23*
X23760000Y-21292000D02*
X23760000Y-23418000D01*
X26710000Y-23370000D02*
X23808000Y-23370000D01*
X23808000Y-23370000D02*
X23760000Y-23418000D01*
X45470000Y-33180000D02*
X45098000Y-33180000D01*
X45098000Y-33180000D02*
X43460000Y-31542000D01*
X41450000Y-31878000D02*
X43124000Y-31878000D01*
X43124000Y-31878000D02*
X43460000Y-31542000D01*
X54290000Y-33550000D02*
X54630000Y-33550000D01*
X55550000Y-32630000D02*
X55550000Y-31790000D01*
X54630000Y-33550000D02*
X55550000Y-32630000D01*
X52552000Y-33550000D02*
X54290000Y-33550000D01*
X54290000Y-33550000D02*
X54302000Y-33550000D01*
X55550000Y-31790000D02*
X55128000Y-31790000D01*
D24*
X46300000Y-27850000D02*
X48148000Y-27850000D01*
G36*
X56690000Y-36390000D02*
X52375959Y-36390000D01*
X52426751Y-36267377D01*
X52869500Y-36267377D01*
X52980673Y-36246458D01*
X53082779Y-36180755D01*
X53151278Y-36080503D01*
X53175377Y-35961500D01*
X53175377Y-35815000D01*
X54266441Y-35815000D01*
X54290997Y-35831778D01*
X54410000Y-35855877D01*
X55410000Y-35855877D01*
X55521173Y-35834958D01*
X55623279Y-35769255D01*
X55691778Y-35669003D01*
X55715877Y-35550000D01*
X55715877Y-34550000D01*
X55694958Y-34438827D01*
X55670277Y-34400471D01*
X55691778Y-34369003D01*
X55715877Y-34250000D01*
X55715877Y-33250000D01*
X55694958Y-33138827D01*
X55674307Y-33106734D01*
X55850520Y-32930521D01*
X55942648Y-32792641D01*
X55942649Y-32792640D01*
X55956924Y-32720877D01*
X56690000Y-32720877D01*
X56690000Y-36390000D01*
X56690000Y-36390000D01*
G37*
X56690000Y-36390000D02*
X52375959Y-36390000D01*
X52426751Y-36267377D01*
X52869500Y-36267377D01*
X52980673Y-36246458D01*
X53082779Y-36180755D01*
X53151278Y-36080503D01*
X53175377Y-35961500D01*
X53175377Y-35815000D01*
X54266441Y-35815000D01*
X54290997Y-35831778D01*
X54410000Y-35855877D01*
X55410000Y-35855877D01*
X55521173Y-35834958D01*
X55623279Y-35769255D01*
X55691778Y-35669003D01*
X55715877Y-35550000D01*
X55715877Y-34550000D01*
X55694958Y-34438827D01*
X55670277Y-34400471D01*
X55691778Y-34369003D01*
X55715877Y-34250000D01*
X55715877Y-33250000D01*
X55694958Y-33138827D01*
X55674307Y-33106734D01*
X55850520Y-32930521D01*
X55942648Y-32792641D01*
X55942649Y-32792640D01*
X55956924Y-32720877D01*
X56690000Y-32720877D01*
X56690000Y-36390000D01*
G36*
X17302500Y-13358514D02*
X17302500Y-13465000D01*
X17581500Y-13744000D01*
X18836000Y-13744000D01*
X18836000Y-13724000D01*
X19144000Y-13724000D01*
X19144000Y-13744000D01*
X20398500Y-13744000D01*
X20677500Y-13465000D01*
X20677500Y-13358514D01*
X20665689Y-13330000D01*
X56690000Y-13330000D01*
X56690000Y-26149123D01*
X54300000Y-26149123D01*
X54188827Y-26170042D01*
X54086721Y-26235745D01*
X54018222Y-26335997D01*
X53994123Y-26455000D01*
X53994123Y-26680000D01*
X53775685Y-26680000D01*
X53380843Y-26285157D01*
X53251074Y-26198448D01*
X53098000Y-26168000D01*
X50224764Y-26168000D01*
X50211486Y-26162500D01*
X50105000Y-26162500D01*
X50099500Y-26168000D01*
X49244500Y-26168000D01*
X49239000Y-26162500D01*
X49132514Y-26162500D01*
X49119236Y-26168000D01*
X47105877Y-26168000D01*
X47105877Y-26050000D01*
X47084958Y-25938827D01*
X47019255Y-25836721D01*
X46919003Y-25768222D01*
X46800000Y-25744123D01*
X45800000Y-25744123D01*
X45688827Y-25765042D01*
X45586721Y-25830745D01*
X45518222Y-25930997D01*
X45494123Y-26050000D01*
X45494123Y-26170000D01*
X43745377Y-26170000D01*
X43745377Y-25998500D01*
X43724458Y-25887327D01*
X43658755Y-25785221D01*
X43558503Y-25716722D01*
X43439500Y-25692623D01*
X42804500Y-25692623D01*
X42693327Y-25713542D01*
X42591221Y-25779245D01*
X42522722Y-25879497D01*
X42498623Y-25998500D01*
X42498623Y-27141500D01*
X42519542Y-27252673D01*
X42585245Y-27354779D01*
X42685497Y-27423278D01*
X42804500Y-27447377D01*
X43439500Y-27447377D01*
X43550673Y-27426458D01*
X43652779Y-27360755D01*
X43721278Y-27260503D01*
X43745377Y-27141500D01*
X43745377Y-26970000D01*
X45494123Y-26970000D01*
X45494123Y-27050000D01*
X45515042Y-27161173D01*
X45539723Y-27199529D01*
X45518222Y-27230997D01*
X45494123Y-27350000D01*
X45494123Y-28350000D01*
X45515042Y-28461173D01*
X45580745Y-28563279D01*
X45680997Y-28631778D01*
X45800000Y-28655877D01*
X46800000Y-28655877D01*
X46911173Y-28634958D01*
X47013279Y-28569255D01*
X47081778Y-28469003D01*
X47105877Y-28350000D01*
X47105877Y-28250000D01*
X47524623Y-28250000D01*
X47524623Y-28421500D01*
X47545542Y-28532673D01*
X47611245Y-28634779D01*
X47711497Y-28703278D01*
X47830500Y-28727377D01*
X48273249Y-28727377D01*
X48408401Y-29053663D01*
X48722337Y-29367599D01*
X49132514Y-29537500D01*
X49239000Y-29537500D01*
X49518000Y-29258500D01*
X49518000Y-28004000D01*
X49826000Y-28004000D01*
X49826000Y-29258500D01*
X50105000Y-29537500D01*
X50211486Y-29537500D01*
X50463771Y-29433000D01*
X53184000Y-29433000D01*
X53184000Y-29846986D01*
X53353901Y-30257163D01*
X53667837Y-30571099D01*
X54078014Y-30741000D01*
X55117000Y-30741000D01*
X55396000Y-30462000D01*
X55396000Y-29154000D01*
X53463000Y-29154000D01*
X53184000Y-29433000D01*
X50463771Y-29433000D01*
X50621663Y-29367599D01*
X50935599Y-29053663D01*
X51105500Y-28643486D01*
X51105500Y-28283000D01*
X50826500Y-28004000D01*
X49826000Y-28004000D01*
X49518000Y-28004000D01*
X49498000Y-28004000D01*
X49498000Y-27696000D01*
X49518000Y-27696000D01*
X49518000Y-26968000D01*
X49826000Y-26968000D01*
X49826000Y-27696000D01*
X50826500Y-27696000D01*
X51105500Y-27417000D01*
X51105500Y-27056514D01*
X51068836Y-26968000D01*
X52932314Y-26968000D01*
X53327155Y-27362840D01*
X53327157Y-27362843D01*
X53456927Y-27449552D01*
X53610000Y-27480000D01*
X53616738Y-27480000D01*
X53353901Y-27742837D01*
X53184000Y-28153014D01*
X53184000Y-28567000D01*
X53463000Y-28846000D01*
X55396000Y-28846000D01*
X55396000Y-28826000D01*
X55704000Y-28826000D01*
X55704000Y-28846000D01*
X55724000Y-28846000D01*
X55724000Y-29154000D01*
X55704000Y-29154000D01*
X55704000Y-30462000D01*
X55983000Y-30741000D01*
X56690000Y-30741000D01*
X56690000Y-30859123D01*
X54300000Y-30859123D01*
X54188827Y-30880042D01*
X54086721Y-30945745D01*
X54018222Y-31045997D01*
X53994123Y-31165000D01*
X53994123Y-32415000D01*
X54015042Y-32526173D01*
X54080745Y-32628279D01*
X54180997Y-32696778D01*
X54300000Y-32720877D01*
X54858082Y-32720877D01*
X54634837Y-32944123D01*
X54410000Y-32944123D01*
X54298827Y-32965042D01*
X54196721Y-33030745D01*
X54132320Y-33125000D01*
X53175377Y-33125000D01*
X53175377Y-32978500D01*
X53154458Y-32867327D01*
X53088755Y-32765221D01*
X52988503Y-32696722D01*
X52869500Y-32672623D01*
X52234500Y-32672623D01*
X52123327Y-32693542D01*
X52021221Y-32759245D01*
X51952722Y-32859497D01*
X51928623Y-32978500D01*
X51928623Y-33852088D01*
X51651377Y-33737249D01*
X51651377Y-32978500D01*
X51630458Y-32867327D01*
X51564755Y-32765221D01*
X51464503Y-32696722D01*
X51345500Y-32672623D01*
X50710500Y-32672623D01*
X50599327Y-32693542D01*
X50497221Y-32759245D01*
X50428722Y-32859497D01*
X50404623Y-32978500D01*
X50404623Y-33363000D01*
X50207149Y-33363000D01*
X50206458Y-33359327D01*
X50140755Y-33257221D01*
X50040503Y-33188722D01*
X49921500Y-33164623D01*
X48778500Y-33164623D01*
X48667327Y-33185542D01*
X48565221Y-33251245D01*
X48496722Y-33351497D01*
X48494393Y-33363000D01*
X48154040Y-33363000D01*
X48075877Y-33284837D01*
X48075877Y-32230000D01*
X48054958Y-32118827D01*
X47989255Y-32016721D01*
X47889003Y-31948222D01*
X47770000Y-31924123D01*
X46970000Y-31924123D01*
X46858827Y-31945042D01*
X46756721Y-32010745D01*
X46688222Y-32110997D01*
X46664123Y-32230000D01*
X46664123Y-34130000D01*
X46685042Y-34241173D01*
X46750745Y-34343279D01*
X46850997Y-34411778D01*
X46970000Y-34435877D01*
X47770000Y-34435877D01*
X47804640Y-34429359D01*
X47662500Y-34772514D01*
X47662500Y-34879000D01*
X47941500Y-35158000D01*
X49196000Y-35158000D01*
X49196000Y-35138000D01*
X49504000Y-35138000D01*
X49504000Y-35158000D01*
X49795500Y-35158000D01*
X49873500Y-35236000D01*
X50874000Y-35236000D01*
X50874000Y-35216000D01*
X51182000Y-35216000D01*
X51182000Y-35236000D01*
X51202000Y-35236000D01*
X51202000Y-35544000D01*
X51182000Y-35544000D01*
X51182000Y-35564000D01*
X50874000Y-35564000D01*
X50874000Y-35544000D01*
X50836500Y-35544000D01*
X50758500Y-35466000D01*
X49504000Y-35466000D01*
X49504000Y-35486000D01*
X49196000Y-35486000D01*
X49196000Y-35466000D01*
X47941500Y-35466000D01*
X47662500Y-35745000D01*
X47662500Y-35851486D01*
X47832401Y-36261663D01*
X47960738Y-36390000D01*
X38965500Y-36390000D01*
X38965500Y-36213000D01*
X38686500Y-35934000D01*
X37686000Y-35934000D01*
X37686000Y-35954000D01*
X37378000Y-35954000D01*
X37378000Y-35934000D01*
X37358000Y-35934000D01*
X37358000Y-35626000D01*
X37378000Y-35626000D01*
X37378000Y-34371500D01*
X37686000Y-34371500D01*
X37686000Y-35626000D01*
X38686500Y-35626000D01*
X38965500Y-35347000D01*
X38965500Y-34986514D01*
X38795599Y-34576337D01*
X38481663Y-34262401D01*
X38071486Y-34092500D01*
X37965000Y-34092500D01*
X37686000Y-34371500D01*
X37378000Y-34371500D01*
X37099000Y-34092500D01*
X37076195Y-34092500D01*
X37090877Y-34020000D01*
X37090877Y-33835000D01*
X39762500Y-33835000D01*
X39762500Y-33941486D01*
X39932401Y-34351663D01*
X40246337Y-34665599D01*
X40656514Y-34835500D01*
X41017000Y-34835500D01*
X41296000Y-34556500D01*
X41296000Y-33556000D01*
X41604000Y-33556000D01*
X41604000Y-34556500D01*
X41883000Y-34835500D01*
X42243486Y-34835500D01*
X42653663Y-34665599D01*
X42967599Y-34351663D01*
X43137500Y-33941486D01*
X43137500Y-33835000D01*
X42858500Y-33556000D01*
X41604000Y-33556000D01*
X41296000Y-33556000D01*
X40041500Y-33556000D01*
X39762500Y-33835000D01*
X37090877Y-33835000D01*
X37090877Y-32862514D01*
X39762500Y-32862514D01*
X39762500Y-32969000D01*
X40041500Y-33248000D01*
X41296000Y-33248000D01*
X41296000Y-33228000D01*
X41604000Y-33228000D01*
X41604000Y-33248000D01*
X42858500Y-33248000D01*
X43137500Y-32969000D01*
X43137500Y-32862514D01*
X42967599Y-32452337D01*
X42818262Y-32303000D01*
X43124000Y-32303000D01*
X43259657Y-32276016D01*
X43286641Y-32270649D01*
X43424520Y-32178520D01*
X43437663Y-32165377D01*
X43482337Y-32165377D01*
X44764123Y-33447164D01*
X44764123Y-34130000D01*
X44785042Y-34241173D01*
X44850745Y-34343279D01*
X44950997Y-34411778D01*
X45070000Y-34435877D01*
X45870000Y-34435877D01*
X45981173Y-34414958D01*
X46083279Y-34349255D01*
X46151778Y-34249003D01*
X46175877Y-34130000D01*
X46175877Y-32230000D01*
X46154958Y-32118827D01*
X46089255Y-32016721D01*
X45989003Y-31948222D01*
X45870000Y-31924123D01*
X45070000Y-31924123D01*
X44958827Y-31945042D01*
X44856721Y-32010745D01*
X44788222Y-32110997D01*
X44764123Y-32230000D01*
X44764123Y-32245082D01*
X44337377Y-31818337D01*
X44337377Y-31224500D01*
X44316458Y-31113327D01*
X44250755Y-31011221D01*
X44150503Y-30942722D01*
X44031500Y-30918623D01*
X42888500Y-30918623D01*
X42777327Y-30939542D01*
X42675221Y-31005245D01*
X42606722Y-31105497D01*
X42582623Y-31224500D01*
X42582623Y-31453000D01*
X42307149Y-31453000D01*
X42306458Y-31449327D01*
X42240755Y-31347221D01*
X42140503Y-31278722D01*
X42021500Y-31254623D01*
X40878500Y-31254623D01*
X40767327Y-31275542D01*
X40665221Y-31341245D01*
X40596722Y-31441497D01*
X40572623Y-31560500D01*
X40572623Y-32003249D01*
X40246337Y-32138401D01*
X39932401Y-32452337D01*
X39762500Y-32862514D01*
X37090877Y-32862514D01*
X37090877Y-32320000D01*
X37069958Y-32208827D01*
X37004255Y-32106721D01*
X36904003Y-32038222D01*
X36785000Y-32014123D01*
X36235000Y-32014123D01*
X36123827Y-32035042D01*
X36111221Y-32043154D01*
X36104003Y-32038222D01*
X35985000Y-32014123D01*
X35435000Y-32014123D01*
X35323827Y-32035042D01*
X35311221Y-32043154D01*
X35304003Y-32038222D01*
X35245000Y-32026273D01*
X35245000Y-31900000D01*
X35236701Y-31858279D01*
X35212649Y-31737359D01*
X35120521Y-31599480D01*
X35029914Y-31508873D01*
X35030121Y-31271372D01*
X34923777Y-31014000D01*
X34727036Y-30816915D01*
X34469850Y-30710122D01*
X34191372Y-30709879D01*
X33934000Y-30816223D01*
X33736915Y-31012964D01*
X33630122Y-31270150D01*
X33629879Y-31548628D01*
X33736223Y-31806000D01*
X33932964Y-32003085D01*
X33959546Y-32014123D01*
X33835000Y-32014123D01*
X33723827Y-32035042D01*
X33711221Y-32043154D01*
X33704003Y-32038222D01*
X33585000Y-32014123D01*
X33035000Y-32014123D01*
X32923827Y-32035042D01*
X32911221Y-32043154D01*
X32904003Y-32038222D01*
X32785000Y-32014123D01*
X32266251Y-32014123D01*
X32131099Y-31687837D01*
X31817163Y-31373901D01*
X31406986Y-31204000D01*
X31326500Y-31204000D01*
X31047500Y-31483000D01*
X31047500Y-33016000D01*
X31084000Y-33016000D01*
X31084000Y-33324000D01*
X31047500Y-33324000D01*
X31047500Y-33344000D01*
X30772500Y-33344000D01*
X30772500Y-33324000D01*
X30736000Y-33324000D01*
X30736000Y-33016000D01*
X30772500Y-33016000D01*
X30772500Y-31483000D01*
X30493500Y-31204000D01*
X30413014Y-31204000D01*
X30002837Y-31373901D01*
X29688901Y-31687837D01*
X29553749Y-32014123D01*
X29035000Y-32014123D01*
X28923827Y-32035042D01*
X28911221Y-32043154D01*
X28904003Y-32038222D01*
X28785000Y-32014123D01*
X28235000Y-32014123D01*
X28123827Y-32035042D01*
X28021721Y-32100745D01*
X27953222Y-32200997D01*
X27929123Y-32320000D01*
X27929123Y-34020000D01*
X27950042Y-34131173D01*
X28015745Y-34233279D01*
X28085000Y-34280599D01*
X28085000Y-34932475D01*
X28079327Y-34933542D01*
X27977221Y-34999245D01*
X27908722Y-35099497D01*
X27884623Y-35218500D01*
X27884623Y-35365000D01*
X27866040Y-35365000D01*
X27729914Y-35228874D01*
X27730121Y-34991372D01*
X27623777Y-34734000D01*
X27427036Y-34536915D01*
X27169850Y-34430122D01*
X26891372Y-34429879D01*
X26634000Y-34536223D01*
X26436915Y-34732964D01*
X26330122Y-34990150D01*
X26329879Y-35268628D01*
X26436223Y-35526000D01*
X26632964Y-35723085D01*
X26890150Y-35829878D01*
X27129046Y-35830086D01*
X27389480Y-36090520D01*
X27527359Y-36182649D01*
X27554343Y-36188016D01*
X27690000Y-36215000D01*
X27884623Y-36215000D01*
X27884623Y-36361500D01*
X27889986Y-36390000D01*
X16716000Y-36390000D01*
X16716000Y-36123000D01*
X16437000Y-35844000D01*
X14504000Y-35844000D01*
X14504000Y-35864000D01*
X14196000Y-35864000D01*
X14196000Y-35844000D01*
X14176000Y-35844000D01*
X14176000Y-35536000D01*
X14196000Y-35536000D01*
X14196000Y-35516000D01*
X14504000Y-35516000D01*
X14504000Y-35536000D01*
X16437000Y-35536000D01*
X16716000Y-35257000D01*
X16716000Y-34843014D01*
X16546099Y-34432837D01*
X16323262Y-34210000D01*
X19730000Y-34210000D01*
X19883074Y-34179552D01*
X20012843Y-34092843D01*
X20140685Y-33965000D01*
X22432500Y-33965000D01*
X22432500Y-34071486D01*
X22602401Y-34481663D01*
X22916337Y-34795599D01*
X23326514Y-34965500D01*
X23687000Y-34965500D01*
X23966000Y-34686500D01*
X23966000Y-33686000D01*
X24274000Y-33686000D01*
X24274000Y-34686500D01*
X24553000Y-34965500D01*
X24913486Y-34965500D01*
X25323663Y-34795599D01*
X25637599Y-34481663D01*
X25807500Y-34071486D01*
X25807500Y-33965000D01*
X25528500Y-33686000D01*
X24274000Y-33686000D01*
X23966000Y-33686000D01*
X22711500Y-33686000D01*
X22432500Y-33965000D01*
X20140685Y-33965000D01*
X23724626Y-30381059D01*
X23695000Y-30530000D01*
X23695000Y-31384623D01*
X23548500Y-31384623D01*
X23437327Y-31405542D01*
X23335221Y-31471245D01*
X23266722Y-31571497D01*
X23242623Y-31690500D01*
X23242623Y-31929458D01*
X23227000Y-32008000D01*
X23242623Y-32086542D01*
X23242623Y-32133249D01*
X22916337Y-32268401D01*
X22602401Y-32582337D01*
X22432500Y-32992514D01*
X22432500Y-33099000D01*
X22711500Y-33378000D01*
X23966000Y-33378000D01*
X23966000Y-33358000D01*
X24274000Y-33358000D01*
X24274000Y-33378000D01*
X25528500Y-33378000D01*
X25666433Y-33240067D01*
X25728628Y-33240121D01*
X25986000Y-33133777D01*
X26183085Y-32937036D01*
X26289878Y-32679850D01*
X26290121Y-32401372D01*
X26183777Y-32144000D01*
X25990991Y-31950877D01*
X27560000Y-31950877D01*
X27671173Y-31929958D01*
X27773279Y-31864255D01*
X27841778Y-31764003D01*
X27865877Y-31645000D01*
X27865877Y-31095000D01*
X27844958Y-30983827D01*
X27836846Y-30971221D01*
X27841778Y-30964003D01*
X27865877Y-30845000D01*
X27865877Y-30295000D01*
X27844958Y-30183827D01*
X27836846Y-30171221D01*
X27841778Y-30164003D01*
X27865877Y-30045000D01*
X27865877Y-29520000D01*
X28129884Y-29520000D01*
X28132964Y-29523085D01*
X28390150Y-29629878D01*
X28668628Y-29630121D01*
X28926000Y-29523777D01*
X29123085Y-29327036D01*
X29229878Y-29069850D01*
X29230121Y-28791372D01*
X29123777Y-28534000D01*
X28927036Y-28336915D01*
X28669850Y-28230122D01*
X28391372Y-28229879D01*
X28134000Y-28336223D01*
X28050077Y-28420000D01*
X27865877Y-28420000D01*
X27865877Y-27895000D01*
X27844958Y-27783827D01*
X27836846Y-27771221D01*
X27841778Y-27764003D01*
X27865877Y-27645000D01*
X27865877Y-27095000D01*
X27844958Y-26983827D01*
X27836846Y-26971221D01*
X27841778Y-26964003D01*
X27848941Y-26928628D01*
X35569879Y-26928628D01*
X35676223Y-27186000D01*
X35872964Y-27383085D01*
X36130150Y-27489878D01*
X36369046Y-27490086D01*
X36404914Y-27525954D01*
X36344000Y-27673014D01*
X36344000Y-27753500D01*
X36623000Y-28032500D01*
X38156000Y-28032500D01*
X38156000Y-27996000D01*
X38464000Y-27996000D01*
X38464000Y-28032500D01*
X39997000Y-28032500D01*
X40234500Y-27795000D01*
X40425960Y-27795000D01*
X40582623Y-27951663D01*
X40582623Y-28353249D01*
X40256337Y-28488401D01*
X40217119Y-28527619D01*
X39997000Y-28307500D01*
X38464000Y-28307500D01*
X38464000Y-28344000D01*
X38156000Y-28344000D01*
X38156000Y-28307500D01*
X36623000Y-28307500D01*
X36344000Y-28586500D01*
X36344000Y-28666986D01*
X36513901Y-29077163D01*
X36827837Y-29391099D01*
X37154123Y-29526251D01*
X37154123Y-30045000D01*
X37175042Y-30156173D01*
X37183154Y-30168779D01*
X37178222Y-30175997D01*
X37154123Y-30295000D01*
X37154123Y-30845000D01*
X37175042Y-30956173D01*
X37183154Y-30968779D01*
X37178222Y-30975997D01*
X37154123Y-31095000D01*
X37154123Y-31645000D01*
X37175042Y-31756173D01*
X37240745Y-31858279D01*
X37340997Y-31926778D01*
X37460000Y-31950877D01*
X39160000Y-31950877D01*
X39271173Y-31929958D01*
X39373279Y-31864255D01*
X39441778Y-31764003D01*
X39465877Y-31645000D01*
X39465877Y-31095000D01*
X39444958Y-30983827D01*
X39436846Y-30971221D01*
X39441778Y-30964003D01*
X39465877Y-30845000D01*
X39465877Y-30295000D01*
X39445179Y-30185000D01*
X39772500Y-30185000D01*
X39772500Y-30291486D01*
X39942401Y-30701663D01*
X40256337Y-31015599D01*
X40666514Y-31185500D01*
X41027000Y-31185500D01*
X41306000Y-30906500D01*
X41306000Y-29906000D01*
X40051500Y-29906000D01*
X39772500Y-30185000D01*
X39445179Y-30185000D01*
X39444958Y-30183827D01*
X39436846Y-30171221D01*
X39441778Y-30164003D01*
X39465877Y-30045000D01*
X39465877Y-29526251D01*
X39782745Y-29395000D01*
X39848500Y-29395000D01*
X40051500Y-29598000D01*
X41306000Y-29598000D01*
X41306000Y-29578000D01*
X41614000Y-29578000D01*
X41614000Y-29598000D01*
X41634000Y-29598000D01*
X41634000Y-29906000D01*
X41614000Y-29906000D01*
X41614000Y-30906500D01*
X41893000Y-31185500D01*
X42253486Y-31185500D01*
X42663663Y-31015599D01*
X42977599Y-30701663D01*
X43002570Y-30641377D01*
X44031500Y-30641377D01*
X44142673Y-30620458D01*
X44244779Y-30554755D01*
X44313278Y-30454503D01*
X44337377Y-30335500D01*
X44337377Y-29700500D01*
X44316458Y-29589327D01*
X44250755Y-29487221D01*
X44150503Y-29418722D01*
X44031500Y-29394623D01*
X43797366Y-29394623D01*
X43760520Y-29339480D01*
X43090520Y-28669480D01*
X43065856Y-28653000D01*
X43771960Y-28653000D01*
X45599480Y-30480520D01*
X45714123Y-30557123D01*
X45714123Y-31130000D01*
X45735042Y-31241173D01*
X45800745Y-31343279D01*
X45900997Y-31411778D01*
X46020000Y-31435877D01*
X46820000Y-31435877D01*
X46931173Y-31414958D01*
X47033279Y-31349255D01*
X47101778Y-31249003D01*
X47125877Y-31130000D01*
X47125877Y-29230000D01*
X47104958Y-29118827D01*
X47039255Y-29016721D01*
X46939003Y-28948222D01*
X46820000Y-28924123D01*
X46020000Y-28924123D01*
X45908827Y-28945042D01*
X45806721Y-29010745D01*
X45738222Y-29110997D01*
X45714123Y-29230000D01*
X45714123Y-29393083D01*
X44248520Y-27927480D01*
X44110641Y-27835351D01*
X44083657Y-27829984D01*
X43948000Y-27803000D01*
X42317149Y-27803000D01*
X42316458Y-27799327D01*
X42250755Y-27697221D01*
X42150503Y-27628722D01*
X42031500Y-27604623D01*
X41437664Y-27604623D01*
X41280396Y-27447356D01*
X41280500Y-27447377D01*
X41915500Y-27447377D01*
X42026673Y-27426458D01*
X42128779Y-27360755D01*
X42197278Y-27260503D01*
X42221377Y-27141500D01*
X42221377Y-25998500D01*
X42200458Y-25887327D01*
X42134755Y-25785221D01*
X42034503Y-25716722D01*
X41915500Y-25692623D01*
X41280500Y-25692623D01*
X41169327Y-25713542D01*
X41067221Y-25779245D01*
X40998722Y-25879497D01*
X40974623Y-25998500D01*
X40974623Y-26170000D01*
X39437680Y-26170000D01*
X39441778Y-26164003D01*
X39465877Y-26045000D01*
X39465877Y-25495000D01*
X39444958Y-25383827D01*
X39436846Y-25371221D01*
X39441778Y-25364003D01*
X39465877Y-25245000D01*
X39465877Y-24695000D01*
X39444958Y-24583827D01*
X39436846Y-24571221D01*
X39441778Y-24564003D01*
X39465877Y-24445000D01*
X39465877Y-23895000D01*
X39444958Y-23783827D01*
X39436846Y-23771221D01*
X39441778Y-23764003D01*
X39465877Y-23645000D01*
X39465877Y-23095000D01*
X39444958Y-22983827D01*
X39379255Y-22881721D01*
X39318195Y-22840000D01*
X41194123Y-22840000D01*
X41194123Y-24540000D01*
X41215042Y-24651173D01*
X41280745Y-24753279D01*
X41380997Y-24821778D01*
X41500000Y-24845877D01*
X43200000Y-24845877D01*
X43291599Y-24828641D01*
X43299317Y-24845388D01*
X43862548Y-25366167D01*
X44431291Y-25601738D01*
X44736000Y-25369956D01*
X44736000Y-23844000D01*
X44716000Y-23844000D01*
X44716000Y-23536000D01*
X44736000Y-23536000D01*
X44736000Y-22010044D01*
X44431291Y-21778262D01*
X43862548Y-22013833D01*
X43299317Y-22534612D01*
X43291045Y-22552560D01*
X43200000Y-22534123D01*
X41500000Y-22534123D01*
X41388827Y-22555042D01*
X41286721Y-22620745D01*
X41218222Y-22720997D01*
X41194123Y-22840000D01*
X39318195Y-22840000D01*
X39279003Y-22813222D01*
X39160000Y-22789123D01*
X37460000Y-22789123D01*
X37348827Y-22810042D01*
X37246721Y-22875745D01*
X37178222Y-22975997D01*
X37154123Y-23095000D01*
X37154123Y-23645000D01*
X37175042Y-23756173D01*
X37183154Y-23768779D01*
X37178222Y-23775997D01*
X37154123Y-23895000D01*
X37154123Y-24445000D01*
X37175042Y-24556173D01*
X37183154Y-24568779D01*
X37178222Y-24575997D01*
X37154123Y-24695000D01*
X37154123Y-25245000D01*
X37175042Y-25356173D01*
X37183154Y-25368779D01*
X37178222Y-25375997D01*
X37154123Y-25495000D01*
X37154123Y-26045000D01*
X37175042Y-26156173D01*
X37183154Y-26168779D01*
X37178222Y-26175997D01*
X37154123Y-26295000D01*
X37154123Y-26813749D01*
X36970746Y-26889706D01*
X36969914Y-26888874D01*
X36970121Y-26651372D01*
X36863777Y-26394000D01*
X36667036Y-26196915D01*
X36409850Y-26090122D01*
X36131372Y-26089879D01*
X35874000Y-26196223D01*
X35676915Y-26392964D01*
X35570122Y-26650150D01*
X35569879Y-26928628D01*
X27848941Y-26928628D01*
X27865877Y-26845000D01*
X27865877Y-26326251D01*
X28192163Y-26191099D01*
X28506099Y-25877163D01*
X28676000Y-25466986D01*
X28676000Y-25386500D01*
X28397000Y-25107500D01*
X26864000Y-25107500D01*
X26864000Y-25144000D01*
X26556000Y-25144000D01*
X26556000Y-25107500D01*
X25023000Y-25107500D01*
X24785500Y-25345000D01*
X24764041Y-25345000D01*
X24637377Y-25218336D01*
X24637377Y-24624500D01*
X24616458Y-24513327D01*
X24550755Y-24411221D01*
X24450503Y-24342722D01*
X24331500Y-24318623D01*
X23188500Y-24318623D01*
X23077327Y-24339542D01*
X22975221Y-24405245D01*
X22906722Y-24505497D01*
X22904393Y-24517000D01*
X20080143Y-24517000D01*
X20080182Y-24472058D01*
X19920666Y-24086000D01*
X19625554Y-23790372D01*
X19239774Y-23630182D01*
X18822058Y-23629818D01*
X18436000Y-23789334D01*
X18217953Y-24007000D01*
X15648262Y-24007000D01*
X15797599Y-23857663D01*
X15967500Y-23447486D01*
X15967500Y-23341000D01*
X15688500Y-23062000D01*
X14434000Y-23062000D01*
X14434000Y-23082000D01*
X14126000Y-23082000D01*
X14126000Y-23062000D01*
X14106000Y-23062000D01*
X14106000Y-22754000D01*
X14126000Y-22754000D01*
X14126000Y-21753500D01*
X14116000Y-21743500D01*
X14116000Y-21656000D01*
X14424000Y-21656000D01*
X14424000Y-22656500D01*
X14434000Y-22666500D01*
X14434000Y-22754000D01*
X14521500Y-22754000D01*
X14703000Y-22935500D01*
X15063486Y-22935500D01*
X15473663Y-22765599D01*
X15485262Y-22754000D01*
X15688500Y-22754000D01*
X15967500Y-22475000D01*
X15967500Y-22368514D01*
X15894770Y-22192929D01*
X15957500Y-22041486D01*
X15957500Y-21935000D01*
X15678500Y-21656000D01*
X15495262Y-21656000D01*
X15483663Y-21644401D01*
X15073486Y-21474500D01*
X14713000Y-21474500D01*
X14531500Y-21656000D01*
X14424000Y-21656000D01*
X14116000Y-21656000D01*
X14096000Y-21656000D01*
X14096000Y-21348000D01*
X14116000Y-21348000D01*
X14116000Y-21328000D01*
X14424000Y-21328000D01*
X14424000Y-21348000D01*
X15678500Y-21348000D01*
X15957500Y-21069000D01*
X15957500Y-20974500D01*
X22882623Y-20974500D01*
X22882623Y-21609500D01*
X22903542Y-21720673D01*
X22969245Y-21822779D01*
X23069497Y-21891278D01*
X23188500Y-21915377D01*
X23335000Y-21915377D01*
X23335000Y-22794623D01*
X23188500Y-22794623D01*
X23077327Y-22815542D01*
X22975221Y-22881245D01*
X22906722Y-22981497D01*
X22882623Y-23100500D01*
X22882623Y-23735500D01*
X22903542Y-23846673D01*
X22969245Y-23948779D01*
X23069497Y-24017278D01*
X23188500Y-24041377D01*
X24331500Y-24041377D01*
X24442673Y-24020458D01*
X24544779Y-23954755D01*
X24613278Y-23854503D01*
X24625328Y-23795000D01*
X25181738Y-23795000D01*
X24913901Y-24062837D01*
X24744000Y-24473014D01*
X24744000Y-24553500D01*
X25023000Y-24832500D01*
X26556000Y-24832500D01*
X26556000Y-24796000D01*
X26864000Y-24796000D01*
X26864000Y-24832500D01*
X28397000Y-24832500D01*
X28676000Y-24553500D01*
X28676000Y-24473014D01*
X28506099Y-24062837D01*
X28192163Y-23748901D01*
X27865877Y-23613749D01*
X27865877Y-23095000D01*
X27844958Y-22983827D01*
X27779255Y-22881721D01*
X27679003Y-22813222D01*
X27560000Y-22789123D01*
X25860000Y-22789123D01*
X25748827Y-22810042D01*
X25646721Y-22875745D01*
X25599401Y-22945000D01*
X24587935Y-22945000D01*
X24550755Y-22887221D01*
X24450503Y-22818722D01*
X24331500Y-22794623D01*
X24185000Y-22794623D01*
X24185000Y-21915377D01*
X24331500Y-21915377D01*
X24442673Y-21894458D01*
X24544779Y-21828755D01*
X24613278Y-21728503D01*
X24637377Y-21609500D01*
X24637377Y-20974500D01*
X24616458Y-20863327D01*
X24550755Y-20761221D01*
X24450503Y-20692722D01*
X24331500Y-20668623D01*
X23188500Y-20668623D01*
X23077327Y-20689542D01*
X22975221Y-20755245D01*
X22906722Y-20855497D01*
X22882623Y-20974500D01*
X15957500Y-20974500D01*
X15957500Y-20962514D01*
X15787599Y-20552337D01*
X15473663Y-20238401D01*
X15441310Y-20225000D01*
X18069505Y-20225000D01*
X18139334Y-20394000D01*
X18434446Y-20689628D01*
X18820226Y-20849818D01*
X19237942Y-20850182D01*
X19624000Y-20690666D01*
X19919628Y-20395554D01*
X19990448Y-20225000D01*
X22921770Y-20225000D01*
X22969245Y-20298779D01*
X23069497Y-20367278D01*
X23188500Y-20391377D01*
X24331500Y-20391377D01*
X24442673Y-20370458D01*
X24544779Y-20304755D01*
X24613278Y-20204503D01*
X24637377Y-20085500D01*
X24637377Y-19450500D01*
X24616458Y-19339327D01*
X24550755Y-19237221D01*
X24450503Y-19168722D01*
X24331500Y-19144623D01*
X23188500Y-19144623D01*
X23077327Y-19165542D01*
X22975221Y-19231245D01*
X22906722Y-19331497D01*
X22897912Y-19375000D01*
X19990495Y-19375000D01*
X19920666Y-19206000D01*
X19625554Y-18910372D01*
X19239774Y-18750182D01*
X18822058Y-18749818D01*
X18436000Y-18909334D01*
X18140372Y-19204446D01*
X18069552Y-19375000D01*
X14942123Y-19375000D01*
X14841500Y-19354623D01*
X13698500Y-19354623D01*
X13587327Y-19375542D01*
X13485221Y-19441245D01*
X13416722Y-19541497D01*
X13392623Y-19660500D01*
X13392623Y-20103249D01*
X13210000Y-20178894D01*
X13210000Y-16770877D01*
X15590000Y-16770877D01*
X15701173Y-16749958D01*
X15803279Y-16684255D01*
X15871778Y-16584003D01*
X15895877Y-16465000D01*
X15895877Y-16390000D01*
X18572000Y-16390000D01*
X18782476Y-16348134D01*
X18960909Y-16228909D01*
X19144441Y-16045377D01*
X19561500Y-16045377D01*
X19672673Y-16024458D01*
X19754196Y-15972000D01*
X23204182Y-15972000D01*
X26250000Y-19017818D01*
X26250000Y-21119954D01*
X26206915Y-21162964D01*
X26100122Y-21420150D01*
X26099879Y-21698628D01*
X26206223Y-21956000D01*
X26402964Y-22153085D01*
X26660150Y-22259878D01*
X26938628Y-22260121D01*
X27196000Y-22153777D01*
X27393085Y-21957036D01*
X27499878Y-21699850D01*
X27500121Y-21421372D01*
X27393777Y-21164000D01*
X27350000Y-21120146D01*
X27350000Y-20720000D01*
X27929123Y-20720000D01*
X27929123Y-22420000D01*
X27950042Y-22531173D01*
X28015745Y-22633279D01*
X28115997Y-22701778D01*
X28235000Y-22725877D01*
X28785000Y-22725877D01*
X28896173Y-22704958D01*
X28908779Y-22696846D01*
X28915997Y-22701778D01*
X29035000Y-22725877D01*
X29585000Y-22725877D01*
X29696173Y-22704958D01*
X29708779Y-22696846D01*
X29715997Y-22701778D01*
X29835000Y-22725877D01*
X30385000Y-22725877D01*
X30496173Y-22704958D01*
X30508779Y-22696846D01*
X30515997Y-22701778D01*
X30635000Y-22725877D01*
X31185000Y-22725877D01*
X31285000Y-22707060D01*
X31285000Y-22794893D01*
X31276915Y-22802964D01*
X31170122Y-23060150D01*
X31169879Y-23338628D01*
X31276223Y-23596000D01*
X31472964Y-23793085D01*
X31730150Y-23899878D01*
X32008628Y-23900121D01*
X32266000Y-23793777D01*
X32463085Y-23597036D01*
X32569878Y-23339850D01*
X32570121Y-23061372D01*
X32463777Y-22804000D01*
X32385790Y-22725877D01*
X32785000Y-22725877D01*
X32896173Y-22704958D01*
X32908779Y-22696846D01*
X32915997Y-22701778D01*
X33035000Y-22725877D01*
X33585000Y-22725877D01*
X33696173Y-22704958D01*
X33708779Y-22696846D01*
X33715997Y-22701778D01*
X33835000Y-22725877D01*
X34353749Y-22725877D01*
X34488901Y-23052163D01*
X34802837Y-23366099D01*
X35213014Y-23536000D01*
X35293500Y-23536000D01*
X35572500Y-23257000D01*
X35572500Y-21724000D01*
X35536000Y-21724000D01*
X35536000Y-21416000D01*
X35572500Y-21416000D01*
X35572500Y-21396000D01*
X35847500Y-21396000D01*
X35847500Y-21416000D01*
X35929123Y-21416000D01*
X35929123Y-21724000D01*
X35847500Y-21724000D01*
X35847500Y-23257000D01*
X36126500Y-23536000D01*
X36206986Y-23536000D01*
X36617163Y-23366099D01*
X36931099Y-23052163D01*
X37101000Y-22641986D01*
X37101000Y-22003000D01*
X37090877Y-21992877D01*
X37090877Y-21147123D01*
X37101000Y-21137000D01*
X37101000Y-20498014D01*
X36931099Y-20087837D01*
X36617163Y-19773901D01*
X36295500Y-19640664D01*
X36295500Y-19333000D01*
X36016500Y-19054000D01*
X35016000Y-19054000D01*
X35016000Y-19074000D01*
X34708000Y-19074000D01*
X34708000Y-19054000D01*
X34688000Y-19054000D01*
X34688000Y-18746000D01*
X34708000Y-18746000D01*
X34708000Y-18726000D01*
X35016000Y-18726000D01*
X35016000Y-18746000D01*
X36016500Y-18746000D01*
X36295500Y-18467000D01*
X36295500Y-18106514D01*
X36134158Y-17717000D01*
X41815960Y-17717000D01*
X46818502Y-22719543D01*
X46625377Y-22848584D01*
X46480683Y-22534612D01*
X45917452Y-22013833D01*
X45348709Y-21778262D01*
X45044000Y-22010044D01*
X45044000Y-23536000D01*
X45064000Y-23536000D01*
X45064000Y-23844000D01*
X45044000Y-23844000D01*
X45044000Y-25369956D01*
X45348709Y-25601738D01*
X45917452Y-25366167D01*
X46480683Y-24845388D01*
X46625377Y-24531416D01*
X46989914Y-24774991D01*
X47430000Y-24862530D01*
X47870086Y-24774991D01*
X48126225Y-24603845D01*
X48016915Y-24712964D01*
X47910122Y-24970150D01*
X47909879Y-25248628D01*
X48016223Y-25506000D01*
X48212964Y-25703085D01*
X48470150Y-25809878D01*
X48748628Y-25810121D01*
X49006000Y-25703777D01*
X49155037Y-25555000D01*
X51070000Y-25555000D01*
X51211882Y-25526778D01*
X51232641Y-25522649D01*
X51370520Y-25430520D01*
X52043619Y-24757421D01*
X52069914Y-24774991D01*
X52510000Y-24862530D01*
X52950086Y-24774991D01*
X53323173Y-24525703D01*
X53572461Y-24152616D01*
X53660000Y-23712530D01*
X53660000Y-23667470D01*
X53572461Y-23227384D01*
X53323173Y-22854297D01*
X52950086Y-22605009D01*
X52510000Y-22517470D01*
X52069914Y-22605009D01*
X51696827Y-22854297D01*
X51447539Y-23227384D01*
X51360000Y-23667470D01*
X51360000Y-23712530D01*
X51447341Y-24151619D01*
X50893960Y-24705000D01*
X50514835Y-24705000D01*
X50783173Y-24525703D01*
X51032461Y-24152616D01*
X51120000Y-23712530D01*
X51120000Y-23667470D01*
X51032461Y-23227384D01*
X50783173Y-22854297D01*
X50410086Y-22605009D01*
X49970000Y-22517470D01*
X49529914Y-22605009D01*
X49156827Y-22854297D01*
X48907539Y-23227384D01*
X48820000Y-23667470D01*
X48820000Y-23712530D01*
X48907539Y-24152616D01*
X49156827Y-24525703D01*
X49425165Y-24705000D01*
X49194793Y-24705000D01*
X49007036Y-24516915D01*
X48749850Y-24410122D01*
X48471372Y-24409879D01*
X48263049Y-24495956D01*
X48492461Y-24152616D01*
X48580000Y-23712530D01*
X48580000Y-23667470D01*
X48492461Y-23227384D01*
X48243173Y-22854297D01*
X47870086Y-22605009D01*
X47828492Y-22596735D01*
X47822649Y-22567360D01*
X47777722Y-22500122D01*
X47730520Y-22429479D01*
X42292520Y-16991480D01*
X42154641Y-16899351D01*
X42127657Y-16893984D01*
X41992000Y-16867000D01*
X36060890Y-16867000D01*
X36100520Y-16840520D01*
X36226041Y-16715000D01*
X48843960Y-16715000D01*
X54625000Y-22496041D01*
X54625000Y-22602008D01*
X54609914Y-22605009D01*
X54236827Y-22854297D01*
X53987539Y-23227384D01*
X53900000Y-23667470D01*
X53900000Y-23712530D01*
X53987539Y-24152616D01*
X54236827Y-24525703D01*
X54609914Y-24774991D01*
X55050000Y-24862530D01*
X55490086Y-24774991D01*
X55863173Y-24525703D01*
X56112461Y-24152616D01*
X56200000Y-23712530D01*
X56200000Y-23667470D01*
X56112461Y-23227384D01*
X55863173Y-22854297D01*
X55490086Y-22605009D01*
X55475000Y-22602008D01*
X55475000Y-22320000D01*
X55442649Y-22157360D01*
X55442649Y-22157359D01*
X55350521Y-22019480D01*
X49320520Y-15989480D01*
X49182641Y-15897351D01*
X49155657Y-15891984D01*
X49020000Y-15865000D01*
X36050000Y-15865000D01*
X35887360Y-15897351D01*
X35887358Y-15897352D01*
X35887359Y-15897352D01*
X35749479Y-15989480D01*
X35637730Y-16101230D01*
X35458500Y-15922000D01*
X34204000Y-15922000D01*
X34204000Y-15942000D01*
X33896000Y-15942000D01*
X33896000Y-15922000D01*
X33876000Y-15922000D01*
X33876000Y-15614000D01*
X33896000Y-15614000D01*
X33896000Y-14613500D01*
X34204000Y-14613500D01*
X34204000Y-15614000D01*
X35458500Y-15614000D01*
X35737500Y-15335000D01*
X35737500Y-15228514D01*
X35567599Y-14818337D01*
X35253663Y-14504401D01*
X34843486Y-14334500D01*
X34483000Y-14334500D01*
X34204000Y-14613500D01*
X33896000Y-14613500D01*
X33617000Y-14334500D01*
X33256514Y-14334500D01*
X32846337Y-14504401D01*
X32532401Y-14818337D01*
X32489989Y-14920727D01*
X32403663Y-14834401D01*
X31993486Y-14664500D01*
X31633000Y-14664500D01*
X31354000Y-14943500D01*
X31354000Y-15944000D01*
X31374000Y-15944000D01*
X31374000Y-16252000D01*
X31354000Y-16252000D01*
X31354000Y-16272000D01*
X31046000Y-16272000D01*
X31046000Y-16252000D01*
X29791500Y-16252000D01*
X29512500Y-16531000D01*
X29512500Y-16637486D01*
X29664573Y-17004623D01*
X28758500Y-17004623D01*
X28647327Y-17025542D01*
X28545221Y-17091245D01*
X28476722Y-17191497D01*
X28452623Y-17310500D01*
X28452623Y-17945500D01*
X28473542Y-18056673D01*
X28539245Y-18158779D01*
X28639497Y-18227278D01*
X28758500Y-18251377D01*
X29901500Y-18251377D01*
X30012673Y-18230458D01*
X30114779Y-18164755D01*
X30183278Y-18064503D01*
X30185607Y-18053000D01*
X30345039Y-18053000D01*
X30409245Y-18152779D01*
X30509497Y-18221278D01*
X30628500Y-18245377D01*
X31771500Y-18245377D01*
X31882673Y-18224458D01*
X31984779Y-18158755D01*
X32053278Y-18058503D01*
X32058025Y-18035060D01*
X32133657Y-18020016D01*
X32160641Y-18014649D01*
X32298520Y-17922520D01*
X33088948Y-17132092D01*
X33172623Y-17166751D01*
X33172623Y-17609500D01*
X33193542Y-17720673D01*
X33259245Y-17822779D01*
X33359497Y-17891278D01*
X33478500Y-17915377D01*
X33507672Y-17915377D01*
X33463249Y-18022623D01*
X33020500Y-18022623D01*
X32909327Y-18043542D01*
X32807221Y-18109245D01*
X32738722Y-18209497D01*
X32714623Y-18328500D01*
X32714623Y-18694337D01*
X31409480Y-19999480D01*
X31317351Y-20137359D01*
X31317351Y-20137360D01*
X31285000Y-20300000D01*
X31285000Y-20434374D01*
X31185000Y-20414123D01*
X30635000Y-20414123D01*
X30523827Y-20435042D01*
X30511221Y-20443154D01*
X30504003Y-20438222D01*
X30385000Y-20414123D01*
X29835000Y-20414123D01*
X29735000Y-20432940D01*
X29735000Y-19775377D01*
X29901500Y-19775377D01*
X30012673Y-19754458D01*
X30114779Y-19688755D01*
X30183278Y-19588503D01*
X30207377Y-19469500D01*
X30207377Y-18834500D01*
X30186458Y-18723327D01*
X30120755Y-18621221D01*
X30020503Y-18552722D01*
X29901500Y-18528623D01*
X28758500Y-18528623D01*
X28647327Y-18549542D01*
X28545221Y-18615245D01*
X28476722Y-18715497D01*
X28452623Y-18834500D01*
X28452623Y-19469500D01*
X28473542Y-19580673D01*
X28539245Y-19682779D01*
X28639497Y-19751278D01*
X28758500Y-19775377D01*
X28885000Y-19775377D01*
X28885000Y-20434374D01*
X28785000Y-20414123D01*
X28235000Y-20414123D01*
X28123827Y-20435042D01*
X28021721Y-20500745D01*
X27953222Y-20600997D01*
X27929123Y-20720000D01*
X27350000Y-20720000D01*
X27350000Y-18790000D01*
X27308134Y-18579524D01*
X27188909Y-18401091D01*
X24346332Y-15558514D01*
X29512500Y-15558514D01*
X29512500Y-15665000D01*
X29791500Y-15944000D01*
X31046000Y-15944000D01*
X31046000Y-14943500D01*
X30767000Y-14664500D01*
X30406514Y-14664500D01*
X29996337Y-14834401D01*
X29682401Y-15148337D01*
X29512500Y-15558514D01*
X24346332Y-15558514D01*
X23820909Y-15033091D01*
X23642476Y-14913866D01*
X23432000Y-14872000D01*
X20483262Y-14872000D01*
X20507599Y-14847663D01*
X20677500Y-14437486D01*
X20677500Y-14331000D01*
X20398500Y-14052000D01*
X19144000Y-14052000D01*
X19144000Y-14072000D01*
X18836000Y-14072000D01*
X18836000Y-14052000D01*
X17581500Y-14052000D01*
X17302500Y-14331000D01*
X17302500Y-14437486D01*
X17472401Y-14847663D01*
X17786337Y-15161599D01*
X18096324Y-15290000D01*
X16503262Y-15290000D01*
X16536099Y-15257163D01*
X16706000Y-14846986D01*
X16706000Y-14433000D01*
X16427000Y-14154000D01*
X14494000Y-14154000D01*
X14494000Y-14174000D01*
X14186000Y-14174000D01*
X14186000Y-14154000D01*
X14166000Y-14154000D01*
X14166000Y-13846000D01*
X14186000Y-13846000D01*
X14186000Y-13826000D01*
X14494000Y-13826000D01*
X14494000Y-13846000D01*
X16427000Y-13846000D01*
X16706000Y-13567000D01*
X16706000Y-13330000D01*
X17314311Y-13330000D01*
X17302500Y-13358514D01*
X17302500Y-13358514D01*
G37*
X17302500Y-13358514D02*
X17302500Y-13465000D01*
X17581500Y-13744000D01*
X18836000Y-13744000D01*
X18836000Y-13724000D01*
X19144000Y-13724000D01*
X19144000Y-13744000D01*
X20398500Y-13744000D01*
X20677500Y-13465000D01*
X20677500Y-13358514D01*
X20665689Y-13330000D01*
X56690000Y-13330000D01*
X56690000Y-26149123D01*
X54300000Y-26149123D01*
X54188827Y-26170042D01*
X54086721Y-26235745D01*
X54018222Y-26335997D01*
X53994123Y-26455000D01*
X53994123Y-26680000D01*
X53775685Y-26680000D01*
X53380843Y-26285157D01*
X53251074Y-26198448D01*
X53098000Y-26168000D01*
X50224764Y-26168000D01*
X50211486Y-26162500D01*
X50105000Y-26162500D01*
X50099500Y-26168000D01*
X49244500Y-26168000D01*
X49239000Y-26162500D01*
X49132514Y-26162500D01*
X49119236Y-26168000D01*
X47105877Y-26168000D01*
X47105877Y-26050000D01*
X47084958Y-25938827D01*
X47019255Y-25836721D01*
X46919003Y-25768222D01*
X46800000Y-25744123D01*
X45800000Y-25744123D01*
X45688827Y-25765042D01*
X45586721Y-25830745D01*
X45518222Y-25930997D01*
X45494123Y-26050000D01*
X45494123Y-26170000D01*
X43745377Y-26170000D01*
X43745377Y-25998500D01*
X43724458Y-25887327D01*
X43658755Y-25785221D01*
X43558503Y-25716722D01*
X43439500Y-25692623D01*
X42804500Y-25692623D01*
X42693327Y-25713542D01*
X42591221Y-25779245D01*
X42522722Y-25879497D01*
X42498623Y-25998500D01*
X42498623Y-27141500D01*
X42519542Y-27252673D01*
X42585245Y-27354779D01*
X42685497Y-27423278D01*
X42804500Y-27447377D01*
X43439500Y-27447377D01*
X43550673Y-27426458D01*
X43652779Y-27360755D01*
X43721278Y-27260503D01*
X43745377Y-27141500D01*
X43745377Y-26970000D01*
X45494123Y-26970000D01*
X45494123Y-27050000D01*
X45515042Y-27161173D01*
X45539723Y-27199529D01*
X45518222Y-27230997D01*
X45494123Y-27350000D01*
X45494123Y-28350000D01*
X45515042Y-28461173D01*
X45580745Y-28563279D01*
X45680997Y-28631778D01*
X45800000Y-28655877D01*
X46800000Y-28655877D01*
X46911173Y-28634958D01*
X47013279Y-28569255D01*
X47081778Y-28469003D01*
X47105877Y-28350000D01*
X47105877Y-28250000D01*
X47524623Y-28250000D01*
X47524623Y-28421500D01*
X47545542Y-28532673D01*
X47611245Y-28634779D01*
X47711497Y-28703278D01*
X47830500Y-28727377D01*
X48273249Y-28727377D01*
X48408401Y-29053663D01*
X48722337Y-29367599D01*
X49132514Y-29537500D01*
X49239000Y-29537500D01*
X49518000Y-29258500D01*
X49518000Y-28004000D01*
X49826000Y-28004000D01*
X49826000Y-29258500D01*
X50105000Y-29537500D01*
X50211486Y-29537500D01*
X50463771Y-29433000D01*
X53184000Y-29433000D01*
X53184000Y-29846986D01*
X53353901Y-30257163D01*
X53667837Y-30571099D01*
X54078014Y-30741000D01*
X55117000Y-30741000D01*
X55396000Y-30462000D01*
X55396000Y-29154000D01*
X53463000Y-29154000D01*
X53184000Y-29433000D01*
X50463771Y-29433000D01*
X50621663Y-29367599D01*
X50935599Y-29053663D01*
X51105500Y-28643486D01*
X51105500Y-28283000D01*
X50826500Y-28004000D01*
X49826000Y-28004000D01*
X49518000Y-28004000D01*
X49498000Y-28004000D01*
X49498000Y-27696000D01*
X49518000Y-27696000D01*
X49518000Y-26968000D01*
X49826000Y-26968000D01*
X49826000Y-27696000D01*
X50826500Y-27696000D01*
X51105500Y-27417000D01*
X51105500Y-27056514D01*
X51068836Y-26968000D01*
X52932314Y-26968000D01*
X53327155Y-27362840D01*
X53327157Y-27362843D01*
X53456927Y-27449552D01*
X53610000Y-27480000D01*
X53616738Y-27480000D01*
X53353901Y-27742837D01*
X53184000Y-28153014D01*
X53184000Y-28567000D01*
X53463000Y-28846000D01*
X55396000Y-28846000D01*
X55396000Y-28826000D01*
X55704000Y-28826000D01*
X55704000Y-28846000D01*
X55724000Y-28846000D01*
X55724000Y-29154000D01*
X55704000Y-29154000D01*
X55704000Y-30462000D01*
X55983000Y-30741000D01*
X56690000Y-30741000D01*
X56690000Y-30859123D01*
X54300000Y-30859123D01*
X54188827Y-30880042D01*
X54086721Y-30945745D01*
X54018222Y-31045997D01*
X53994123Y-31165000D01*
X53994123Y-32415000D01*
X54015042Y-32526173D01*
X54080745Y-32628279D01*
X54180997Y-32696778D01*
X54300000Y-32720877D01*
X54858082Y-32720877D01*
X54634837Y-32944123D01*
X54410000Y-32944123D01*
X54298827Y-32965042D01*
X54196721Y-33030745D01*
X54132320Y-33125000D01*
X53175377Y-33125000D01*
X53175377Y-32978500D01*
X53154458Y-32867327D01*
X53088755Y-32765221D01*
X52988503Y-32696722D01*
X52869500Y-32672623D01*
X52234500Y-32672623D01*
X52123327Y-32693542D01*
X52021221Y-32759245D01*
X51952722Y-32859497D01*
X51928623Y-32978500D01*
X51928623Y-33852088D01*
X51651377Y-33737249D01*
X51651377Y-32978500D01*
X51630458Y-32867327D01*
X51564755Y-32765221D01*
X51464503Y-32696722D01*
X51345500Y-32672623D01*
X50710500Y-32672623D01*
X50599327Y-32693542D01*
X50497221Y-32759245D01*
X50428722Y-32859497D01*
X50404623Y-32978500D01*
X50404623Y-33363000D01*
X50207149Y-33363000D01*
X50206458Y-33359327D01*
X50140755Y-33257221D01*
X50040503Y-33188722D01*
X49921500Y-33164623D01*
X48778500Y-33164623D01*
X48667327Y-33185542D01*
X48565221Y-33251245D01*
X48496722Y-33351497D01*
X48494393Y-33363000D01*
X48154040Y-33363000D01*
X48075877Y-33284837D01*
X48075877Y-32230000D01*
X48054958Y-32118827D01*
X47989255Y-32016721D01*
X47889003Y-31948222D01*
X47770000Y-31924123D01*
X46970000Y-31924123D01*
X46858827Y-31945042D01*
X46756721Y-32010745D01*
X46688222Y-32110997D01*
X46664123Y-32230000D01*
X46664123Y-34130000D01*
X46685042Y-34241173D01*
X46750745Y-34343279D01*
X46850997Y-34411778D01*
X46970000Y-34435877D01*
X47770000Y-34435877D01*
X47804640Y-34429359D01*
X47662500Y-34772514D01*
X47662500Y-34879000D01*
X47941500Y-35158000D01*
X49196000Y-35158000D01*
X49196000Y-35138000D01*
X49504000Y-35138000D01*
X49504000Y-35158000D01*
X49795500Y-35158000D01*
X49873500Y-35236000D01*
X50874000Y-35236000D01*
X50874000Y-35216000D01*
X51182000Y-35216000D01*
X51182000Y-35236000D01*
X51202000Y-35236000D01*
X51202000Y-35544000D01*
X51182000Y-35544000D01*
X51182000Y-35564000D01*
X50874000Y-35564000D01*
X50874000Y-35544000D01*
X50836500Y-35544000D01*
X50758500Y-35466000D01*
X49504000Y-35466000D01*
X49504000Y-35486000D01*
X49196000Y-35486000D01*
X49196000Y-35466000D01*
X47941500Y-35466000D01*
X47662500Y-35745000D01*
X47662500Y-35851486D01*
X47832401Y-36261663D01*
X47960738Y-36390000D01*
X38965500Y-36390000D01*
X38965500Y-36213000D01*
X38686500Y-35934000D01*
X37686000Y-35934000D01*
X37686000Y-35954000D01*
X37378000Y-35954000D01*
X37378000Y-35934000D01*
X37358000Y-35934000D01*
X37358000Y-35626000D01*
X37378000Y-35626000D01*
X37378000Y-34371500D01*
X37686000Y-34371500D01*
X37686000Y-35626000D01*
X38686500Y-35626000D01*
X38965500Y-35347000D01*
X38965500Y-34986514D01*
X38795599Y-34576337D01*
X38481663Y-34262401D01*
X38071486Y-34092500D01*
X37965000Y-34092500D01*
X37686000Y-34371500D01*
X37378000Y-34371500D01*
X37099000Y-34092500D01*
X37076195Y-34092500D01*
X37090877Y-34020000D01*
X37090877Y-33835000D01*
X39762500Y-33835000D01*
X39762500Y-33941486D01*
X39932401Y-34351663D01*
X40246337Y-34665599D01*
X40656514Y-34835500D01*
X41017000Y-34835500D01*
X41296000Y-34556500D01*
X41296000Y-33556000D01*
X41604000Y-33556000D01*
X41604000Y-34556500D01*
X41883000Y-34835500D01*
X42243486Y-34835500D01*
X42653663Y-34665599D01*
X42967599Y-34351663D01*
X43137500Y-33941486D01*
X43137500Y-33835000D01*
X42858500Y-33556000D01*
X41604000Y-33556000D01*
X41296000Y-33556000D01*
X40041500Y-33556000D01*
X39762500Y-33835000D01*
X37090877Y-33835000D01*
X37090877Y-32862514D01*
X39762500Y-32862514D01*
X39762500Y-32969000D01*
X40041500Y-33248000D01*
X41296000Y-33248000D01*
X41296000Y-33228000D01*
X41604000Y-33228000D01*
X41604000Y-33248000D01*
X42858500Y-33248000D01*
X43137500Y-32969000D01*
X43137500Y-32862514D01*
X42967599Y-32452337D01*
X42818262Y-32303000D01*
X43124000Y-32303000D01*
X43259657Y-32276016D01*
X43286641Y-32270649D01*
X43424520Y-32178520D01*
X43437663Y-32165377D01*
X43482337Y-32165377D01*
X44764123Y-33447164D01*
X44764123Y-34130000D01*
X44785042Y-34241173D01*
X44850745Y-34343279D01*
X44950997Y-34411778D01*
X45070000Y-34435877D01*
X45870000Y-34435877D01*
X45981173Y-34414958D01*
X46083279Y-34349255D01*
X46151778Y-34249003D01*
X46175877Y-34130000D01*
X46175877Y-32230000D01*
X46154958Y-32118827D01*
X46089255Y-32016721D01*
X45989003Y-31948222D01*
X45870000Y-31924123D01*
X45070000Y-31924123D01*
X44958827Y-31945042D01*
X44856721Y-32010745D01*
X44788222Y-32110997D01*
X44764123Y-32230000D01*
X44764123Y-32245082D01*
X44337377Y-31818337D01*
X44337377Y-31224500D01*
X44316458Y-31113327D01*
X44250755Y-31011221D01*
X44150503Y-30942722D01*
X44031500Y-30918623D01*
X42888500Y-30918623D01*
X42777327Y-30939542D01*
X42675221Y-31005245D01*
X42606722Y-31105497D01*
X42582623Y-31224500D01*
X42582623Y-31453000D01*
X42307149Y-31453000D01*
X42306458Y-31449327D01*
X42240755Y-31347221D01*
X42140503Y-31278722D01*
X42021500Y-31254623D01*
X40878500Y-31254623D01*
X40767327Y-31275542D01*
X40665221Y-31341245D01*
X40596722Y-31441497D01*
X40572623Y-31560500D01*
X40572623Y-32003249D01*
X40246337Y-32138401D01*
X39932401Y-32452337D01*
X39762500Y-32862514D01*
X37090877Y-32862514D01*
X37090877Y-32320000D01*
X37069958Y-32208827D01*
X37004255Y-32106721D01*
X36904003Y-32038222D01*
X36785000Y-32014123D01*
X36235000Y-32014123D01*
X36123827Y-32035042D01*
X36111221Y-32043154D01*
X36104003Y-32038222D01*
X35985000Y-32014123D01*
X35435000Y-32014123D01*
X35323827Y-32035042D01*
X35311221Y-32043154D01*
X35304003Y-32038222D01*
X35245000Y-32026273D01*
X35245000Y-31900000D01*
X35236701Y-31858279D01*
X35212649Y-31737359D01*
X35120521Y-31599480D01*
X35029914Y-31508873D01*
X35030121Y-31271372D01*
X34923777Y-31014000D01*
X34727036Y-30816915D01*
X34469850Y-30710122D01*
X34191372Y-30709879D01*
X33934000Y-30816223D01*
X33736915Y-31012964D01*
X33630122Y-31270150D01*
X33629879Y-31548628D01*
X33736223Y-31806000D01*
X33932964Y-32003085D01*
X33959546Y-32014123D01*
X33835000Y-32014123D01*
X33723827Y-32035042D01*
X33711221Y-32043154D01*
X33704003Y-32038222D01*
X33585000Y-32014123D01*
X33035000Y-32014123D01*
X32923827Y-32035042D01*
X32911221Y-32043154D01*
X32904003Y-32038222D01*
X32785000Y-32014123D01*
X32266251Y-32014123D01*
X32131099Y-31687837D01*
X31817163Y-31373901D01*
X31406986Y-31204000D01*
X31326500Y-31204000D01*
X31047500Y-31483000D01*
X31047500Y-33016000D01*
X31084000Y-33016000D01*
X31084000Y-33324000D01*
X31047500Y-33324000D01*
X31047500Y-33344000D01*
X30772500Y-33344000D01*
X30772500Y-33324000D01*
X30736000Y-33324000D01*
X30736000Y-33016000D01*
X30772500Y-33016000D01*
X30772500Y-31483000D01*
X30493500Y-31204000D01*
X30413014Y-31204000D01*
X30002837Y-31373901D01*
X29688901Y-31687837D01*
X29553749Y-32014123D01*
X29035000Y-32014123D01*
X28923827Y-32035042D01*
X28911221Y-32043154D01*
X28904003Y-32038222D01*
X28785000Y-32014123D01*
X28235000Y-32014123D01*
X28123827Y-32035042D01*
X28021721Y-32100745D01*
X27953222Y-32200997D01*
X27929123Y-32320000D01*
X27929123Y-34020000D01*
X27950042Y-34131173D01*
X28015745Y-34233279D01*
X28085000Y-34280599D01*
X28085000Y-34932475D01*
X28079327Y-34933542D01*
X27977221Y-34999245D01*
X27908722Y-35099497D01*
X27884623Y-35218500D01*
X27884623Y-35365000D01*
X27866040Y-35365000D01*
X27729914Y-35228874D01*
X27730121Y-34991372D01*
X27623777Y-34734000D01*
X27427036Y-34536915D01*
X27169850Y-34430122D01*
X26891372Y-34429879D01*
X26634000Y-34536223D01*
X26436915Y-34732964D01*
X26330122Y-34990150D01*
X26329879Y-35268628D01*
X26436223Y-35526000D01*
X26632964Y-35723085D01*
X26890150Y-35829878D01*
X27129046Y-35830086D01*
X27389480Y-36090520D01*
X27527359Y-36182649D01*
X27554343Y-36188016D01*
X27690000Y-36215000D01*
X27884623Y-36215000D01*
X27884623Y-36361500D01*
X27889986Y-36390000D01*
X16716000Y-36390000D01*
X16716000Y-36123000D01*
X16437000Y-35844000D01*
X14504000Y-35844000D01*
X14504000Y-35864000D01*
X14196000Y-35864000D01*
X14196000Y-35844000D01*
X14176000Y-35844000D01*
X14176000Y-35536000D01*
X14196000Y-35536000D01*
X14196000Y-35516000D01*
X14504000Y-35516000D01*
X14504000Y-35536000D01*
X16437000Y-35536000D01*
X16716000Y-35257000D01*
X16716000Y-34843014D01*
X16546099Y-34432837D01*
X16323262Y-34210000D01*
X19730000Y-34210000D01*
X19883074Y-34179552D01*
X20012843Y-34092843D01*
X20140685Y-33965000D01*
X22432500Y-33965000D01*
X22432500Y-34071486D01*
X22602401Y-34481663D01*
X22916337Y-34795599D01*
X23326514Y-34965500D01*
X23687000Y-34965500D01*
X23966000Y-34686500D01*
X23966000Y-33686000D01*
X24274000Y-33686000D01*
X24274000Y-34686500D01*
X24553000Y-34965500D01*
X24913486Y-34965500D01*
X25323663Y-34795599D01*
X25637599Y-34481663D01*
X25807500Y-34071486D01*
X25807500Y-33965000D01*
X25528500Y-33686000D01*
X24274000Y-33686000D01*
X23966000Y-33686000D01*
X22711500Y-33686000D01*
X22432500Y-33965000D01*
X20140685Y-33965000D01*
X23724626Y-30381059D01*
X23695000Y-30530000D01*
X23695000Y-31384623D01*
X23548500Y-31384623D01*
X23437327Y-31405542D01*
X23335221Y-31471245D01*
X23266722Y-31571497D01*
X23242623Y-31690500D01*
X23242623Y-31929458D01*
X23227000Y-32008000D01*
X23242623Y-32086542D01*
X23242623Y-32133249D01*
X22916337Y-32268401D01*
X22602401Y-32582337D01*
X22432500Y-32992514D01*
X22432500Y-33099000D01*
X22711500Y-33378000D01*
X23966000Y-33378000D01*
X23966000Y-33358000D01*
X24274000Y-33358000D01*
X24274000Y-33378000D01*
X25528500Y-33378000D01*
X25666433Y-33240067D01*
X25728628Y-33240121D01*
X25986000Y-33133777D01*
X26183085Y-32937036D01*
X26289878Y-32679850D01*
X26290121Y-32401372D01*
X26183777Y-32144000D01*
X25990991Y-31950877D01*
X27560000Y-31950877D01*
X27671173Y-31929958D01*
X27773279Y-31864255D01*
X27841778Y-31764003D01*
X27865877Y-31645000D01*
X27865877Y-31095000D01*
X27844958Y-30983827D01*
X27836846Y-30971221D01*
X27841778Y-30964003D01*
X27865877Y-30845000D01*
X27865877Y-30295000D01*
X27844958Y-30183827D01*
X27836846Y-30171221D01*
X27841778Y-30164003D01*
X27865877Y-30045000D01*
X27865877Y-29520000D01*
X28129884Y-29520000D01*
X28132964Y-29523085D01*
X28390150Y-29629878D01*
X28668628Y-29630121D01*
X28926000Y-29523777D01*
X29123085Y-29327036D01*
X29229878Y-29069850D01*
X29230121Y-28791372D01*
X29123777Y-28534000D01*
X28927036Y-28336915D01*
X28669850Y-28230122D01*
X28391372Y-28229879D01*
X28134000Y-28336223D01*
X28050077Y-28420000D01*
X27865877Y-28420000D01*
X27865877Y-27895000D01*
X27844958Y-27783827D01*
X27836846Y-27771221D01*
X27841778Y-27764003D01*
X27865877Y-27645000D01*
X27865877Y-27095000D01*
X27844958Y-26983827D01*
X27836846Y-26971221D01*
X27841778Y-26964003D01*
X27848941Y-26928628D01*
X35569879Y-26928628D01*
X35676223Y-27186000D01*
X35872964Y-27383085D01*
X36130150Y-27489878D01*
X36369046Y-27490086D01*
X36404914Y-27525954D01*
X36344000Y-27673014D01*
X36344000Y-27753500D01*
X36623000Y-28032500D01*
X38156000Y-28032500D01*
X38156000Y-27996000D01*
X38464000Y-27996000D01*
X38464000Y-28032500D01*
X39997000Y-28032500D01*
X40234500Y-27795000D01*
X40425960Y-27795000D01*
X40582623Y-27951663D01*
X40582623Y-28353249D01*
X40256337Y-28488401D01*
X40217119Y-28527619D01*
X39997000Y-28307500D01*
X38464000Y-28307500D01*
X38464000Y-28344000D01*
X38156000Y-28344000D01*
X38156000Y-28307500D01*
X36623000Y-28307500D01*
X36344000Y-28586500D01*
X36344000Y-28666986D01*
X36513901Y-29077163D01*
X36827837Y-29391099D01*
X37154123Y-29526251D01*
X37154123Y-30045000D01*
X37175042Y-30156173D01*
X37183154Y-30168779D01*
X37178222Y-30175997D01*
X37154123Y-30295000D01*
X37154123Y-30845000D01*
X37175042Y-30956173D01*
X37183154Y-30968779D01*
X37178222Y-30975997D01*
X37154123Y-31095000D01*
X37154123Y-31645000D01*
X37175042Y-31756173D01*
X37240745Y-31858279D01*
X37340997Y-31926778D01*
X37460000Y-31950877D01*
X39160000Y-31950877D01*
X39271173Y-31929958D01*
X39373279Y-31864255D01*
X39441778Y-31764003D01*
X39465877Y-31645000D01*
X39465877Y-31095000D01*
X39444958Y-30983827D01*
X39436846Y-30971221D01*
X39441778Y-30964003D01*
X39465877Y-30845000D01*
X39465877Y-30295000D01*
X39445179Y-30185000D01*
X39772500Y-30185000D01*
X39772500Y-30291486D01*
X39942401Y-30701663D01*
X40256337Y-31015599D01*
X40666514Y-31185500D01*
X41027000Y-31185500D01*
X41306000Y-30906500D01*
X41306000Y-29906000D01*
X40051500Y-29906000D01*
X39772500Y-30185000D01*
X39445179Y-30185000D01*
X39444958Y-30183827D01*
X39436846Y-30171221D01*
X39441778Y-30164003D01*
X39465877Y-30045000D01*
X39465877Y-29526251D01*
X39782745Y-29395000D01*
X39848500Y-29395000D01*
X40051500Y-29598000D01*
X41306000Y-29598000D01*
X41306000Y-29578000D01*
X41614000Y-29578000D01*
X41614000Y-29598000D01*
X41634000Y-29598000D01*
X41634000Y-29906000D01*
X41614000Y-29906000D01*
X41614000Y-30906500D01*
X41893000Y-31185500D01*
X42253486Y-31185500D01*
X42663663Y-31015599D01*
X42977599Y-30701663D01*
X43002570Y-30641377D01*
X44031500Y-30641377D01*
X44142673Y-30620458D01*
X44244779Y-30554755D01*
X44313278Y-30454503D01*
X44337377Y-30335500D01*
X44337377Y-29700500D01*
X44316458Y-29589327D01*
X44250755Y-29487221D01*
X44150503Y-29418722D01*
X44031500Y-29394623D01*
X43797366Y-29394623D01*
X43760520Y-29339480D01*
X43090520Y-28669480D01*
X43065856Y-28653000D01*
X43771960Y-28653000D01*
X45599480Y-30480520D01*
X45714123Y-30557123D01*
X45714123Y-31130000D01*
X45735042Y-31241173D01*
X45800745Y-31343279D01*
X45900997Y-31411778D01*
X46020000Y-31435877D01*
X46820000Y-31435877D01*
X46931173Y-31414958D01*
X47033279Y-31349255D01*
X47101778Y-31249003D01*
X47125877Y-31130000D01*
X47125877Y-29230000D01*
X47104958Y-29118827D01*
X47039255Y-29016721D01*
X46939003Y-28948222D01*
X46820000Y-28924123D01*
X46020000Y-28924123D01*
X45908827Y-28945042D01*
X45806721Y-29010745D01*
X45738222Y-29110997D01*
X45714123Y-29230000D01*
X45714123Y-29393083D01*
X44248520Y-27927480D01*
X44110641Y-27835351D01*
X44083657Y-27829984D01*
X43948000Y-27803000D01*
X42317149Y-27803000D01*
X42316458Y-27799327D01*
X42250755Y-27697221D01*
X42150503Y-27628722D01*
X42031500Y-27604623D01*
X41437664Y-27604623D01*
X41280396Y-27447356D01*
X41280500Y-27447377D01*
X41915500Y-27447377D01*
X42026673Y-27426458D01*
X42128779Y-27360755D01*
X42197278Y-27260503D01*
X42221377Y-27141500D01*
X42221377Y-25998500D01*
X42200458Y-25887327D01*
X42134755Y-25785221D01*
X42034503Y-25716722D01*
X41915500Y-25692623D01*
X41280500Y-25692623D01*
X41169327Y-25713542D01*
X41067221Y-25779245D01*
X40998722Y-25879497D01*
X40974623Y-25998500D01*
X40974623Y-26170000D01*
X39437680Y-26170000D01*
X39441778Y-26164003D01*
X39465877Y-26045000D01*
X39465877Y-25495000D01*
X39444958Y-25383827D01*
X39436846Y-25371221D01*
X39441778Y-25364003D01*
X39465877Y-25245000D01*
X39465877Y-24695000D01*
X39444958Y-24583827D01*
X39436846Y-24571221D01*
X39441778Y-24564003D01*
X39465877Y-24445000D01*
X39465877Y-23895000D01*
X39444958Y-23783827D01*
X39436846Y-23771221D01*
X39441778Y-23764003D01*
X39465877Y-23645000D01*
X39465877Y-23095000D01*
X39444958Y-22983827D01*
X39379255Y-22881721D01*
X39318195Y-22840000D01*
X41194123Y-22840000D01*
X41194123Y-24540000D01*
X41215042Y-24651173D01*
X41280745Y-24753279D01*
X41380997Y-24821778D01*
X41500000Y-24845877D01*
X43200000Y-24845877D01*
X43291599Y-24828641D01*
X43299317Y-24845388D01*
X43862548Y-25366167D01*
X44431291Y-25601738D01*
X44736000Y-25369956D01*
X44736000Y-23844000D01*
X44716000Y-23844000D01*
X44716000Y-23536000D01*
X44736000Y-23536000D01*
X44736000Y-22010044D01*
X44431291Y-21778262D01*
X43862548Y-22013833D01*
X43299317Y-22534612D01*
X43291045Y-22552560D01*
X43200000Y-22534123D01*
X41500000Y-22534123D01*
X41388827Y-22555042D01*
X41286721Y-22620745D01*
X41218222Y-22720997D01*
X41194123Y-22840000D01*
X39318195Y-22840000D01*
X39279003Y-22813222D01*
X39160000Y-22789123D01*
X37460000Y-22789123D01*
X37348827Y-22810042D01*
X37246721Y-22875745D01*
X37178222Y-22975997D01*
X37154123Y-23095000D01*
X37154123Y-23645000D01*
X37175042Y-23756173D01*
X37183154Y-23768779D01*
X37178222Y-23775997D01*
X37154123Y-23895000D01*
X37154123Y-24445000D01*
X37175042Y-24556173D01*
X37183154Y-24568779D01*
X37178222Y-24575997D01*
X37154123Y-24695000D01*
X37154123Y-25245000D01*
X37175042Y-25356173D01*
X37183154Y-25368779D01*
X37178222Y-25375997D01*
X37154123Y-25495000D01*
X37154123Y-26045000D01*
X37175042Y-26156173D01*
X37183154Y-26168779D01*
X37178222Y-26175997D01*
X37154123Y-26295000D01*
X37154123Y-26813749D01*
X36970746Y-26889706D01*
X36969914Y-26888874D01*
X36970121Y-26651372D01*
X36863777Y-26394000D01*
X36667036Y-26196915D01*
X36409850Y-26090122D01*
X36131372Y-26089879D01*
X35874000Y-26196223D01*
X35676915Y-26392964D01*
X35570122Y-26650150D01*
X35569879Y-26928628D01*
X27848941Y-26928628D01*
X27865877Y-26845000D01*
X27865877Y-26326251D01*
X28192163Y-26191099D01*
X28506099Y-25877163D01*
X28676000Y-25466986D01*
X28676000Y-25386500D01*
X28397000Y-25107500D01*
X26864000Y-25107500D01*
X26864000Y-25144000D01*
X26556000Y-25144000D01*
X26556000Y-25107500D01*
X25023000Y-25107500D01*
X24785500Y-25345000D01*
X24764041Y-25345000D01*
X24637377Y-25218336D01*
X24637377Y-24624500D01*
X24616458Y-24513327D01*
X24550755Y-24411221D01*
X24450503Y-24342722D01*
X24331500Y-24318623D01*
X23188500Y-24318623D01*
X23077327Y-24339542D01*
X22975221Y-24405245D01*
X22906722Y-24505497D01*
X22904393Y-24517000D01*
X20080143Y-24517000D01*
X20080182Y-24472058D01*
X19920666Y-24086000D01*
X19625554Y-23790372D01*
X19239774Y-23630182D01*
X18822058Y-23629818D01*
X18436000Y-23789334D01*
X18217953Y-24007000D01*
X15648262Y-24007000D01*
X15797599Y-23857663D01*
X15967500Y-23447486D01*
X15967500Y-23341000D01*
X15688500Y-23062000D01*
X14434000Y-23062000D01*
X14434000Y-23082000D01*
X14126000Y-23082000D01*
X14126000Y-23062000D01*
X14106000Y-23062000D01*
X14106000Y-22754000D01*
X14126000Y-22754000D01*
X14126000Y-21753500D01*
X14116000Y-21743500D01*
X14116000Y-21656000D01*
X14424000Y-21656000D01*
X14424000Y-22656500D01*
X14434000Y-22666500D01*
X14434000Y-22754000D01*
X14521500Y-22754000D01*
X14703000Y-22935500D01*
X15063486Y-22935500D01*
X15473663Y-22765599D01*
X15485262Y-22754000D01*
X15688500Y-22754000D01*
X15967500Y-22475000D01*
X15967500Y-22368514D01*
X15894770Y-22192929D01*
X15957500Y-22041486D01*
X15957500Y-21935000D01*
X15678500Y-21656000D01*
X15495262Y-21656000D01*
X15483663Y-21644401D01*
X15073486Y-21474500D01*
X14713000Y-21474500D01*
X14531500Y-21656000D01*
X14424000Y-21656000D01*
X14116000Y-21656000D01*
X14096000Y-21656000D01*
X14096000Y-21348000D01*
X14116000Y-21348000D01*
X14116000Y-21328000D01*
X14424000Y-21328000D01*
X14424000Y-21348000D01*
X15678500Y-21348000D01*
X15957500Y-21069000D01*
X15957500Y-20974500D01*
X22882623Y-20974500D01*
X22882623Y-21609500D01*
X22903542Y-21720673D01*
X22969245Y-21822779D01*
X23069497Y-21891278D01*
X23188500Y-21915377D01*
X23335000Y-21915377D01*
X23335000Y-22794623D01*
X23188500Y-22794623D01*
X23077327Y-22815542D01*
X22975221Y-22881245D01*
X22906722Y-22981497D01*
X22882623Y-23100500D01*
X22882623Y-23735500D01*
X22903542Y-23846673D01*
X22969245Y-23948779D01*
X23069497Y-24017278D01*
X23188500Y-24041377D01*
X24331500Y-24041377D01*
X24442673Y-24020458D01*
X24544779Y-23954755D01*
X24613278Y-23854503D01*
X24625328Y-23795000D01*
X25181738Y-23795000D01*
X24913901Y-24062837D01*
X24744000Y-24473014D01*
X24744000Y-24553500D01*
X25023000Y-24832500D01*
X26556000Y-24832500D01*
X26556000Y-24796000D01*
X26864000Y-24796000D01*
X26864000Y-24832500D01*
X28397000Y-24832500D01*
X28676000Y-24553500D01*
X28676000Y-24473014D01*
X28506099Y-24062837D01*
X28192163Y-23748901D01*
X27865877Y-23613749D01*
X27865877Y-23095000D01*
X27844958Y-22983827D01*
X27779255Y-22881721D01*
X27679003Y-22813222D01*
X27560000Y-22789123D01*
X25860000Y-22789123D01*
X25748827Y-22810042D01*
X25646721Y-22875745D01*
X25599401Y-22945000D01*
X24587935Y-22945000D01*
X24550755Y-22887221D01*
X24450503Y-22818722D01*
X24331500Y-22794623D01*
X24185000Y-22794623D01*
X24185000Y-21915377D01*
X24331500Y-21915377D01*
X24442673Y-21894458D01*
X24544779Y-21828755D01*
X24613278Y-21728503D01*
X24637377Y-21609500D01*
X24637377Y-20974500D01*
X24616458Y-20863327D01*
X24550755Y-20761221D01*
X24450503Y-20692722D01*
X24331500Y-20668623D01*
X23188500Y-20668623D01*
X23077327Y-20689542D01*
X22975221Y-20755245D01*
X22906722Y-20855497D01*
X22882623Y-20974500D01*
X15957500Y-20974500D01*
X15957500Y-20962514D01*
X15787599Y-20552337D01*
X15473663Y-20238401D01*
X15441310Y-20225000D01*
X18069505Y-20225000D01*
X18139334Y-20394000D01*
X18434446Y-20689628D01*
X18820226Y-20849818D01*
X19237942Y-20850182D01*
X19624000Y-20690666D01*
X19919628Y-20395554D01*
X19990448Y-20225000D01*
X22921770Y-20225000D01*
X22969245Y-20298779D01*
X23069497Y-20367278D01*
X23188500Y-20391377D01*
X24331500Y-20391377D01*
X24442673Y-20370458D01*
X24544779Y-20304755D01*
X24613278Y-20204503D01*
X24637377Y-20085500D01*
X24637377Y-19450500D01*
X24616458Y-19339327D01*
X24550755Y-19237221D01*
X24450503Y-19168722D01*
X24331500Y-19144623D01*
X23188500Y-19144623D01*
X23077327Y-19165542D01*
X22975221Y-19231245D01*
X22906722Y-19331497D01*
X22897912Y-19375000D01*
X19990495Y-19375000D01*
X19920666Y-19206000D01*
X19625554Y-18910372D01*
X19239774Y-18750182D01*
X18822058Y-18749818D01*
X18436000Y-18909334D01*
X18140372Y-19204446D01*
X18069552Y-19375000D01*
X14942123Y-19375000D01*
X14841500Y-19354623D01*
X13698500Y-19354623D01*
X13587327Y-19375542D01*
X13485221Y-19441245D01*
X13416722Y-19541497D01*
X13392623Y-19660500D01*
X13392623Y-20103249D01*
X13210000Y-20178894D01*
X13210000Y-16770877D01*
X15590000Y-16770877D01*
X15701173Y-16749958D01*
X15803279Y-16684255D01*
X15871778Y-16584003D01*
X15895877Y-16465000D01*
X15895877Y-16390000D01*
X18572000Y-16390000D01*
X18782476Y-16348134D01*
X18960909Y-16228909D01*
X19144441Y-16045377D01*
X19561500Y-16045377D01*
X19672673Y-16024458D01*
X19754196Y-15972000D01*
X23204182Y-15972000D01*
X26250000Y-19017818D01*
X26250000Y-21119954D01*
X26206915Y-21162964D01*
X26100122Y-21420150D01*
X26099879Y-21698628D01*
X26206223Y-21956000D01*
X26402964Y-22153085D01*
X26660150Y-22259878D01*
X26938628Y-22260121D01*
X27196000Y-22153777D01*
X27393085Y-21957036D01*
X27499878Y-21699850D01*
X27500121Y-21421372D01*
X27393777Y-21164000D01*
X27350000Y-21120146D01*
X27350000Y-20720000D01*
X27929123Y-20720000D01*
X27929123Y-22420000D01*
X27950042Y-22531173D01*
X28015745Y-22633279D01*
X28115997Y-22701778D01*
X28235000Y-22725877D01*
X28785000Y-22725877D01*
X28896173Y-22704958D01*
X28908779Y-22696846D01*
X28915997Y-22701778D01*
X29035000Y-22725877D01*
X29585000Y-22725877D01*
X29696173Y-22704958D01*
X29708779Y-22696846D01*
X29715997Y-22701778D01*
X29835000Y-22725877D01*
X30385000Y-22725877D01*
X30496173Y-22704958D01*
X30508779Y-22696846D01*
X30515997Y-22701778D01*
X30635000Y-22725877D01*
X31185000Y-22725877D01*
X31285000Y-22707060D01*
X31285000Y-22794893D01*
X31276915Y-22802964D01*
X31170122Y-23060150D01*
X31169879Y-23338628D01*
X31276223Y-23596000D01*
X31472964Y-23793085D01*
X31730150Y-23899878D01*
X32008628Y-23900121D01*
X32266000Y-23793777D01*
X32463085Y-23597036D01*
X32569878Y-23339850D01*
X32570121Y-23061372D01*
X32463777Y-22804000D01*
X32385790Y-22725877D01*
X32785000Y-22725877D01*
X32896173Y-22704958D01*
X32908779Y-22696846D01*
X32915997Y-22701778D01*
X33035000Y-22725877D01*
X33585000Y-22725877D01*
X33696173Y-22704958D01*
X33708779Y-22696846D01*
X33715997Y-22701778D01*
X33835000Y-22725877D01*
X34353749Y-22725877D01*
X34488901Y-23052163D01*
X34802837Y-23366099D01*
X35213014Y-23536000D01*
X35293500Y-23536000D01*
X35572500Y-23257000D01*
X35572500Y-21724000D01*
X35536000Y-21724000D01*
X35536000Y-21416000D01*
X35572500Y-21416000D01*
X35572500Y-21396000D01*
X35847500Y-21396000D01*
X35847500Y-21416000D01*
X35929123Y-21416000D01*
X35929123Y-21724000D01*
X35847500Y-21724000D01*
X35847500Y-23257000D01*
X36126500Y-23536000D01*
X36206986Y-23536000D01*
X36617163Y-23366099D01*
X36931099Y-23052163D01*
X37101000Y-22641986D01*
X37101000Y-22003000D01*
X37090877Y-21992877D01*
X37090877Y-21147123D01*
X37101000Y-21137000D01*
X37101000Y-20498014D01*
X36931099Y-20087837D01*
X36617163Y-19773901D01*
X36295500Y-19640664D01*
X36295500Y-19333000D01*
X36016500Y-19054000D01*
X35016000Y-19054000D01*
X35016000Y-19074000D01*
X34708000Y-19074000D01*
X34708000Y-19054000D01*
X34688000Y-19054000D01*
X34688000Y-18746000D01*
X34708000Y-18746000D01*
X34708000Y-18726000D01*
X35016000Y-18726000D01*
X35016000Y-18746000D01*
X36016500Y-18746000D01*
X36295500Y-18467000D01*
X36295500Y-18106514D01*
X36134158Y-17717000D01*
X41815960Y-17717000D01*
X46818502Y-22719543D01*
X46625377Y-22848584D01*
X46480683Y-22534612D01*
X45917452Y-22013833D01*
X45348709Y-21778262D01*
X45044000Y-22010044D01*
X45044000Y-23536000D01*
X45064000Y-23536000D01*
X45064000Y-23844000D01*
X45044000Y-23844000D01*
X45044000Y-25369956D01*
X45348709Y-25601738D01*
X45917452Y-25366167D01*
X46480683Y-24845388D01*
X46625377Y-24531416D01*
X46989914Y-24774991D01*
X47430000Y-24862530D01*
X47870086Y-24774991D01*
X48126225Y-24603845D01*
X48016915Y-24712964D01*
X47910122Y-24970150D01*
X47909879Y-25248628D01*
X48016223Y-25506000D01*
X48212964Y-25703085D01*
X48470150Y-25809878D01*
X48748628Y-25810121D01*
X49006000Y-25703777D01*
X49155037Y-25555000D01*
X51070000Y-25555000D01*
X51211882Y-25526778D01*
X51232641Y-25522649D01*
X51370520Y-25430520D01*
X52043619Y-24757421D01*
X52069914Y-24774991D01*
X52510000Y-24862530D01*
X52950086Y-24774991D01*
X53323173Y-24525703D01*
X53572461Y-24152616D01*
X53660000Y-23712530D01*
X53660000Y-23667470D01*
X53572461Y-23227384D01*
X53323173Y-22854297D01*
X52950086Y-22605009D01*
X52510000Y-22517470D01*
X52069914Y-22605009D01*
X51696827Y-22854297D01*
X51447539Y-23227384D01*
X51360000Y-23667470D01*
X51360000Y-23712530D01*
X51447341Y-24151619D01*
X50893960Y-24705000D01*
X50514835Y-24705000D01*
X50783173Y-24525703D01*
X51032461Y-24152616D01*
X51120000Y-23712530D01*
X51120000Y-23667470D01*
X51032461Y-23227384D01*
X50783173Y-22854297D01*
X50410086Y-22605009D01*
X49970000Y-22517470D01*
X49529914Y-22605009D01*
X49156827Y-22854297D01*
X48907539Y-23227384D01*
X48820000Y-23667470D01*
X48820000Y-23712530D01*
X48907539Y-24152616D01*
X49156827Y-24525703D01*
X49425165Y-24705000D01*
X49194793Y-24705000D01*
X49007036Y-24516915D01*
X48749850Y-24410122D01*
X48471372Y-24409879D01*
X48263049Y-24495956D01*
X48492461Y-24152616D01*
X48580000Y-23712530D01*
X48580000Y-23667470D01*
X48492461Y-23227384D01*
X48243173Y-22854297D01*
X47870086Y-22605009D01*
X47828492Y-22596735D01*
X47822649Y-22567360D01*
X47777722Y-22500122D01*
X47730520Y-22429479D01*
X42292520Y-16991480D01*
X42154641Y-16899351D01*
X42127657Y-16893984D01*
X41992000Y-16867000D01*
X36060890Y-16867000D01*
X36100520Y-16840520D01*
X36226041Y-16715000D01*
X48843960Y-16715000D01*
X54625000Y-22496041D01*
X54625000Y-22602008D01*
X54609914Y-22605009D01*
X54236827Y-22854297D01*
X53987539Y-23227384D01*
X53900000Y-23667470D01*
X53900000Y-23712530D01*
X53987539Y-24152616D01*
X54236827Y-24525703D01*
X54609914Y-24774991D01*
X55050000Y-24862530D01*
X55490086Y-24774991D01*
X55863173Y-24525703D01*
X56112461Y-24152616D01*
X56200000Y-23712530D01*
X56200000Y-23667470D01*
X56112461Y-23227384D01*
X55863173Y-22854297D01*
X55490086Y-22605009D01*
X55475000Y-22602008D01*
X55475000Y-22320000D01*
X55442649Y-22157360D01*
X55442649Y-22157359D01*
X55350521Y-22019480D01*
X49320520Y-15989480D01*
X49182641Y-15897351D01*
X49155657Y-15891984D01*
X49020000Y-15865000D01*
X36050000Y-15865000D01*
X35887360Y-15897351D01*
X35887358Y-15897352D01*
X35887359Y-15897352D01*
X35749479Y-15989480D01*
X35637730Y-16101230D01*
X35458500Y-15922000D01*
X34204000Y-15922000D01*
X34204000Y-15942000D01*
X33896000Y-15942000D01*
X33896000Y-15922000D01*
X33876000Y-15922000D01*
X33876000Y-15614000D01*
X33896000Y-15614000D01*
X33896000Y-14613500D01*
X34204000Y-14613500D01*
X34204000Y-15614000D01*
X35458500Y-15614000D01*
X35737500Y-15335000D01*
X35737500Y-15228514D01*
X35567599Y-14818337D01*
X35253663Y-14504401D01*
X34843486Y-14334500D01*
X34483000Y-14334500D01*
X34204000Y-14613500D01*
X33896000Y-14613500D01*
X33617000Y-14334500D01*
X33256514Y-14334500D01*
X32846337Y-14504401D01*
X32532401Y-14818337D01*
X32489989Y-14920727D01*
X32403663Y-14834401D01*
X31993486Y-14664500D01*
X31633000Y-14664500D01*
X31354000Y-14943500D01*
X31354000Y-15944000D01*
X31374000Y-15944000D01*
X31374000Y-16252000D01*
X31354000Y-16252000D01*
X31354000Y-16272000D01*
X31046000Y-16272000D01*
X31046000Y-16252000D01*
X29791500Y-16252000D01*
X29512500Y-16531000D01*
X29512500Y-16637486D01*
X29664573Y-17004623D01*
X28758500Y-17004623D01*
X28647327Y-17025542D01*
X28545221Y-17091245D01*
X28476722Y-17191497D01*
X28452623Y-17310500D01*
X28452623Y-17945500D01*
X28473542Y-18056673D01*
X28539245Y-18158779D01*
X28639497Y-18227278D01*
X28758500Y-18251377D01*
X29901500Y-18251377D01*
X30012673Y-18230458D01*
X30114779Y-18164755D01*
X30183278Y-18064503D01*
X30185607Y-18053000D01*
X30345039Y-18053000D01*
X30409245Y-18152779D01*
X30509497Y-18221278D01*
X30628500Y-18245377D01*
X31771500Y-18245377D01*
X31882673Y-18224458D01*
X31984779Y-18158755D01*
X32053278Y-18058503D01*
X32058025Y-18035060D01*
X32133657Y-18020016D01*
X32160641Y-18014649D01*
X32298520Y-17922520D01*
X33088948Y-17132092D01*
X33172623Y-17166751D01*
X33172623Y-17609500D01*
X33193542Y-17720673D01*
X33259245Y-17822779D01*
X33359497Y-17891278D01*
X33478500Y-17915377D01*
X33507672Y-17915377D01*
X33463249Y-18022623D01*
X33020500Y-18022623D01*
X32909327Y-18043542D01*
X32807221Y-18109245D01*
X32738722Y-18209497D01*
X32714623Y-18328500D01*
X32714623Y-18694337D01*
X31409480Y-19999480D01*
X31317351Y-20137359D01*
X31317351Y-20137360D01*
X31285000Y-20300000D01*
X31285000Y-20434374D01*
X31185000Y-20414123D01*
X30635000Y-20414123D01*
X30523827Y-20435042D01*
X30511221Y-20443154D01*
X30504003Y-20438222D01*
X30385000Y-20414123D01*
X29835000Y-20414123D01*
X29735000Y-20432940D01*
X29735000Y-19775377D01*
X29901500Y-19775377D01*
X30012673Y-19754458D01*
X30114779Y-19688755D01*
X30183278Y-19588503D01*
X30207377Y-19469500D01*
X30207377Y-18834500D01*
X30186458Y-18723327D01*
X30120755Y-18621221D01*
X30020503Y-18552722D01*
X29901500Y-18528623D01*
X28758500Y-18528623D01*
X28647327Y-18549542D01*
X28545221Y-18615245D01*
X28476722Y-18715497D01*
X28452623Y-18834500D01*
X28452623Y-19469500D01*
X28473542Y-19580673D01*
X28539245Y-19682779D01*
X28639497Y-19751278D01*
X28758500Y-19775377D01*
X28885000Y-19775377D01*
X28885000Y-20434374D01*
X28785000Y-20414123D01*
X28235000Y-20414123D01*
X28123827Y-20435042D01*
X28021721Y-20500745D01*
X27953222Y-20600997D01*
X27929123Y-20720000D01*
X27350000Y-20720000D01*
X27350000Y-18790000D01*
X27308134Y-18579524D01*
X27188909Y-18401091D01*
X24346332Y-15558514D01*
X29512500Y-15558514D01*
X29512500Y-15665000D01*
X29791500Y-15944000D01*
X31046000Y-15944000D01*
X31046000Y-14943500D01*
X30767000Y-14664500D01*
X30406514Y-14664500D01*
X29996337Y-14834401D01*
X29682401Y-15148337D01*
X29512500Y-15558514D01*
X24346332Y-15558514D01*
X23820909Y-15033091D01*
X23642476Y-14913866D01*
X23432000Y-14872000D01*
X20483262Y-14872000D01*
X20507599Y-14847663D01*
X20677500Y-14437486D01*
X20677500Y-14331000D01*
X20398500Y-14052000D01*
X19144000Y-14052000D01*
X19144000Y-14072000D01*
X18836000Y-14072000D01*
X18836000Y-14052000D01*
X17581500Y-14052000D01*
X17302500Y-14331000D01*
X17302500Y-14437486D01*
X17472401Y-14847663D01*
X17786337Y-15161599D01*
X18096324Y-15290000D01*
X16503262Y-15290000D01*
X16536099Y-15257163D01*
X16706000Y-14846986D01*
X16706000Y-14433000D01*
X16427000Y-14154000D01*
X14494000Y-14154000D01*
X14494000Y-14174000D01*
X14186000Y-14174000D01*
X14186000Y-14154000D01*
X14166000Y-14154000D01*
X14166000Y-13846000D01*
X14186000Y-13846000D01*
X14186000Y-13826000D01*
X14494000Y-13826000D01*
X14494000Y-13846000D01*
X16427000Y-13846000D01*
X16706000Y-13567000D01*
X16706000Y-13330000D01*
X17314311Y-13330000D01*
X17302500Y-13358514D01*
G36*
X30186000Y-35636000D02*
X31634000Y-35636000D01*
X31634000Y-35616000D01*
X31942000Y-35616000D01*
X31942000Y-35636000D01*
X31962000Y-35636000D01*
X31962000Y-35944000D01*
X31942000Y-35944000D01*
X31942000Y-35964000D01*
X31634000Y-35964000D01*
X31634000Y-35944000D01*
X30186000Y-35944000D01*
X30186000Y-35964000D01*
X29878000Y-35964000D01*
X29878000Y-35944000D01*
X29858000Y-35944000D01*
X29858000Y-35636000D01*
X29878000Y-35636000D01*
X29878000Y-35616000D01*
X30186000Y-35616000D01*
X30186000Y-35636000D01*
X30186000Y-35636000D01*
G37*
X30186000Y-35636000D02*
X31634000Y-35636000D01*
X31634000Y-35616000D01*
X31942000Y-35616000D01*
X31942000Y-35636000D01*
X31962000Y-35636000D01*
X31962000Y-35944000D01*
X31942000Y-35944000D01*
X31942000Y-35964000D01*
X31634000Y-35964000D01*
X31634000Y-35944000D01*
X30186000Y-35944000D01*
X30186000Y-35964000D01*
X29878000Y-35964000D01*
X29878000Y-35944000D01*
X29858000Y-35944000D01*
X29858000Y-35636000D01*
X29878000Y-35636000D01*
X29878000Y-35616000D01*
X30186000Y-35616000D01*
X30186000Y-35636000D01*
G36*
X25216927Y-27800448D02*
X25087157Y-27887157D01*
X25087155Y-27887160D01*
X19564314Y-33410000D01*
X15905877Y-33410000D01*
X15905877Y-33185000D01*
X15884958Y-33073827D01*
X15819255Y-32971721D01*
X15719003Y-32903222D01*
X15604490Y-32880032D01*
X15711173Y-32859958D01*
X15813279Y-32794255D01*
X15881778Y-32694003D01*
X15905877Y-32575000D01*
X15905877Y-32375000D01*
X20040000Y-32375000D01*
X20175657Y-32348016D01*
X20202641Y-32342649D01*
X20340520Y-32250520D01*
X24796040Y-27795000D01*
X25244316Y-27795000D01*
X25216927Y-27800448D01*
X25216927Y-27800448D01*
G37*
X25216927Y-27800448D02*
X25087157Y-27887157D01*
X25087155Y-27887160D01*
X19564314Y-33410000D01*
X15905877Y-33410000D01*
X15905877Y-33185000D01*
X15884958Y-33073827D01*
X15819255Y-32971721D01*
X15719003Y-32903222D01*
X15604490Y-32880032D01*
X15711173Y-32859958D01*
X15813279Y-32794255D01*
X15881778Y-32694003D01*
X15905877Y-32575000D01*
X15905877Y-32375000D01*
X20040000Y-32375000D01*
X20175657Y-32348016D01*
X20202641Y-32342649D01*
X20340520Y-32250520D01*
X24796040Y-27795000D01*
X25244316Y-27795000D01*
X25216927Y-27800448D01*
G36*
X24319480Y-27069480D02*
X19863960Y-31525000D01*
X15905877Y-31525000D01*
X15905877Y-31325000D01*
X15884958Y-31213827D01*
X15819255Y-31111721D01*
X15719003Y-31043222D01*
X15604490Y-31020032D01*
X15711173Y-30999958D01*
X15813279Y-30934255D01*
X15881778Y-30834003D01*
X15905877Y-30715000D01*
X15905877Y-30515000D01*
X20250000Y-30515000D01*
X20385657Y-30488016D01*
X20412641Y-30482649D01*
X20550520Y-30390520D01*
X23946041Y-26995000D01*
X24430946Y-26995000D01*
X24319480Y-27069480D01*
X24319480Y-27069480D01*
G37*
X24319480Y-27069480D02*
X19863960Y-31525000D01*
X15905877Y-31525000D01*
X15905877Y-31325000D01*
X15884958Y-31213827D01*
X15819255Y-31111721D01*
X15719003Y-31043222D01*
X15604490Y-31020032D01*
X15711173Y-30999958D01*
X15813279Y-30934255D01*
X15881778Y-30834003D01*
X15905877Y-30715000D01*
X15905877Y-30515000D01*
X20250000Y-30515000D01*
X20385657Y-30488016D01*
X20412641Y-30482649D01*
X20550520Y-30390520D01*
X23946041Y-26995000D01*
X24430946Y-26995000D01*
X24319480Y-27069480D01*
G36*
X13402623Y-24306751D02*
X13402623Y-24749500D01*
X13423542Y-24860673D01*
X13489245Y-24962779D01*
X13589497Y-25031278D01*
X13708500Y-25055377D01*
X14851500Y-25055377D01*
X14962673Y-25034458D01*
X15064779Y-24968755D01*
X15133278Y-24868503D01*
X15135607Y-24857000D01*
X17979845Y-24857000D01*
X17979818Y-24887942D01*
X18139334Y-25274000D01*
X18434446Y-25569628D01*
X18820226Y-25729818D01*
X19237942Y-25730182D01*
X19624000Y-25570666D01*
X19828022Y-25367000D01*
X22902851Y-25367000D01*
X22903542Y-25370673D01*
X22969245Y-25472779D01*
X23069497Y-25541278D01*
X23188500Y-25565377D01*
X23782337Y-25565377D01*
X24287480Y-26070521D01*
X24398945Y-26145000D01*
X23770000Y-26145000D01*
X23607359Y-26177351D01*
X23469480Y-26269479D01*
X20073960Y-29665000D01*
X15905877Y-29665000D01*
X15905877Y-29465000D01*
X15884958Y-29353827D01*
X15819255Y-29251721D01*
X15719003Y-29183222D01*
X15600000Y-29159123D01*
X14775000Y-29159123D01*
X14775000Y-28735377D01*
X14861500Y-28735377D01*
X14972673Y-28714458D01*
X15074779Y-28648755D01*
X15143278Y-28548503D01*
X15167377Y-28429500D01*
X15167377Y-27986751D01*
X15493663Y-27851599D01*
X15807599Y-27537663D01*
X15977500Y-27127486D01*
X15977500Y-27021000D01*
X15698500Y-26742000D01*
X14444000Y-26742000D01*
X14444000Y-26762000D01*
X14136000Y-26762000D01*
X14136000Y-26742000D01*
X14116000Y-26742000D01*
X14116000Y-26434000D01*
X14136000Y-26434000D01*
X14136000Y-25433500D01*
X14444000Y-25433500D01*
X14444000Y-26434000D01*
X15698500Y-26434000D01*
X15977500Y-26155000D01*
X15977500Y-26048514D01*
X15807599Y-25638337D01*
X15493663Y-25324401D01*
X15083486Y-25154500D01*
X14723000Y-25154500D01*
X14444000Y-25433500D01*
X14136000Y-25433500D01*
X13857000Y-25154500D01*
X13496514Y-25154500D01*
X13210000Y-25273178D01*
X13210000Y-24226964D01*
X13402623Y-24306751D01*
X13402623Y-24306751D01*
G37*
X13402623Y-24306751D02*
X13402623Y-24749500D01*
X13423542Y-24860673D01*
X13489245Y-24962779D01*
X13589497Y-25031278D01*
X13708500Y-25055377D01*
X14851500Y-25055377D01*
X14962673Y-25034458D01*
X15064779Y-24968755D01*
X15133278Y-24868503D01*
X15135607Y-24857000D01*
X17979845Y-24857000D01*
X17979818Y-24887942D01*
X18139334Y-25274000D01*
X18434446Y-25569628D01*
X18820226Y-25729818D01*
X19237942Y-25730182D01*
X19624000Y-25570666D01*
X19828022Y-25367000D01*
X22902851Y-25367000D01*
X22903542Y-25370673D01*
X22969245Y-25472779D01*
X23069497Y-25541278D01*
X23188500Y-25565377D01*
X23782337Y-25565377D01*
X24287480Y-26070521D01*
X24398945Y-26145000D01*
X23770000Y-26145000D01*
X23607359Y-26177351D01*
X23469480Y-26269479D01*
X20073960Y-29665000D01*
X15905877Y-29665000D01*
X15905877Y-29465000D01*
X15884958Y-29353827D01*
X15819255Y-29251721D01*
X15719003Y-29183222D01*
X15600000Y-29159123D01*
X14775000Y-29159123D01*
X14775000Y-28735377D01*
X14861500Y-28735377D01*
X14972673Y-28714458D01*
X15074779Y-28648755D01*
X15143278Y-28548503D01*
X15167377Y-28429500D01*
X15167377Y-27986751D01*
X15493663Y-27851599D01*
X15807599Y-27537663D01*
X15977500Y-27127486D01*
X15977500Y-27021000D01*
X15698500Y-26742000D01*
X14444000Y-26742000D01*
X14444000Y-26762000D01*
X14136000Y-26762000D01*
X14136000Y-26742000D01*
X14116000Y-26742000D01*
X14116000Y-26434000D01*
X14136000Y-26434000D01*
X14136000Y-25433500D01*
X14444000Y-25433500D01*
X14444000Y-26434000D01*
X15698500Y-26434000D01*
X15977500Y-26155000D01*
X15977500Y-26048514D01*
X15807599Y-25638337D01*
X15493663Y-25324401D01*
X15083486Y-25154500D01*
X14723000Y-25154500D01*
X14444000Y-25433500D01*
X14136000Y-25433500D01*
X13857000Y-25154500D01*
X13496514Y-25154500D01*
X13210000Y-25273178D01*
X13210000Y-24226964D01*
X13402623Y-24306751D01*
M02*
