G04 #@! TF.FileFunction,Soldermask,Top*
%FSLAX46Y46*%
G04 Gerber Fmt 4.6, Leading zero omitted, Abs format (unit mm)*
G04 Created by KiCad (PCBNEW 4.0.7+dfsg1-1) date Sun Dec 24 02:00:45 2017*
%MOMM*%
%LPD*%
G01*
G04 APERTURE LIST*
%ADD10C,0.100000*%
%ADD11R,1.143000X0.635000*%
%ADD12R,0.635000X1.143000*%
%ADD13R,0.800000X1.900000*%
%ADD14C,1.500000*%
%ADD15R,2.500000X1.250000*%
%ADD16R,1.700000X1.700000*%
%ADD17O,1.700000X1.700000*%
%ADD18R,1.000000X1.000000*%
%ADD19R,0.550000X1.700000*%
%ADD20R,1.700000X0.550000*%
G04 APERTURE END LIST*
D10*
D11*
X18990000Y-15422000D03*
X18990000Y-13898000D03*
D12*
X36008000Y-35780000D03*
X37532000Y-35780000D03*
D11*
X24120000Y-32008000D03*
X24120000Y-33532000D03*
X41460000Y-28228000D03*
X41460000Y-29752000D03*
X14280000Y-24432000D03*
X14280000Y-22908000D03*
X14270000Y-19978000D03*
X14270000Y-21502000D03*
D12*
X33338000Y-18900000D03*
X34862000Y-18900000D03*
D11*
X54380000Y-33628000D03*
X54380000Y-35152000D03*
D13*
X45470000Y-33180000D03*
X47370000Y-33180000D03*
X46420000Y-30180000D03*
D12*
X28508000Y-35790000D03*
X30032000Y-35790000D03*
X33312000Y-35790000D03*
X31788000Y-35790000D03*
D11*
X34050000Y-17292000D03*
X34050000Y-15768000D03*
X29330000Y-19152000D03*
X29330000Y-17628000D03*
X31200000Y-17622000D03*
X31200000Y-16098000D03*
X14290000Y-28112000D03*
X14290000Y-26588000D03*
X23760000Y-24942000D03*
X23760000Y-23418000D03*
X23760000Y-21292000D03*
X23760000Y-19768000D03*
X43460000Y-30018000D03*
X43460000Y-31542000D03*
X41450000Y-31878000D03*
X41450000Y-33402000D03*
X49350000Y-33788000D03*
X49350000Y-35312000D03*
D12*
X52552000Y-33550000D03*
X51028000Y-33550000D03*
X43122000Y-26570000D03*
X41598000Y-26570000D03*
D11*
X45790000Y-26568000D03*
X45790000Y-28092000D03*
D14*
X19030000Y-24680000D03*
X19030000Y-19800000D03*
D15*
X14340000Y-15840000D03*
X55550000Y-31790000D03*
X55550000Y-27080000D03*
X55550000Y-29000000D03*
X14350000Y-30090000D03*
X14350000Y-33810000D03*
X14350000Y-31950000D03*
X14350000Y-35690000D03*
X14340000Y-14000000D03*
D16*
X42350000Y-23690000D03*
D17*
X44890000Y-23690000D03*
X47430000Y-23690000D03*
X49970000Y-23690000D03*
X52510000Y-23690000D03*
X55050000Y-23690000D03*
D18*
X22360000Y-34060000D03*
X22360000Y-35360000D03*
D19*
X28510000Y-33170000D03*
X29310000Y-33170000D03*
X30110000Y-33170000D03*
X30910000Y-33170000D03*
X31710000Y-33170000D03*
X32510000Y-33170000D03*
X33310000Y-33170000D03*
X34110000Y-33170000D03*
X34910000Y-33170000D03*
X35710000Y-33170000D03*
X36510000Y-33170000D03*
D20*
X38310000Y-31370000D03*
X38310000Y-30570000D03*
X38310000Y-29770000D03*
X38310000Y-28970000D03*
X38310000Y-28170000D03*
X38310000Y-27370000D03*
X38310000Y-26570000D03*
X38310000Y-25770000D03*
X38310000Y-24970000D03*
X38310000Y-24170000D03*
X38310000Y-23370000D03*
D19*
X36510000Y-21570000D03*
X35710000Y-21570000D03*
X34910000Y-21570000D03*
X34110000Y-21570000D03*
X33310000Y-21570000D03*
X32510000Y-21570000D03*
X31710000Y-21570000D03*
X30910000Y-21570000D03*
X30110000Y-21570000D03*
X29310000Y-21570000D03*
X28510000Y-21570000D03*
D20*
X26710000Y-23370000D03*
X26710000Y-24170000D03*
X26710000Y-24970000D03*
X26710000Y-25770000D03*
X26710000Y-26570000D03*
X26710000Y-27370000D03*
X26710000Y-28170000D03*
X26710000Y-28970000D03*
X26710000Y-29770000D03*
X26710000Y-30570000D03*
X26710000Y-31370000D03*
M02*
