G04 #@! TF.GenerationSoftware,KiCad,Pcbnew,5.0.0-rc2+dfsg1-3*
G04 #@! TF.CreationDate,2018-08-01T23:56:54+03:00*
G04 #@! TF.ProjectId,snes_dejitter,736E65735F64656A69747465722E6B69,rev?*
G04 #@! TF.SameCoordinates,Original*
G04 #@! TF.FileFunction,Copper,L2,Bot,Signal*
G04 #@! TF.FilePolarity,Positive*
%FSLAX46Y46*%
G04 Gerber Fmt 4.6, Leading zero omitted, Abs format (unit mm)*
G04 Created by KiCad (PCBNEW 5.0.0-rc2+dfsg1-3) date Wed Aug  1 23:56:54 2018*
%MOMM*%
%LPD*%
G01*
G04 APERTURE LIST*
G04 #@! TA.AperFunction,ComponentPad*
%ADD10C,1.500000*%
G04 #@! TD*
G04 #@! TA.AperFunction,ComponentPad*
%ADD11R,1.700000X1.700000*%
G04 #@! TD*
G04 #@! TA.AperFunction,ComponentPad*
%ADD12O,1.700000X1.700000*%
G04 #@! TD*
G04 #@! TA.AperFunction,ViaPad*
%ADD13C,0.800000*%
G04 #@! TD*
G04 #@! TA.AperFunction,Conductor*
%ADD14C,0.500000*%
G04 #@! TD*
G04 #@! TA.AperFunction,Conductor*
%ADD15C,0.250000*%
G04 #@! TD*
G04 #@! TA.AperFunction,Conductor*
%ADD16C,0.200000*%
G04 #@! TD*
G04 APERTURE END LIST*
D10*
G04 #@! TO.P,Y1,1*
G04 #@! TO.N,Net-(C5-Pad1)*
X19030000Y-24680000D03*
G04 #@! TO.P,Y1,2*
G04 #@! TO.N,Net-(C6-Pad1)*
X19030000Y-19800000D03*
G04 #@! TD*
D11*
G04 #@! TO.P,J1,1*
G04 #@! TO.N,/DVDD5V*
X42350000Y-23690000D03*
D12*
G04 #@! TO.P,J1,2*
G04 #@! TO.N,GND*
X44890000Y-23690000D03*
G04 #@! TO.P,J1,3*
G04 #@! TO.N,/TCK*
X47430000Y-23690000D03*
G04 #@! TO.P,J1,4*
G04 #@! TO.N,/TMS*
X49970000Y-23690000D03*
G04 #@! TO.P,J1,5*
G04 #@! TO.N,/TDI*
X52510000Y-23690000D03*
G04 #@! TO.P,J1,6*
G04 #@! TO.N,Net-(J1-Pad6)*
X55050000Y-23690000D03*
G04 #@! TD*
D13*
G04 #@! TO.N,/DVDD5V*
X25590000Y-32540000D03*
X28530000Y-28930000D03*
X26800000Y-21560000D03*
X31870000Y-23200000D03*
X36270000Y-26790000D03*
X34330000Y-31410000D03*
G04 #@! TO.N,GND*
X56330000Y-35990000D03*
X44400000Y-27640000D03*
X43880000Y-35590000D03*
X45690000Y-35520000D03*
X47370000Y-35510000D03*
X54490000Y-25360000D03*
X52340000Y-25510000D03*
X50110000Y-30430000D03*
X51780000Y-30430000D03*
X53290000Y-30370000D03*
X19130000Y-28750000D03*
X36060000Y-24890000D03*
X36020000Y-23450000D03*
X34070000Y-23410000D03*
X33320000Y-26120000D03*
X34440000Y-27080000D03*
X36370000Y-28560000D03*
X36440000Y-30100000D03*
X28830000Y-24280000D03*
X30710000Y-25110000D03*
X31830000Y-27580000D03*
X30720000Y-29910000D03*
X29020000Y-15910000D03*
X23160000Y-17650000D03*
X17560000Y-34750000D03*
X19310000Y-34790000D03*
X19300000Y-32870000D03*
X17550000Y-32890000D03*
X19270000Y-31180000D03*
X17590000Y-31110000D03*
X17070000Y-14840000D03*
X14910000Y-17620000D03*
X15950000Y-18570000D03*
X16010000Y-21430000D03*
X16000000Y-23120000D03*
X16160000Y-26510000D03*
X39990000Y-28150000D03*
X40140000Y-30790000D03*
X35407347Y-15815000D03*
X36020000Y-18850000D03*
X22660000Y-32240000D03*
G04 #@! TO.N,/TMS*
X34470000Y-35810000D03*
G04 #@! TO.N,/TDI*
X48610000Y-25110000D03*
X27030000Y-35130000D03*
G04 #@! TD*
D14*
G04 #@! TO.N,/DVDD5V*
X31870000Y-25590000D02*
X31870000Y-23200000D01*
X28530000Y-28930000D02*
X31870000Y-25590000D01*
X26800000Y-21560000D02*
X28440000Y-23200000D01*
X28440000Y-23200000D02*
X31870000Y-23200000D01*
D15*
X36270000Y-26790000D02*
X35780000Y-26790000D01*
X32190000Y-23200000D02*
X31870000Y-23200000D01*
D14*
X35780000Y-26790000D02*
X32190000Y-23200000D01*
X34330000Y-31410000D02*
X34330000Y-28730000D01*
X34330000Y-28730000D02*
X36270000Y-26790000D01*
X39370000Y-23690000D02*
X42350000Y-23690000D01*
X36270000Y-26790000D02*
X39370000Y-23690000D01*
X25590000Y-32540000D02*
X26720000Y-31410000D01*
X26720000Y-31410000D02*
X34330000Y-31410000D01*
D15*
G04 #@! TO.N,GND*
X44400000Y-27640000D02*
X44330000Y-27570000D01*
X44060000Y-27570000D02*
X44330000Y-27570000D01*
X43860000Y-35570000D02*
X43830000Y-35570000D01*
X43880000Y-35590000D02*
X43860000Y-35570000D01*
X47360000Y-35520000D02*
X45690000Y-35520000D01*
X47370000Y-35510000D02*
X47360000Y-35520000D01*
X52340000Y-28200000D02*
X52340000Y-25510000D01*
X50110000Y-30430000D02*
X52340000Y-28200000D01*
X53230000Y-30430000D02*
X51780000Y-30430000D01*
X53290000Y-30370000D02*
X53230000Y-30430000D01*
X16160000Y-26620000D02*
X17000000Y-26620000D01*
X17000000Y-26620000D02*
X19130000Y-28750000D01*
X34110000Y-23450000D02*
X36020000Y-23450000D01*
X34070000Y-23410000D02*
X34110000Y-23450000D01*
X33480000Y-26120000D02*
X33320000Y-26120000D01*
X34440000Y-27080000D02*
X33480000Y-26120000D01*
X36370000Y-30030000D02*
X36370000Y-28560000D01*
X36440000Y-30100000D02*
X36370000Y-30030000D01*
X29880000Y-24280000D02*
X28830000Y-24280000D01*
X30710000Y-25110000D02*
X29880000Y-24280000D01*
X31830000Y-28800000D02*
X31830000Y-27580000D01*
X30720000Y-29910000D02*
X31830000Y-28800000D01*
X24900000Y-15910000D02*
X29020000Y-15910000D01*
X23160000Y-17650000D02*
X24900000Y-15910000D01*
X16160000Y-26510000D02*
X16160000Y-26620000D01*
X16160000Y-26620000D02*
X16160000Y-29680000D01*
X19310000Y-32880000D02*
X19310000Y-34790000D01*
X19300000Y-32870000D02*
X19310000Y-32880000D01*
X17560000Y-32890000D02*
X17550000Y-32890000D01*
X19270000Y-31180000D02*
X17560000Y-32890000D01*
X16160000Y-29680000D02*
X17590000Y-31110000D01*
X17070000Y-15460000D02*
X17070000Y-14840000D01*
X14910000Y-17620000D02*
X17070000Y-15460000D01*
X15950000Y-21370000D02*
X15950000Y-18570000D01*
X16010000Y-21430000D02*
X15950000Y-21370000D01*
X16000000Y-26350000D02*
X16000000Y-23120000D01*
X16160000Y-26510000D02*
X16000000Y-26350000D01*
X44060000Y-28350000D02*
X44060000Y-27570000D01*
X41620000Y-30790000D02*
X40140000Y-30790000D01*
X44060000Y-28350000D02*
X41620000Y-30790000D01*
X44060000Y-27570000D02*
X44060000Y-24520000D01*
X44060000Y-24520000D02*
X44890000Y-23690000D01*
X40140000Y-28300000D02*
X40140000Y-30790000D01*
X39990000Y-28150000D02*
X40140000Y-28300000D01*
X35407347Y-15815000D02*
X36020000Y-16427653D01*
X36020000Y-16427653D02*
X36020000Y-18850000D01*
X19865685Y-32870000D02*
X19300000Y-32870000D01*
X22595685Y-32870000D02*
X19865685Y-32870000D01*
X22660000Y-32805685D02*
X22595685Y-32870000D01*
X22660000Y-32240000D02*
X22660000Y-32805685D01*
G04 #@! TO.N,/TMS*
X49970000Y-26400000D02*
X49970000Y-23690000D01*
X40570000Y-35800000D02*
X49970000Y-26400000D01*
X34480000Y-35800000D02*
X40570000Y-35800000D01*
X34470000Y-35810000D02*
X34480000Y-35800000D01*
G04 #@! TO.N,/TDI*
X48610000Y-25760000D02*
X48610000Y-25110000D01*
X40980000Y-33390000D02*
X48610000Y-25760000D01*
X28770000Y-33390000D02*
X40980000Y-33390000D01*
X27030000Y-35130000D02*
X28770000Y-33390000D01*
G04 #@! TD*
D16*
G04 #@! TO.N,GND*
G36*
X56690001Y-36390000D02*
X34879950Y-36390000D01*
X35044950Y-36225000D01*
X40528143Y-36225000D01*
X40570000Y-36233326D01*
X40611857Y-36225000D01*
X40611858Y-36225000D01*
X40735827Y-36200341D01*
X40876408Y-36106408D01*
X40900121Y-36070919D01*
X50240923Y-26730118D01*
X50276408Y-26706408D01*
X50370341Y-26565827D01*
X50395000Y-26441858D01*
X50395000Y-26441857D01*
X50403326Y-26400001D01*
X50395000Y-26358145D01*
X50395000Y-24777992D01*
X50418707Y-24773276D01*
X50799103Y-24519103D01*
X51053276Y-24138707D01*
X51142529Y-23690000D01*
X51337471Y-23690000D01*
X51426724Y-24138707D01*
X51680897Y-24519103D01*
X52061293Y-24773276D01*
X52396739Y-24840000D01*
X52623261Y-24840000D01*
X52958707Y-24773276D01*
X53339103Y-24519103D01*
X53593276Y-24138707D01*
X53682529Y-23690000D01*
X53877471Y-23690000D01*
X53966724Y-24138707D01*
X54220897Y-24519103D01*
X54601293Y-24773276D01*
X54936739Y-24840000D01*
X55163261Y-24840000D01*
X55498707Y-24773276D01*
X55879103Y-24519103D01*
X56133276Y-24138707D01*
X56222529Y-23690000D01*
X56133276Y-23241293D01*
X55879103Y-22860897D01*
X55498707Y-22606724D01*
X55163261Y-22540000D01*
X54936739Y-22540000D01*
X54601293Y-22606724D01*
X54220897Y-22860897D01*
X53966724Y-23241293D01*
X53877471Y-23690000D01*
X53682529Y-23690000D01*
X53593276Y-23241293D01*
X53339103Y-22860897D01*
X52958707Y-22606724D01*
X52623261Y-22540000D01*
X52396739Y-22540000D01*
X52061293Y-22606724D01*
X51680897Y-22860897D01*
X51426724Y-23241293D01*
X51337471Y-23690000D01*
X51142529Y-23690000D01*
X51053276Y-23241293D01*
X50799103Y-22860897D01*
X50418707Y-22606724D01*
X50083261Y-22540000D01*
X49856739Y-22540000D01*
X49521293Y-22606724D01*
X49140897Y-22860897D01*
X48886724Y-23241293D01*
X48797471Y-23690000D01*
X48886724Y-24138707D01*
X49140897Y-24519103D01*
X49521293Y-24773276D01*
X49545001Y-24777992D01*
X49545000Y-26223959D01*
X40393960Y-35375000D01*
X35024950Y-35375000D01*
X34866518Y-35216568D01*
X34609239Y-35110000D01*
X34330761Y-35110000D01*
X34073482Y-35216568D01*
X33876568Y-35413482D01*
X33770000Y-35670761D01*
X33770000Y-35949239D01*
X33876568Y-36206518D01*
X34060050Y-36390000D01*
X13210000Y-36390000D01*
X13210000Y-34990761D01*
X26330000Y-34990761D01*
X26330000Y-35269239D01*
X26436568Y-35526518D01*
X26633482Y-35723432D01*
X26890761Y-35830000D01*
X27169239Y-35830000D01*
X27426518Y-35723432D01*
X27623432Y-35526518D01*
X27730000Y-35269239D01*
X27730000Y-35031040D01*
X28946041Y-33815000D01*
X40938143Y-33815000D01*
X40980000Y-33823326D01*
X41021857Y-33815000D01*
X41021858Y-33815000D01*
X41145827Y-33790341D01*
X41286408Y-33696408D01*
X41310121Y-33660919D01*
X48880923Y-26090118D01*
X48916408Y-26066408D01*
X49010341Y-25925827D01*
X49035000Y-25801858D01*
X49035000Y-25801857D01*
X49043326Y-25760001D01*
X49035000Y-25718145D01*
X49035000Y-25674950D01*
X49203432Y-25506518D01*
X49310000Y-25249239D01*
X49310000Y-24970761D01*
X49203432Y-24713482D01*
X49006518Y-24516568D01*
X48749239Y-24410000D01*
X48470761Y-24410000D01*
X48278903Y-24489470D01*
X48513276Y-24138707D01*
X48602529Y-23690000D01*
X48513276Y-23241293D01*
X48259103Y-22860897D01*
X47878707Y-22606724D01*
X47543261Y-22540000D01*
X47316739Y-22540000D01*
X46981293Y-22606724D01*
X46623952Y-22845492D01*
X46480683Y-22534612D01*
X45917452Y-22013833D01*
X45348709Y-21778262D01*
X45044000Y-22010044D01*
X45044000Y-23536000D01*
X45064000Y-23536000D01*
X45064000Y-23844000D01*
X45044000Y-23844000D01*
X45044000Y-25369956D01*
X45348709Y-25601738D01*
X45917452Y-25366167D01*
X46480683Y-24845388D01*
X46623952Y-24534508D01*
X46981293Y-24773276D01*
X47316739Y-24840000D01*
X47543261Y-24840000D01*
X47878707Y-24773276D01*
X48113976Y-24616074D01*
X48016568Y-24713482D01*
X47910000Y-24970761D01*
X47910000Y-25249239D01*
X48016568Y-25506518D01*
X48139505Y-25629455D01*
X40803960Y-32965000D01*
X28811857Y-32965000D01*
X28770000Y-32956674D01*
X28728142Y-32965000D01*
X28604173Y-32989659D01*
X28463592Y-33083592D01*
X28439881Y-33119078D01*
X27128960Y-34430000D01*
X26890761Y-34430000D01*
X26633482Y-34536568D01*
X26436568Y-34733482D01*
X26330000Y-34990761D01*
X13210000Y-34990761D01*
X13210000Y-32400761D01*
X24890000Y-32400761D01*
X24890000Y-32679239D01*
X24996568Y-32936518D01*
X25193482Y-33133432D01*
X25450761Y-33240000D01*
X25729239Y-33240000D01*
X25986518Y-33133432D01*
X26183432Y-32936518D01*
X26290000Y-32679239D01*
X26290000Y-32617816D01*
X26947817Y-31960000D01*
X33890050Y-31960000D01*
X33933482Y-32003432D01*
X34190761Y-32110000D01*
X34469239Y-32110000D01*
X34726518Y-32003432D01*
X34923432Y-31806518D01*
X35030000Y-31549239D01*
X35030000Y-31270761D01*
X34923432Y-31013482D01*
X34880000Y-30970050D01*
X34880000Y-28957816D01*
X36347817Y-27490000D01*
X36409239Y-27490000D01*
X36666518Y-27383432D01*
X36863432Y-27186518D01*
X36970000Y-26929239D01*
X36970000Y-26867816D01*
X39597817Y-24240000D01*
X41194123Y-24240000D01*
X41194123Y-24540000D01*
X41217407Y-24657054D01*
X41283712Y-24756288D01*
X41382946Y-24822593D01*
X41500000Y-24845877D01*
X43200000Y-24845877D01*
X43291183Y-24827739D01*
X43299317Y-24845388D01*
X43862548Y-25366167D01*
X44431291Y-25601738D01*
X44736000Y-25369956D01*
X44736000Y-23844000D01*
X44716000Y-23844000D01*
X44716000Y-23536000D01*
X44736000Y-23536000D01*
X44736000Y-22010044D01*
X44431291Y-21778262D01*
X43862548Y-22013833D01*
X43299317Y-22534612D01*
X43291183Y-22552261D01*
X43200000Y-22534123D01*
X41500000Y-22534123D01*
X41382946Y-22557407D01*
X41283712Y-22623712D01*
X41217407Y-22722946D01*
X41194123Y-22840000D01*
X41194123Y-23140000D01*
X39424168Y-23140000D01*
X39369999Y-23129225D01*
X39315830Y-23140000D01*
X39155401Y-23171911D01*
X38973472Y-23293472D01*
X38942786Y-23339397D01*
X36192184Y-26090000D01*
X36130761Y-26090000D01*
X35937760Y-26169943D01*
X32540604Y-22772788D01*
X32404599Y-22681912D01*
X32326284Y-22666334D01*
X32266518Y-22606568D01*
X32009239Y-22500000D01*
X31730761Y-22500000D01*
X31473482Y-22606568D01*
X31430050Y-22650000D01*
X28667817Y-22650000D01*
X27500000Y-21482184D01*
X27500000Y-21420761D01*
X27393432Y-21163482D01*
X27196518Y-20966568D01*
X26939239Y-20860000D01*
X26660761Y-20860000D01*
X26403482Y-20966568D01*
X26206568Y-21163482D01*
X26100000Y-21420761D01*
X26100000Y-21699239D01*
X26206568Y-21956518D01*
X26403482Y-22153432D01*
X26660761Y-22260000D01*
X26722184Y-22260000D01*
X28012786Y-23550603D01*
X28043472Y-23596528D01*
X28183273Y-23689940D01*
X28225399Y-23718088D01*
X28225400Y-23718088D01*
X28225401Y-23718089D01*
X28385830Y-23750000D01*
X28439999Y-23760775D01*
X28494168Y-23750000D01*
X31320001Y-23750000D01*
X31320000Y-25362183D01*
X28452184Y-28230000D01*
X28390761Y-28230000D01*
X28133482Y-28336568D01*
X27936568Y-28533482D01*
X27830000Y-28790761D01*
X27830000Y-29069239D01*
X27936568Y-29326518D01*
X28133482Y-29523432D01*
X28390761Y-29630000D01*
X28669239Y-29630000D01*
X28926518Y-29523432D01*
X29123432Y-29326518D01*
X29230000Y-29069239D01*
X29230000Y-29007816D01*
X32220603Y-26017214D01*
X32266528Y-25986528D01*
X32388089Y-25804599D01*
X32420000Y-25644170D01*
X32420000Y-25644169D01*
X32430775Y-25590001D01*
X32420000Y-25535832D01*
X32420000Y-24207816D01*
X35247183Y-27035000D01*
X33979398Y-28302786D01*
X33933473Y-28333472D01*
X33902788Y-28379396D01*
X33811912Y-28515401D01*
X33769225Y-28730000D01*
X33780001Y-28784174D01*
X33780000Y-30860000D01*
X26774168Y-30860000D01*
X26719999Y-30849225D01*
X26665830Y-30860000D01*
X26505401Y-30891911D01*
X26505400Y-30891912D01*
X26505399Y-30891912D01*
X26463273Y-30920060D01*
X26323472Y-31013472D01*
X26292786Y-31059397D01*
X25512184Y-31840000D01*
X25450761Y-31840000D01*
X25193482Y-31946568D01*
X24996568Y-32143482D01*
X24890000Y-32400761D01*
X13210000Y-32400761D01*
X13210000Y-24471142D01*
X17980000Y-24471142D01*
X17980000Y-24888858D01*
X18139853Y-25274777D01*
X18435223Y-25570147D01*
X18821142Y-25730000D01*
X19238858Y-25730000D01*
X19624777Y-25570147D01*
X19920147Y-25274777D01*
X20080000Y-24888858D01*
X20080000Y-24471142D01*
X19920147Y-24085223D01*
X19624777Y-23789853D01*
X19238858Y-23630000D01*
X18821142Y-23630000D01*
X18435223Y-23789853D01*
X18139853Y-24085223D01*
X17980000Y-24471142D01*
X13210000Y-24471142D01*
X13210000Y-19591142D01*
X17980000Y-19591142D01*
X17980000Y-20008858D01*
X18139853Y-20394777D01*
X18435223Y-20690147D01*
X18821142Y-20850000D01*
X19238858Y-20850000D01*
X19624777Y-20690147D01*
X19920147Y-20394777D01*
X20080000Y-20008858D01*
X20080000Y-19591142D01*
X19920147Y-19205223D01*
X19624777Y-18909853D01*
X19238858Y-18750000D01*
X18821142Y-18750000D01*
X18435223Y-18909853D01*
X18139853Y-19205223D01*
X17980000Y-19591142D01*
X13210000Y-19591142D01*
X13210000Y-13330000D01*
X56690000Y-13330000D01*
X56690001Y-36390000D01*
X56690001Y-36390000D01*
G37*
X56690001Y-36390000D02*
X34879950Y-36390000D01*
X35044950Y-36225000D01*
X40528143Y-36225000D01*
X40570000Y-36233326D01*
X40611857Y-36225000D01*
X40611858Y-36225000D01*
X40735827Y-36200341D01*
X40876408Y-36106408D01*
X40900121Y-36070919D01*
X50240923Y-26730118D01*
X50276408Y-26706408D01*
X50370341Y-26565827D01*
X50395000Y-26441858D01*
X50395000Y-26441857D01*
X50403326Y-26400001D01*
X50395000Y-26358145D01*
X50395000Y-24777992D01*
X50418707Y-24773276D01*
X50799103Y-24519103D01*
X51053276Y-24138707D01*
X51142529Y-23690000D01*
X51337471Y-23690000D01*
X51426724Y-24138707D01*
X51680897Y-24519103D01*
X52061293Y-24773276D01*
X52396739Y-24840000D01*
X52623261Y-24840000D01*
X52958707Y-24773276D01*
X53339103Y-24519103D01*
X53593276Y-24138707D01*
X53682529Y-23690000D01*
X53877471Y-23690000D01*
X53966724Y-24138707D01*
X54220897Y-24519103D01*
X54601293Y-24773276D01*
X54936739Y-24840000D01*
X55163261Y-24840000D01*
X55498707Y-24773276D01*
X55879103Y-24519103D01*
X56133276Y-24138707D01*
X56222529Y-23690000D01*
X56133276Y-23241293D01*
X55879103Y-22860897D01*
X55498707Y-22606724D01*
X55163261Y-22540000D01*
X54936739Y-22540000D01*
X54601293Y-22606724D01*
X54220897Y-22860897D01*
X53966724Y-23241293D01*
X53877471Y-23690000D01*
X53682529Y-23690000D01*
X53593276Y-23241293D01*
X53339103Y-22860897D01*
X52958707Y-22606724D01*
X52623261Y-22540000D01*
X52396739Y-22540000D01*
X52061293Y-22606724D01*
X51680897Y-22860897D01*
X51426724Y-23241293D01*
X51337471Y-23690000D01*
X51142529Y-23690000D01*
X51053276Y-23241293D01*
X50799103Y-22860897D01*
X50418707Y-22606724D01*
X50083261Y-22540000D01*
X49856739Y-22540000D01*
X49521293Y-22606724D01*
X49140897Y-22860897D01*
X48886724Y-23241293D01*
X48797471Y-23690000D01*
X48886724Y-24138707D01*
X49140897Y-24519103D01*
X49521293Y-24773276D01*
X49545001Y-24777992D01*
X49545000Y-26223959D01*
X40393960Y-35375000D01*
X35024950Y-35375000D01*
X34866518Y-35216568D01*
X34609239Y-35110000D01*
X34330761Y-35110000D01*
X34073482Y-35216568D01*
X33876568Y-35413482D01*
X33770000Y-35670761D01*
X33770000Y-35949239D01*
X33876568Y-36206518D01*
X34060050Y-36390000D01*
X13210000Y-36390000D01*
X13210000Y-34990761D01*
X26330000Y-34990761D01*
X26330000Y-35269239D01*
X26436568Y-35526518D01*
X26633482Y-35723432D01*
X26890761Y-35830000D01*
X27169239Y-35830000D01*
X27426518Y-35723432D01*
X27623432Y-35526518D01*
X27730000Y-35269239D01*
X27730000Y-35031040D01*
X28946041Y-33815000D01*
X40938143Y-33815000D01*
X40980000Y-33823326D01*
X41021857Y-33815000D01*
X41021858Y-33815000D01*
X41145827Y-33790341D01*
X41286408Y-33696408D01*
X41310121Y-33660919D01*
X48880923Y-26090118D01*
X48916408Y-26066408D01*
X49010341Y-25925827D01*
X49035000Y-25801858D01*
X49035000Y-25801857D01*
X49043326Y-25760001D01*
X49035000Y-25718145D01*
X49035000Y-25674950D01*
X49203432Y-25506518D01*
X49310000Y-25249239D01*
X49310000Y-24970761D01*
X49203432Y-24713482D01*
X49006518Y-24516568D01*
X48749239Y-24410000D01*
X48470761Y-24410000D01*
X48278903Y-24489470D01*
X48513276Y-24138707D01*
X48602529Y-23690000D01*
X48513276Y-23241293D01*
X48259103Y-22860897D01*
X47878707Y-22606724D01*
X47543261Y-22540000D01*
X47316739Y-22540000D01*
X46981293Y-22606724D01*
X46623952Y-22845492D01*
X46480683Y-22534612D01*
X45917452Y-22013833D01*
X45348709Y-21778262D01*
X45044000Y-22010044D01*
X45044000Y-23536000D01*
X45064000Y-23536000D01*
X45064000Y-23844000D01*
X45044000Y-23844000D01*
X45044000Y-25369956D01*
X45348709Y-25601738D01*
X45917452Y-25366167D01*
X46480683Y-24845388D01*
X46623952Y-24534508D01*
X46981293Y-24773276D01*
X47316739Y-24840000D01*
X47543261Y-24840000D01*
X47878707Y-24773276D01*
X48113976Y-24616074D01*
X48016568Y-24713482D01*
X47910000Y-24970761D01*
X47910000Y-25249239D01*
X48016568Y-25506518D01*
X48139505Y-25629455D01*
X40803960Y-32965000D01*
X28811857Y-32965000D01*
X28770000Y-32956674D01*
X28728142Y-32965000D01*
X28604173Y-32989659D01*
X28463592Y-33083592D01*
X28439881Y-33119078D01*
X27128960Y-34430000D01*
X26890761Y-34430000D01*
X26633482Y-34536568D01*
X26436568Y-34733482D01*
X26330000Y-34990761D01*
X13210000Y-34990761D01*
X13210000Y-32400761D01*
X24890000Y-32400761D01*
X24890000Y-32679239D01*
X24996568Y-32936518D01*
X25193482Y-33133432D01*
X25450761Y-33240000D01*
X25729239Y-33240000D01*
X25986518Y-33133432D01*
X26183432Y-32936518D01*
X26290000Y-32679239D01*
X26290000Y-32617816D01*
X26947817Y-31960000D01*
X33890050Y-31960000D01*
X33933482Y-32003432D01*
X34190761Y-32110000D01*
X34469239Y-32110000D01*
X34726518Y-32003432D01*
X34923432Y-31806518D01*
X35030000Y-31549239D01*
X35030000Y-31270761D01*
X34923432Y-31013482D01*
X34880000Y-30970050D01*
X34880000Y-28957816D01*
X36347817Y-27490000D01*
X36409239Y-27490000D01*
X36666518Y-27383432D01*
X36863432Y-27186518D01*
X36970000Y-26929239D01*
X36970000Y-26867816D01*
X39597817Y-24240000D01*
X41194123Y-24240000D01*
X41194123Y-24540000D01*
X41217407Y-24657054D01*
X41283712Y-24756288D01*
X41382946Y-24822593D01*
X41500000Y-24845877D01*
X43200000Y-24845877D01*
X43291183Y-24827739D01*
X43299317Y-24845388D01*
X43862548Y-25366167D01*
X44431291Y-25601738D01*
X44736000Y-25369956D01*
X44736000Y-23844000D01*
X44716000Y-23844000D01*
X44716000Y-23536000D01*
X44736000Y-23536000D01*
X44736000Y-22010044D01*
X44431291Y-21778262D01*
X43862548Y-22013833D01*
X43299317Y-22534612D01*
X43291183Y-22552261D01*
X43200000Y-22534123D01*
X41500000Y-22534123D01*
X41382946Y-22557407D01*
X41283712Y-22623712D01*
X41217407Y-22722946D01*
X41194123Y-22840000D01*
X41194123Y-23140000D01*
X39424168Y-23140000D01*
X39369999Y-23129225D01*
X39315830Y-23140000D01*
X39155401Y-23171911D01*
X38973472Y-23293472D01*
X38942786Y-23339397D01*
X36192184Y-26090000D01*
X36130761Y-26090000D01*
X35937760Y-26169943D01*
X32540604Y-22772788D01*
X32404599Y-22681912D01*
X32326284Y-22666334D01*
X32266518Y-22606568D01*
X32009239Y-22500000D01*
X31730761Y-22500000D01*
X31473482Y-22606568D01*
X31430050Y-22650000D01*
X28667817Y-22650000D01*
X27500000Y-21482184D01*
X27500000Y-21420761D01*
X27393432Y-21163482D01*
X27196518Y-20966568D01*
X26939239Y-20860000D01*
X26660761Y-20860000D01*
X26403482Y-20966568D01*
X26206568Y-21163482D01*
X26100000Y-21420761D01*
X26100000Y-21699239D01*
X26206568Y-21956518D01*
X26403482Y-22153432D01*
X26660761Y-22260000D01*
X26722184Y-22260000D01*
X28012786Y-23550603D01*
X28043472Y-23596528D01*
X28183273Y-23689940D01*
X28225399Y-23718088D01*
X28225400Y-23718088D01*
X28225401Y-23718089D01*
X28385830Y-23750000D01*
X28439999Y-23760775D01*
X28494168Y-23750000D01*
X31320001Y-23750000D01*
X31320000Y-25362183D01*
X28452184Y-28230000D01*
X28390761Y-28230000D01*
X28133482Y-28336568D01*
X27936568Y-28533482D01*
X27830000Y-28790761D01*
X27830000Y-29069239D01*
X27936568Y-29326518D01*
X28133482Y-29523432D01*
X28390761Y-29630000D01*
X28669239Y-29630000D01*
X28926518Y-29523432D01*
X29123432Y-29326518D01*
X29230000Y-29069239D01*
X29230000Y-29007816D01*
X32220603Y-26017214D01*
X32266528Y-25986528D01*
X32388089Y-25804599D01*
X32420000Y-25644170D01*
X32420000Y-25644169D01*
X32430775Y-25590001D01*
X32420000Y-25535832D01*
X32420000Y-24207816D01*
X35247183Y-27035000D01*
X33979398Y-28302786D01*
X33933473Y-28333472D01*
X33902788Y-28379396D01*
X33811912Y-28515401D01*
X33769225Y-28730000D01*
X33780001Y-28784174D01*
X33780000Y-30860000D01*
X26774168Y-30860000D01*
X26719999Y-30849225D01*
X26665830Y-30860000D01*
X26505401Y-30891911D01*
X26505400Y-30891912D01*
X26505399Y-30891912D01*
X26463273Y-30920060D01*
X26323472Y-31013472D01*
X26292786Y-31059397D01*
X25512184Y-31840000D01*
X25450761Y-31840000D01*
X25193482Y-31946568D01*
X24996568Y-32143482D01*
X24890000Y-32400761D01*
X13210000Y-32400761D01*
X13210000Y-24471142D01*
X17980000Y-24471142D01*
X17980000Y-24888858D01*
X18139853Y-25274777D01*
X18435223Y-25570147D01*
X18821142Y-25730000D01*
X19238858Y-25730000D01*
X19624777Y-25570147D01*
X19920147Y-25274777D01*
X20080000Y-24888858D01*
X20080000Y-24471142D01*
X19920147Y-24085223D01*
X19624777Y-23789853D01*
X19238858Y-23630000D01*
X18821142Y-23630000D01*
X18435223Y-23789853D01*
X18139853Y-24085223D01*
X17980000Y-24471142D01*
X13210000Y-24471142D01*
X13210000Y-19591142D01*
X17980000Y-19591142D01*
X17980000Y-20008858D01*
X18139853Y-20394777D01*
X18435223Y-20690147D01*
X18821142Y-20850000D01*
X19238858Y-20850000D01*
X19624777Y-20690147D01*
X19920147Y-20394777D01*
X20080000Y-20008858D01*
X20080000Y-19591142D01*
X19920147Y-19205223D01*
X19624777Y-18909853D01*
X19238858Y-18750000D01*
X18821142Y-18750000D01*
X18435223Y-18909853D01*
X18139853Y-19205223D01*
X17980000Y-19591142D01*
X13210000Y-19591142D01*
X13210000Y-13330000D01*
X56690000Y-13330000D01*
X56690001Y-36390000D01*
G04 #@! TD*
M02*
